<svg xmlns="http://www.w3.org/2000/svg" xmlns:xlink="http://www.w3.org/1999/xlink" x="0" y="0" version="1.1" viewBox="0 0 650 500" style="enable-background:new 0 0 650 500" xml:space="preserve"><g id="BACKGROUND"><rect style="fill:#fff" width="650" height="500"/></g><g id="OBJECTS"><g><rect x="371.5" y="347.667" transform="matrix(-1 -3.543178e-11 3.543178e-11 -1 848.5 803.7512)" style="fill:#fa5;stroke:#e58f41;stroke-width:1.2647;stroke-miterlimit:10" width="105.5" height="108.418"/><rect x="170" y="295" transform="matrix(-1 -5.534785e-11 5.534785e-11 -1 440.3688 751.0845)" style="fill:#fa5;stroke:#e58f41;stroke-width:1.8138;stroke-miterlimit:10" width="100.369" height="161.084"/><rect x="270.369" y="189.667" transform="matrix(-1 -8.794622e-11 8.794622e-11 -1 645.1664 645.7512)" style="fill:#fa5;stroke:#e58f41;stroke-width:1.6772;stroke-miterlimit:10" width="104.429" height="266.418"/><g><path style="fill:#ffcc7b" d="M312.18,253.158c5.182-3.628,10.01-5.442,14.479-5.442c3.045,0,5.442,1.36,7.191,4.082 c1.943,3.045,2.916,10.074,2.916,21.086v33.331c0,11.921-0.357,20.051-1.069,24.392c2.267-0.065,4.825-0.065,7.677,0 c2.072,0.063,3.628,1.182,4.665,3.353c1.035,2.17,1.197,4.228,0.485,6.171c-0.194,0.452-0.325,0.777-0.389,0.972 c-1.62,2.332-5.15,3.596-10.592,3.79c-5.962,0.194-14.674-0.034-26.141-0.681c-4.406-0.26-6.608-2.105-6.608-5.539 c0-1.297,0.42-2.721,1.263-4.275c1.23-2.203,4.113-3.305,8.648-3.305c0.972,0,2.041,0.032,3.207,0.098 c0.258-1.88,0.42-8.292,0.486-19.241c0.064-11.596-0.228-26.27-0.875-44.021c-3.823,5.247-7.71,7.871-11.661,7.871 c-1.686,0-3.272-0.646-4.762-1.943c-1.491-1.295-2.235-2.785-2.235-4.47c0-1.619,0.68-3.336,2.041-5.15 C304.081,259.96,307.838,256.267,312.18,253.158z"/></g></g><g><path style="fill:#d77b61" d="M188.196,177.36c-3.117-2.072-4.347-7.179-5.41-10.522c-1.697-5.335-2.505-10.948-2.374-16.545 c0.06-2.558,0.633-5.959,2.924-7.496c2.065-1.386,4.902-1.219,6.92-2.673c1.763-1.271,2.526-3.514,2.884-5.658 c0.779-4.665,0.127-9.436-0.526-14.121c-0.051-0.368,3.942,0.952,4.265,1.149c1.19,0.729,1.933,1.478,3.268,1.954 c2.06,0.735,5.06,1.174,5.831,3.591c0.278,0.873,0.26,1.807,0.298,2.722c0.123,2.967,0.919,5.986,2.61,8.456 c0.604,0.882,1.302,2.119,2.356,2.426c1.386,0.404,3.143-0.268,4.499-0.535c0.85-0.167,1.717-0.359,2.575-0.24 c3.764,0.523,6.68,5.837,8.222,8.856c1.883,3.689,2.832,7.978,1.157,11.93c-2.838,6.697-11.108,9.968-16.893,12.281 c-2.318,0.927-4.701,1.669-7.104,2.346c-3.999,1.126-8.293,3.093-12.545,3C190.009,178.256,189.034,177.918,188.196,177.36z"/><path style="fill:#d77b61" d="M190.945,121.091c3.617,4.671,8.709,8.14,14.615,9.777c2.225,0.617,4.569,1.047,6.838,0.615 c4.675-0.89,7.928-5.184,9.871-9.528c3.668-8.201,4.257-17.737,1.626-26.327c-1.693-5.53-6.918-9.623-12.645-10.433 c-5.726-0.81-11.56,1.045-16.569,3.935c-1.706,0.984-3.355,2.099-4.736,3.504c-3.941,4.009-5.289,10.085-4.46,15.645 C186.202,113.08,188.126,117.451,190.945,121.091z"/><ellipse transform="matrix(0.7398 -0.6729 0.6729 0.7398 -27.9948 155.6616)" style="fill:#d77b61" cx="187.244" cy="114.023" rx="5.446" ry="6.746"/><g><g><path style="fill:#bc6753" d="M190.976,115.165c-1.166-1.234-3.333-2.378-4.727-0.761c-0.895,1.039-0.572,2.82,0.92,3.06 c1.583,0.255,2.206-1.603,1.606-2.805c-0.991-1.989-3.697-2.845-5.744-2.926c-0.644-0.026-0.642,0.974,0,1 c1.383,0.055,3.02,0.465,4.057,1.464c0.366,0.241,0.576,0.588,0.632,1.042c0.487,1.128,0.351,0.978-0.409-0.447 c0.659-1.043,2.567,0.668,2.957,1.08C190.712,116.341,191.418,115.633,190.976,115.165L190.976,115.165z"/></g></g><g><g><path style="fill:#bc6753" d="M212.662,114.72c0.18,0.314,0.319,0.868,0.22,1.229c-0.113,0.413-0.608,0.506-0.715,0.931 c0.083-0.108,0.167-0.217,0.25-0.325c-0.036,0.021-0.071,0.042-0.107,0.063c-0.315,0.13-0.454,0.586-0.102,0.78 c-0.07-0.123-0.141-0.246-0.211-0.368c-0.018,0.141,0.093,0.303,0.211,0.368c0.025,0.014,0.306,0.162,0.183,0.085 c-0.094-0.059,0.142,0.101,0.176,0.116c0.218,0.092,0.475,0.046,0.695-0.026c0.478-0.158,0.863-0.564,1.043-1.026 c0.406-1.042-0.134-1.908-1.001-2.47C212.9,113.817,212.436,114.327,212.662,114.72L212.662,114.72z"/></g></g><g><g><path style="fill:#562e2b" d="M218.04,111.096c1.108-0.423,1.691-1.426,3.007-1.526c1.3-0.099,2.128,0.715,3.285,1.073 c0.231,0.072,0.423-0.157,0.374-0.374c-0.35-1.538-2.344-2.095-3.742-1.953c-1.218,0.124-3.32,1.064-3.227,2.547 C217.745,111.006,217.885,111.156,218.04,111.096L218.04,111.096z"/></g></g><g><g><path style="fill:#562e2b" d="M218.382,101.14c0.852-0.587,1.926-0.815,2.946-0.862c0.999-0.046,1.938,0.391,2.915,0.291 c0.223-0.023,0.413-0.255,0.273-0.475c-1.162-1.814-5.922-1.45-6.704,0.608C217.693,101.013,218.112,101.326,218.382,101.14 L218.382,101.14z"/></g></g><path style="fill:#3d302a" d="M223.167,87.885c0.15,0.231,0.297,0.464,0.44,0.7c0.912,1.504,1.68,3.15,1.81,4.905 s-0.476,3.639-1.882,4.697c-0.082-1.803-0.846-3.567-2.106-4.86c-0.198,1.162-0.668,2.276-1.36,3.23 c-0.576,0.793-1.661,1.517-2.465,0.958c0.21,0.146,0.929-1.708,0.969-1.882c0.183-0.814,0.132-1.681-0.148-2.468 c-0.576-1.617-1.655-3.037-3.166-3.891c1.624,0.969,2.128,3.227,1.524,5.019s-2.073,3.163-3.659,4.193 c0.827-1.516,0.821-3.454-0.014-4.965c0.317,1.433-0.426,2.941-1.537,3.901c-1.11,0.96-2.534,1.468-3.942,1.882 c0.977-1.639,0.98-3.813,0.005-5.453c0.971,1.224,0.197,3.077-0.924,4.165c-1.941,1.885-4.682,2.666-7.334,3.203 c-2.652,0.537-5.4,0.919-7.767,2.229c0.638-1.11,1.276-2.22,1.914-3.33c-0.489,1.581-1.925,2.636-3.11,3.792 c-1.185,1.155-2.236,2.829-1.662,4.381c-1.198-0.36-2.604-0.168-3.843,0.003c-1.068,0.147-2.166,0.533-2.843,1.372 c-0.946,1.173-0.816,2.881-0.383,4.324c0.526,1.758,1.452,3.431,2.846,4.626c1.394,1.194,3.286,1.864,5.097,1.568 c0.17-0.028,0.348-0.063,0.512-0.011c0.592,0.19,0.94,0.969,1.324,1.41c0.494,0.565,1.105,1.099,1.476,1.756 c-0.449-0.08-0.952,0.048-1.421,0.008c-0.588-0.05-1.172-0.168-1.736-0.343c-1.206-0.376-2.156-1.125-3.281-1.639 c-1.275-0.803-2.549-1.606-3.824-2.409c-1.303-0.821-2.615-1.649-3.729-2.711c-2.27-2.164-3.6-5.281-3.592-8.417 c0.03-12.003,2.855-25.22,14.996-30.648c2.318-1.037,4.79-1.689,7.278-2.199c1.74-0.357,3.502-0.647,5.278-0.661 c3.388-0.025,6.759,1.029,9.579,2.896c2.224,1.473,3.901,3.502,5.903,5.22C220.227,84.013,221.843,85.854,223.167,87.885z"/><g><g><path style="fill:#562e2b" d="M205.531,102.416c-1.238-2.134-7.149-2.217-7.965,0.347c-0.062,0.195,0.105,0.402,0.304,0.4 c1.264-0.017,2.339-0.954,3.666-1.024c1.358-0.072,2.464,0.589,3.759,0.687C205.507,102.842,205.629,102.584,205.531,102.416 L205.531,102.416z"/></g></g><g><g><path style="fill:#562e2b" d="M206.733,110.401c0.225-1.752-2.286-2.587-3.641-2.568c-1.553,0.022-3.918,0.802-4.249,2.519 c-0.046,0.239,0.154,0.504,0.418,0.418c1.216-0.394,2.114-1.29,3.433-1.486c0.71-0.105,1.421-0.073,2.081,0.235 c0.602,0.281,0.959,0.851,1.554,1.114C206.528,110.721,206.705,110.614,206.733,110.401L206.733,110.401z"/></g></g><path style="fill:#3d302a" d="M178.293,66.694c-2.428-1.284-5.336-1.847-7.962-1.04s-4.842,3.161-5.017,5.902 c-2.673,0.035-5.108,1.721-6.706,3.865c-3.978,5.336-3.102,13.456,1.399,18.36s11.938,6.57,18.364,4.834 c1.695-0.458,3.364-1.148,4.682-2.306c2.252-1.979,3.201-5.071,3.484-8.056C187.264,80.582,185.751,70.637,178.293,66.694z"/><g><g><path style="fill:#8c5e50" d="M176.254,98.977c0.669-1.311,0.559-2.852,0.883-4.281c0.426-1.879,1.095-3.705,1.989-5.412 c1.806-3.448,4.436-6.315,7.699-8.429c0.528-0.342,0.036-1.191-0.495-0.846c-3.393,2.203-6.176,5.185-8.012,8.803 c-1.308,2.579-3.38,7.312-2.079,10.165C176.242,98.983,176.251,98.983,176.254,98.977L176.254,98.977z"/></g></g><g><g><path style="fill:#8c5e50" d="M185.675,80.558c-1.318-0.362-2.581-0.49-3.789-1.231c-0.678-0.416-1.303-0.95-1.868-1.506 c-0.57-0.562-3.656-3.947,0.086-3.803c1.163,0.045,2.639,1.719,3.372,2.534c1.014,1.127,1.734,2.363,2.335,3.744 c0.187,0.43,0.85,0.192,0.848-0.23c-0.01-1.821-0.023-3.642-0.029-5.462c-0.002-0.692-0.031-1.403,0.03-2.095 c0.017-0.459,0.093-0.906,0.228-1.34c0.193-1.031,1.099-1.139,2.717-0.325c0.656,1.085-0.517,4.014-0.96,5.142 c-0.565,1.44-1.509,2.664-2.076,4.087c-0.126,0.315,0.311,0.483,0.52,0.303c1.897-1.637,2.959-4.779,3.315-7.201 c0.208-1.418,0.628-4.368-1.375-4.737c-4.715-0.867-3.287,9.677-3.28,11.629c0.283-0.077,0.565-0.153,0.848-0.23 c-0.778-1.796-6.906-10.287-8.803-5.456c-1.34,3.413,5.053,7.648,7.912,6.411C185.81,80.746,185.772,80.584,185.675,80.558 L185.675,80.558z"/></g></g><g><path style="fill:#d77b61" d="M134.292,402.702c-7.265,6.883-14.531,13.766-21.796,20.649c-0.305,0.289-0.635,0.595-0.978,0.731 c-0.377,0.15-0.679,0.061-0.946-0.038c-2.766-1.031-4.831-3.003-5.953-5.685c7.862-8.316,15.954-16.445,24.244-24.352 c2.527,1.725,4.734,3.81,6.583,6.219c0.169,0.22,0.339,0.462,0.291,0.819c-0.081,0.602-0.725,1.273-1.302,1.831"/><path style="fill:#6c7d9a" d="M109.989,437.285c0.167,4.513-0.14,9.043-0.916,13.492c-0.655,3.757-2.234,8.081-5.931,9.017 c-2.887,0.731-5.941-1.11-7.513-3.639c-1.572-2.529-1.973-5.596-2.225-8.563c-0.461-5.442-0.542-10.915-0.241-16.368 c-1.216,0.136-2.432,0.272-3.648,0.409c-0.192-2.188-0.384-4.375-0.575-6.563c-0.064-0.732-0.125-1.493,0.128-2.183 c0.335-0.917,1.16-1.551,1.956-2.117c5.698-4.045,12.806-6.824,19.45-8.99c0.313,3.901,3.114,6.857,7.027,6.9 c-4.924,7.778-7.849,16.81-8.421,25.998"/><path style="fill:#d77b61" d="M210.925,424.674c-1.316,9.921-2.632,19.842-3.948,29.763c-0.055,0.417-0.119,0.862-0.3,1.184 c-0.198,0.354-0.489,0.475-0.759,0.565c-2.799,0.939-5.644,0.706-8.204-0.673c0.878-11.411,2.053-22.82,3.52-34.182 c3.05-0.249,6.077-0.017,9.029,0.692c0.27,0.065,0.554,0.145,0.741,0.454c0.315,0.519,0.237,1.446,0.14,2.242"/><path style="fill:#d77b61" d="M197.678,455.871c2.611,0.871,5.458,1.143,8.192,0.791c0.261-0.033,0.537-0.086,0.72-0.259 c0.163-0.163,0.205-0.396,0.232-0.609c0.077-0.613,0.184-1.224,0.275-1.835c0.437-2.915,0.872-5.83,1.308-8.745 c0.214-1.428,0.447-2.855,0.65-4.284c0.058-0.406,0.449-2.044-0.374-1.877c-0.42,0.085-0.809,0.304-1.249,0.371 c-0.404,0.062-0.837,0.111-1.246,0.099c-0.025-0.001-0.061,0.003-0.087,0.003c-0.968,0.048-1.927,0.091-2.889-0.065 c-0.943-0.14-1.899-0.499-2.608-1.135c-0.025-0.026-0.045-0.042-0.069-0.068c-0.104-0.09-0.203-0.194-0.306-0.309 c0.033-0.089-0.496-0.25-0.572-0.245c-0.274,0.02-0.37,0.206-0.447,0.47c-0.171,0.586-0.049,1.197-0.139,1.791 c-0.106,0.703-0.183,1.412-0.268,2.118c-0.17,1.413-0.324,2.827-0.46,4.243c-0.274,2.834-0.48,5.675-0.616,8.52 C197.72,454.94,197.637,455.857,197.678,455.871z"/><path style="fill:#6c7d9a" d="M213.797,466.845c2.969,3.402,5.581,7.117,7.777,11.063c1.855,3.332,3.349,7.687,1.064,10.74 c-1.784,2.384-5.316,2.875-8.13,1.899c-2.813-0.976-5.055-3.107-7.117-5.255c-3.782-3.939-7.289-8.143-10.487-12.57 c-0.859,0.871-1.719,1.742-2.578,2.613c-1.525-1.58-3.051-3.159-4.576-4.739c-0.511-0.529-1.036-1.082-1.275-1.777 c-0.316-0.924-0.074-1.936,0.189-2.876c1.884-6.73,5.659-13.361,9.46-19.226c2.698,2.834,6.735,3.37,9.803,0.942 c1.067,9.143,4.477,18.004,9.814,25.505"/><path style="fill:#3d302a" d="M226.884,220.14c0.26,2.7,0.9,1.252,0.846,3.891c-0.053,2.546,1.116,4.824,2.087,7.159 c2.371,5.699,3.886,11.357,5.9,17.201c6.259,18.155,4.774,37.705,2.489,56.381c-2.397,19.593-6.178,38.978-9.473,58.431 c-4.033,23.813-7.387,47.919-6.476,72.133c-5.662,0.374-10.442,4.449-16.01,5.542c-3.849,0.755-7.817,0.038-11.674-0.678 c-4.615-0.857-9.229-1.714-13.844-2.571c-1.312-0.244-2.831-0.648-3.332-1.885c-0.294-0.726-0.139-1.547,0.017-2.315 c5.288-25.984,7.999-52.902,10.915-79.128c3.261-29.335,6.522-58.671,9.783-88.006c0.463-4.164,0.909-8.489-0.453-12.451 c-3.903-11.347-4.785-22.964-5.41-34.947"/><path style="fill:#3d302a" d="M178.404,225.159c0.252,13.111-6.012,21.287-11.72,32.19c-6.401,12.225-9.99,25.719-13.4,39.016 c-2.762,10.771-6.925,22.142-7.992,33.134c-1.075,11.07-5.438,20.65-12.456,29.281c-6.938,8.532-15.529,15.535-23.78,22.804 c-0.719,0.633-1.464,1.311-1.777,2.216c-0.257,0.745-0.189,1.56-0.083,2.341c0.88,6.452,4.295,12.525,9.352,16.628 c1.588,1.289,3.363,2.425,4.516,4.113c1.103,1.615,1.531,3.581,2.01,5.477c0.866,3.429,1.97,6.797,3.303,10.073 c1.394,3.427,3.167,6.906,6.224,8.99c0.663,0.452,1.44,0.843,2.236,0.735c0.639-0.087,1.19-0.484,1.688-0.893 c2.89-2.373,4.992-5.546,7.048-8.669c8.979-13.633,17.959-27.267,26.938-40.9c2.207-3.351,4.421-6.715,6.16-10.331 c2.143-4.457,3.464-9.296,5.412-13.852c2.257-5.281,4.334-10.637,6.357-16.012c4.116-10.939,7.989-21.978,12.631-32.71 c4.27-9.872,9.204-19.53,11.977-29.922c1.239-4.642,2.034-9.39,3.046-14.086c2.884-13.379,7.56-26.534,7.822-40.218"/><g><g><path style="fill:#594943" d="M201.751,440.973c7.512,6.532,9.538-16.48,9.362-19.588c-0.029-0.511-0.671-0.56-0.852-0.115 c-1.235,3.032-1.548,6.351-2.067,9.566c-0.517,3.202-0.524,10.421-5.976,9.334C201.787,440.084,201.36,440.633,201.751,440.973 L201.751,440.973z"/></g></g><g><g><path style="fill:#594943" d="M191.586,338.022c1.35-8.98,3.409-17.813,6.32-26.419c2.947-8.713,7.269-16.687,10.854-25.118 c3.301-7.764,4.612-15.85,5.262-24.22c0.763-9.831,1.551-20.39,0.486-30.208c-0.051-0.466-0.797-0.673-0.898-0.122 c-1.628,8.929-0.881,18.369-1.516,27.415c-0.747,10.644-2.46,20.31-7.006,29.999c-7.375,15.715-12.717,31.151-15.021,48.467 C189.953,338.672,191.456,338.884,191.586,338.022L191.586,338.022z"/></g></g><g><g><path style="fill:#594943" d="M218.833,232.057c-0.137,6.784-0.234,13.566-0.302,20.351c-0.03,2.965-0.049,5.93-0.083,8.894 c-0.036,3.158-0.547,6.082-2.574,8.57c-1.266,1.554-2.813,2.689-3.98,4.322c-0.595,0.832,0.52,1.61,1.267,1.267 c8.062-3.712,7.306-11.863,7.204-19.325c-0.11-8.028-0.198-16.054-0.43-24.079 C219.914,231.349,218.848,231.346,218.833,232.057L218.833,232.057z"/></g></g><g><g><path style="fill:#594943" d="M209,287.551c2.227-3.301,5.006-6.311,8.455-8.351c3.046-1.801,6.417-1.999,9.5-3.445 c0.372-0.174,0.274-0.794-0.115-0.878c-3.471-0.751-7.737,1.471-10.554,3.338c-3.466,2.298-6.098,5.249-7.732,9.075 C208.427,287.591,208.81,287.833,209,287.551L209,287.551z"/></g></g><g><g><path style="fill:#594943" d="M227.189,225.458c-15.162,2.616-30.472,5.131-45.871,5.927c-1.049,0.054-1.059,1.684,0,1.641 c8.291-0.336,16.546-1.704,24.795-2.563c7.175-0.747,14.448-1.882,21.384-3.889 C228.223,226.362,227.91,225.333,227.189,225.458L227.189,225.458z"/></g></g><g><g><path style="fill:#594943" d="M215.094,224.169c0.458-0.046,0.63,0.235,0.956,0.509c0.352,0.295,0.615,0.619,0.709,1.083 c0.195,0.961-0.735,1.305-1.522,0.997c-0.796-0.312-1.241-1.186-0.582-1.885c0.736-0.781,1.834-0.268,2.679-0.61 c0.336-0.136,0.478-0.389,0.426-0.75c-0.162-1.114-1.433-1.317-2.383-1.111c-0.909,0.197-1.759,0.837-2.285,1.595 c-1.188,1.71-0.189,3.783,1.658,4.423c1.744,0.604,3.839-0.463,3.737-2.473c-0.046-0.908-0.532-1.742-1.252-2.285 c-0.782-0.589-1.484-0.416-2.27,0.028C214.754,223.807,214.832,224.195,215.094,224.169L215.094,224.169z"/></g></g><g><g><path style="fill:#594943" d="M222.288,220.605c-0.073,0.472-0.302,0.863-0.356,1.349c-0.046,0.41-0.047,0.819-0.051,1.231 c-0.011,0.957-0.013,1.915-0.019,2.872c-0.007,1.101,1.718,1.103,1.711,0c-0.006-0.957-0.008-1.915-0.019-2.872 c-0.005-0.413-0.006-0.82-0.051-1.231c-0.054-0.487-0.283-0.876-0.356-1.349C223.081,220.18,222.354,220.18,222.288,220.605 L222.288,220.605z"/></g></g><g><g><path style="fill:#594943" d="M206.427,221.893c0.432,2.073,0.686,4.043,0.612,6.165c-0.046,1.326,2.034,1.329,2.063,0 c0.049-2.28-0.19-4.482-0.844-6.67C207.906,220.21,206.179,220.701,206.427,221.893L206.427,221.893z"/></g></g><g><g><path style="fill:#594943" d="M226.908,240.852c3.109,11.847,6.035,22.907,7.105,35.191c0.032,0.37,0.599,0.382,0.586,0 c-0.388-11.702-2.175-24.618-6.674-35.471C227.673,239.964,226.73,240.175,226.908,240.852L226.908,240.852z"/></g></g><g><g><path style="fill:#594943" d="M233.296,284.742c-1.467,12.906-3.25,25.772-5.23,38.609 c-1.887,12.237-4.664,24.338-6.517,36.566c-0.101,0.667,0.858,0.975,1.04,0.287c3.303-12.517,5.079-25.654,7.015-38.443 c1.86-12.284,3.197-24.642,4.254-37.019C233.89,284.379,233.336,284.389,233.296,284.742L233.296,284.742z"/></g></g><g><g><path style="fill:#594943" d="M220.014,365.906c-2.854,16.169-5.717,32.379-8.056,48.632 c-0.103,0.715,0.976,1.042,1.107,0.305c2.878-16.183,5.242-32.491,7.604-48.756 C220.731,365.663,220.091,365.471,220.014,365.906L220.014,365.906z"/></g></g><g><g><path style="fill:#594943" d="M189.438,258.752c-0.826,2.715-1.441,5.485-2.3,8.192c-0.857,2.702-1.991,5.31-2.568,8.092 c-0.081,0.391,0.419,0.609,0.643,0.271c3.037-4.59,4.569-11.009,5.146-16.43C190.416,258.335,189.586,258.266,189.438,258.752 L189.438,258.752z"/></g></g><g><g><path style="fill:#594943" d="M141.381,345.43c-0.804,4.657-0.768,9.197,2.147,13.166c0.24,0.327,0.706,0.13,0.643-0.271 c-0.678-4.269-2.05-8.49-2.306-12.829C141.849,345.235,141.43,345.141,141.381,345.43L141.381,345.43z"/></g></g><g><g><path style="fill:#f0d5b7" d="M206.82,451.014c-1.642,0.885-3.584,1.315-5.43,0.894c-1.58-0.361-2.69-1.276-3.987-2.177 c-0.236-0.164-0.553,0.16-0.395,0.395c2.192,3.285,7.042,3.279,10.034,1.266C207.273,451.236,207.07,450.88,206.82,451.014 L206.82,451.014z"/></g></g><g><g><path style="fill:#f0d5b7" d="M114.764,419.89c-3.062,0.256-6.505-2.446-6.235-5.617c0.034-0.401-0.574-0.456-0.683-0.092 c-1.066,3.573,3.815,7.018,7.001,6.323C115.186,420.43,115.118,419.861,114.764,419.89L114.764,419.89z"/></g></g><g><g><path style="fill:#f0d5b7" d="M221.818,488.402c-3.774,0.557-7.172,0.341-10.37-1.961c-2.187-1.574-3.849-3.765-5.368-5.958 c-2.553-3.686-4.854-7.554-8.608-10.157c-0.179-0.124-0.476-0.077-0.621,0.08c-1.174,1.271-1.245,0.956-2.327,0.045 c-0.579-0.488-1.097-1.069-1.639-1.597c-1.202-1.171-2.404-2.342-3.607-3.513c-0.483-0.47-1.223,0.268-0.74,0.74 c2.182,2.133,4.359,4.27,6.548,6.396c0.176,0.171,0.428,0.192,0.641,0.083c0.37-0.191,1.196-0.885,1.565-0.925 c0.652-0.071,1.635,1.109,2.127,1.597c1.085,1.077,2.03,2.283,2.929,3.517c1.624,2.229,3.057,4.596,4.795,6.743 c3.492,4.315,9.165,7.511,14.772,5.264C222.136,488.667,222.052,488.367,221.818,488.402L221.818,488.402z"/></g></g><g><g><path style="fill:#f0d5b7" d="M107.15,455.523c-4.191,4.534-9.306-0.109-10.462-4.658c-1.027-4.04-0.616-8.635-0.701-12.778 c-0.042-2.062-0.032-4.131-0.127-6.191c-0.03-0.658,0.039-1.393-0.549-1.847c-1.469-1.136-3.846,0.999-4.635-1.539 c-0.532-1.709,0.048-4.294-0.025-6.08c-0.021-0.504-0.755-0.502-0.781,0c-0.105,2.016-0.525,4.802-0.053,6.768 c0.303,1.26,1.05,1.417,2.256,1.46c0.906,0.032,2.378-0.211,2.947,0.762c0.21,0.36,0.033,1.477,0.042,1.905 c0.031,1.429,0.062,2.857,0.093,4.286c0.064,2.977,0.073,5.96,0.204,8.935c0.164,3.722,0.857,7.968,4.136,10.279 c2.499,1.762,6.22,1.656,7.943-1.079C107.549,455.57,107.292,455.369,107.15,455.523L107.15,455.523z"/></g></g><g><g><path style="fill:#594943" d="M184.118,291.012c-3.303,12.894-5.909,25.948-9.185,38.845 c-1.514,5.96-3.284,11.889-5.745,17.534c-2.388,5.477-5.975,10.044-8.767,15.248c-0.293,0.547,0.376,1.017,0.828,0.639 c8.334-6.96,12.033-20.53,14.64-30.611c3.541-13.691,5.994-27.687,8.388-41.611 C184.294,290.954,184.145,290.908,184.118,291.012L184.118,291.012z"/></g></g><g><g><path style="fill:#594943" d="M155.571,370.488c-4.928,7.237-9.254,14.62-14.853,21.412 c-5.237,6.353-11.093,12.184-16.234,18.608c-0.26,0.325,0.142,0.75,0.464,0.464c6.77-6.007,12.912-12.927,18.567-19.984 c4.922-6.143,10.011-12.767,12.72-20.22C156.383,370.36,155.79,370.166,155.571,370.488L155.571,370.488z"/></g></g></g><g><g><path style="fill:#4f362f" d="M204.267,83.766c4.725,2.699,2.477,8.848-0.253,12.015c-0.103,0.12,0.031,0.334,0.18,0.233 c3.718-2.514,5.514-10.767,0.247-12.662C204.197,83.264,204.048,83.641,204.267,83.766L204.267,83.766z"/></g></g><g><g><path style="fill:#4f362f" d="M210.766,82.421c3.637,2.686,4.898,6.468,3.274,10.783c-0.062,0.164,0.194,0.264,0.278,0.117 c2.239-3.912,0.793-9.242-3.387-11.183C210.739,82.048,210.597,82.296,210.766,82.421L210.766,82.421z"/></g></g><g><g><path style="fill:#4f362f" d="M216.529,84.163c1.011,1.42,2.431,2.369,3.748,3.48c1.963,1.655,2.493,3.799,3.136,6.164 c0.029,0.107,0.208,0.09,0.199-0.027c-0.129-1.798-0.583-3.655-1.716-5.098c-1.463-1.863-3.795-2.705-5.245-4.59 C216.597,84.022,216.476,84.088,216.529,84.163L216.529,84.163z"/></g></g><g><g><path style="fill:#281b16" d="M193.53,87.96c2.317,4.135-2.436,9.344-4.058,13.032c-1.231,2.798-1.94,6.108-0.404,8.922 c0.129,0.236,0.537,0.076,0.443-0.187c-1.937-5.397,1.245-9.583,3.595-14.193c1.144-2.245,2.863-5.688,0.836-7.892 C193.736,87.42,193.387,87.705,193.53,87.96L193.53,87.96z"/></g></g><g><g><path style="fill:#4f362f" d="M158.653,81.425c-0.252,7.419,6.044,16.677,14.073,16.21c0.145-0.008,0.146-0.22,0-0.227 c-7.652-0.352-14.037-8.506-13.932-15.984C158.794,81.334,158.656,81.334,158.653,81.425L158.653,81.425z"/></g></g><g><g><path style="fill:#4f362f" d="M162.83,76.151c-0.012,7.079,7.873,13.089,14.638,11.994c0.112-0.018,0.087-0.208-0.027-0.2 c-6.58,0.492-14.268-4.703-14.47-11.795C162.968,76.061,162.83,76.06,162.83,76.151L162.83,76.151z"/></g></g><g><g><path style="fill:#281b16" d="M175.502,99.228c-2.481,4.836-2.834,11.3,0.206,15.982c2.599,4.003,8.451,6.625,13.126,6.794 c0.178,0.006,0.266-0.271,0.095-0.349c-4.326-1.979-8.993-2.078-12.207-6.145c-3.872-4.898-2.632-10.711-0.905-16.149 C175.875,99.177,175.592,99.054,175.502,99.228L175.502,99.228z"/></g></g><g><g><path style="fill:#281b16" d="M165.171,71.965c-0.982-1.864,0.652-4.124,1.974-5.361c1.707-1.598,3.93-2.338,6.247-1.9 c3.36,0.636,6.334,3.137,8.375,5.75c0.188,0.241,0.532-0.066,0.405-0.312c-1.934-3.769-7.603-7.131-11.872-6.008 c-2.718,0.715-7.404,4.861-5.345,7.957C165.044,72.225,165.246,72.109,165.171,71.965L165.171,71.965z"/></g></g><path style="fill:#fff" d="M210.404,125.595c-4.542-0.989-2.064-6.358-2.064-6.358l0.353,0.125l5.706,2.07l0.314,0.114 C214.714,121.546,213.712,126.32,210.404,125.595z"/><path style="fill:#6c7d9a" d="M234.705,179.064c1.362-13.674,5.204-27.686-3.893-38.918c-1.831-2.261-7.754-2.937-10.635-3.342 c-2.02-0.284-3.702,0.32-5.628,0.877c-1.489,0.431-3.089,0.862-4.559,0.373c-0.761-0.253-1.5-0.749-2.291-0.62 c-0.522,0.086-0.957,0.434-1.386,0.743c-3.74,2.689-9.048,2.997-13.074,0.758c-0.547-0.304-1.234-0.651-1.75-0.297 c-0.197,0.135-0.322,0.35-0.458,0.547c-1.186,1.704-3.441,2.176-5.429,2.774c-3.692,1.111-7.11,3.111-9.902,5.768 c-2.667,2.539-5.308,4.709-6.854,8.201c-1.775,4.01,0.934,6.659,1.865,10.469c1.191,4.877,2.326,9.782,2.824,14.786 c1.198,12.029-0.724,24.194-1.056,36.2c-0.132,4.788,0.032,10.276,3.702,13.354c3.408,2.859,8.565,2.38,12.652,0.625 c4.088-1.755,7.661-4.582,11.807-6.195c4.538-1.765,9.546-1.985,14.394-1.524c4.528,0.431,9.147,1.428,13.562,0.337 c4.415-1.09,8.552-5.202,7.701-9.67c-1.03-5.408-2.679-9.651-2.81-15.374C233.336,192.294,234.048,185.664,234.705,179.064z"/><path style="fill:#d77b61" d="M284.553,110.222c0.138-2.968,0.891-5.868,1.361-8.801c0.47-2.933,0.646-6.009-0.336-8.813 c-0.232-0.662-0.89-1.431-1.482-1.054c-0.181,0.115,0.032,0.074-0.153,0.183c-0.104-0.805-0.762-1.508-1.558-1.665 c-0.796-0.157-1.672,0.245-2.073,0.95c-0.137-0.675-0.717-1.238-1.396-1.353s-1.413,0.223-1.765,0.815 c0.055-0.856-1.073-1.397-1.869-1.078c-0.796,0.32-1.253,1.156-1.527,1.969c-0.328,0.972-0.487,2.001-0.468,3.026 c-1.454,0.17-3.261,0.66-3.48,2.107c-0.062,0.411,0.03,0.83,0.137,1.232c0.697,2.603,2.099,5.013,4.017,6.906 c-0.383,1.224-0.767,2.448-1.15,3.673"/><g><g><path style="fill:#ba5e49" d="M285.912,95.409c-0.094,0.993-0.215,2.864-1.21,3.452c-1.566,0.926-1.196-3.851-1.098-4.566 c0.008-0.057-0.107-0.25-0.131-0.152c-0.197,0.809-0.394,1.618-0.591,2.428c-0.115,0.475-0.184,1.008-0.361,1.464 c-0.414,1.063-1.104,1.892-2.25-0.372c-0.663-1.309-0.223-3.367-0.013-4.741c0.01-0.066-0.16-0.201-0.182-0.121 c-0.38,1.387-0.698,2.811-1.143,4.178c-0.044,0.761-0.395,0.885-1.051,0.375c-0.539,0.082-0.824-0.068-0.853-0.451 c-0.141-0.256-0.153-0.822-0.188-1.089c-0.107-0.823-0.138-1.657-0.101-2.486c0.014-0.3,0.093-1.932-0.044-0.787 c-0.081,0.674-0.088,1.353-0.185,2.028c-0.093,0.643-0.152,1.454-0.506,2.013c-0.139,0.219-0.357,0.513-0.611,0.601 c-1.271,0.441-1.325-1.23-1.363-1.833c-0.004-0.067-0.187-0.186-0.181-0.087c0.05,0.828,0.449,2.534,1.699,2.073 c0.603-0.222,0.824-0.988,0.958-1.545c0.315-1.314,0.39-2.704,0.392-4.051c0-0.065-0.179-0.189-0.191-0.106 c-0.171,1.21-0.226,2.42-0.108,3.638c0.073,0.76,0.098,1.83,0.61,2.457c0.62,0.76,1.421,0.565,1.806-0.299 c0.425-0.954,0.59-2.115,0.864-3.122c0.029-0.107,0.41-1.021,0.137-1.112c0.015,0.005-0.172,1.484-0.18,1.615 c-0.074,1.234-0.034,3.353,1.08,4.229c1.201,0.944,1.736-0.769,1.957-1.678c0.166-0.682,0.804-2.154,0.548-2.829 c0.093,0.246-0.102,0.936-0.115,1.213c-0.018,0.402-0.022,0.808,0.021,1.208c0.059,0.55,0.345,2.432,1.231,2.272 c1.256-0.227,1.383-3.063,1.476-3.896C286.051,95.188,285.92,95.331,285.912,95.409L285.912,95.409z"/></g></g><g><path style="fill:#d77b61" d="M277.236,103.728c-0.041-1.426-0.353-2.844-0.916-4.154c1.685,0.252,3.433,0.076,5.034-0.507 c0.259-0.094,0.531-0.212,0.68-0.444c0.212-0.329,0.097-0.787-0.163-1.079c-0.26-0.292-0.631-0.456-0.992-0.606 c-1.25-0.522-2.522-0.991-3.811-1.408c-0.526-0.17-1.124-0.451-1.668-0.505c-0.646-0.065-1.413,0.117-2.056,0.197 c-0.262,0.033-0.527,0.069-0.775,0.16c-0.452,0.167-0.822,0.512-1.087,0.915s-0.431,0.861-0.562,1.325"/></g><g><g><path style="fill:#ba5e49" d="M277.29,103.704c-0.049-0.993-0.189-1.966-0.473-2.921c-0.115-0.386-0.426-0.759-0.032-1.065 c0.156-0.121,1.02,0.055,1.288,0.049c0.942-0.023,4.111-0.131,4.162-1.523c0.047-1.267-2.308-1.757-3.117-2.059 c-1.984-0.739-4.009-1.311-6.051-1.851c-0.069-0.018-0.1,0.223-0.024,0.223c1.377,0.005,2.968,0.678,4.281,1.112 c1.173,0.387,2.443,0.734,3.533,1.317c1.068,0.285,1.367,0.876,0.899,1.774c-0.268,0.179-0.561,0.304-0.88,0.375 c-0.404,0.13-0.819,0.231-1.236,0.306c-1.117,0.202-2.238,0.191-3.359,0.039c-0.048-0.007-0.047,0.042-0.033,0.076 c0.562,1.356,0.866,2.733,0.933,4.196C277.189,103.903,277.295,103.808,277.29,103.704L277.29,103.704z"/></g></g><path style="fill:#d77b61" d="M235.166,140.667c5.091,1.59,10.698,2.343,16.029,1.942c5.051-0.38,9.423,0.888,14.43,2.074 c1.214-13.238,3.814-25.382,7.718-38.089c3.599-0.182,7.731,1.29,11.281,1.906c0.619,15.329,0.002,28.466-0.799,43.786 c-0.167,3.192-0.383,6.461-1.682,9.382c-1.893,4.258-5.45,5.04-9.188,6.93c-4.893,2.475-9.315,5.69-14.385,7.878 c-8.313,3.588-17.015,6.185-25.739,8.565c-4.6,1.255-4.8-0.713-6.067-4.295c-3.928-11.099-7.908-22.512-7.572-34.28 c0.079-2.764,0.479-5.714,2.304-7.791c2.148-2.444,4.477-0.968,7.091,0.4C230.625,140.142,232.972,139.982,235.166,140.667z"/><path style="fill:#6c7d9a" d="M235.166,140.667c4.421,1.381,9.059,2.005,13.684,2.001c4.039-0.003,8.403-1.391,12.304-1.051 c2.292,0.2,4.645,1.62,5.182,3.857c0.271,1.13,0.059,2.32,0.203,3.473c0.377,3.016,3.024,5.159,5.466,6.968 c3.647,2.701,7.294,5.402,10.941,8.103c1.377,1.02,2.874,2.241,3.042,3.946c0.229,2.32-2.119,4.061-4.333,4.793 c-4.339,1.434-9.038,0.993-13.597,1.296c-6.577,0.437-11.126,4.099-16.995,6.843c-5.411,2.53-12.434,2.564-18.23,4.146 c-4.6,1.255-8.064,0.604-9.332-2.979c-3.928-11.099-6.607-22.565-6.271-34.333c0.079-2.764,2.442-6.977,4.268-9.054 c2.148-2.444,4.477-0.968,7.091,0.4C230.625,140.142,232.972,139.982,235.166,140.667z"/><path style="fill:#d77b61" d="M112.063,160.563c-1.691-3.309-5.893-7.007-7.944-10.106c-2.051-3.099-3.841-6.512-4.172-10.213 c-0.078-0.874,0.275-2.09,1.143-1.967c0.265,0.038,0.002,0.1,0.268,0.129c-0.298-0.971,0.088-2.112,0.915-2.702 c0.826-0.59,2.031-0.585,2.852,0.012c-0.193-0.84,0.177-1.78,0.891-2.263c0.714-0.483,1.725-0.476,2.432,0.016 c-0.505-0.947,0.5-2.146,1.572-2.193c1.072-0.047,2.025,0.67,2.757,1.454c0.875,0.938,1.588,2.028,2.096,3.206 c1.744-0.558,4.056-0.934,5.053,0.602c0.283,0.437,0.395,0.96,0.48,1.474c0.55,3.325-0.262,7.779-1.469,10.927 c0.977,2.046,4.306,7.428,5.375,8.625"/><g><g><path style="fill:#ba5e49" d="M100.803,143.84c0.582,0.844,2.477,4.265,3.94,3.49c0.715-0.379,0.437-1.834,0.311-2.454 c-0.294-1.447-1.092-2.74-1.867-3.972c-0.042,0.1-0.085,0.199-0.127,0.299c0.994,1.264,1.928,2.608,2.991,3.814 c0.503,0.571,1.336,1.303,2.163,0.874c1.102-0.572,0.728-2.651,0.492-3.588c-0.419-1.659-1.361-3.141-2.282-4.56 c-0.107,0.014-0.215,0.027-0.322,0.041c1.24,1.498,2.393,3.226,3.811,4.559c0.518,0.487,1.258,0.88,1.903,0.368 c0.99-0.785,0.326-2.502,0.031-3.44c-0.508-1.619-1.249-3.142-2.165-4.568c-0.077-0.119-0.566-0.384-0.431-0.084 c0.819,1.811,1.955,4.496,3.734,5.579c0.639,0.389,1.455,0.477,1.95-0.193c0.584-0.789,0.19-1.836-0.125-2.64 c-0.061-0.156-0.533-0.409-0.422-0.12c0.309,0.801,0.711,1.995-0.126,2.606c-0.506,0.37-1.424-0.098-1.834-0.505 c-0.281-0.279-0.508-0.65-0.728-0.976c-0.782-1.161-1.442-2.392-2.018-3.666c-0.144-0.028-0.287-0.056-0.431-0.084 c1.177,1.834,2.427,4.157,2.564,6.378c0.036,0.573-0.039,1.249-0.667,1.511c-0.767,0.32-1.808-1.26-2.214-1.747 c-0.852-1.024-1.702-2.048-2.553-3.072c-0.113-0.135-0.511-0.247-0.322,0.041c1.159,1.773,2.461,3.754,2.444,5.955 c-0.004,0.486-0.006,1.236-0.403,1.605c-1.061,0.985-2.334-1.061-2.983-1.897c-0.658-0.848-1.316-1.695-1.972-2.545 c-0.209-0.271-0.218,0.153-0.127,0.299c0.556,0.893,3.174,5.419,1.253,5.672c-1.373,0.181-2.769-2.504-3.207-3.433 C100.964,143.174,100.681,143.663,100.803,143.84L100.803,143.84z"/></g></g><g><path style="fill:#d77b61" d="M115.196,148.6c-0.691-1.645-1.067-3.422-1.103-5.206c-1.79,1.158-3.871,1.86-5.997,2.023 c-0.344,0.026-0.714,0.033-1.005-0.154c-0.411-0.265-0.517-0.847-0.372-1.314s0.483-0.845,0.817-1.203 c1.155-1.24,2.361-2.433,3.614-3.573c1.272-1.158,2.497-2.256,4.039-3.059c0.368-0.192,0.755-0.37,1.168-0.411 c0.641-0.063,1.277,0.217,1.772,0.629c0.495,0.411,0.87,0.946,1.233,1.477"/></g><g><g><path style="fill:#ba5e49" d="M115.336,148.494c-0.633-1.654-0.979-3.292-1.071-5.06c-0.006-0.118-0.107-0.394-0.272-0.294 c-1.363,0.822-2.81,1.462-4.374,1.782c-0.942,0.193-2.787,0.75-2.428-1.395c0.101-0.603,1.563-1.695,1.996-2.127 c2.098-2.095,4.342-4.703,7.296-5.427c0.221-0.054,0.1-0.602-0.119-0.548c-2.901,0.711-4.985,3.105-7.063,5.15 c-0.894,0.88-3.508,2.78-2.671,4.405c0.729,1.415,3.183,0.519,4.268,0.19c0.639-0.194,1.248-0.556,1.882-0.729 c1.134-0.309,0.713-0.567,1.238,0.249c0.267,0.414,0.207,1.347,0.325,1.829c0.183,0.751,0.436,1.467,0.713,2.189 C115.19,149.057,115.438,148.76,115.336,148.494L115.336,148.494z"/></g></g><path style="fill:#d77b61" d="M143.187,183.437c0.231,0.135,0.462,0.27,0.694,0.404c-7.522-10.255-15.043-20.51-22.565-30.764 c-0.928-1.265-1.636-2.789-3.245-2.254c-1.201,0.399-2.166,1.479-3.279,2.064c-1.094,0.574-5.057,1.246-5.24,2.684 c-0.048,0.38,0.113,0.751,0.272,1.1c7.122,15.694,14.504,31.27,22.14,46.72c0.914,1.849,1.903,3.78,3.613,4.935 c1.876,1.267,4.969-0.916,6.814-1.754c2.097-0.953,4.124-2.044,6.197-3.044c13.304-6.423,26.346-13.39,39.081-20.879"/><path style="fill:#6c7d9a" d="M197.585,148.949c-2.865-0.462-5.606-1.668-7.883-3.468c-1.602-1.267-3.132-2.895-5.161-3.13 c-2.468-0.287-6.303,1.869-8.492,3.033c-2.849,1.514-5.256,3.746-7.869,5.609c-5.57,3.972-10.953,8.204-16.161,12.639 c-2.162,1.841-4.401,4.645-6.969,5.868c-2.304,1.097-4.252-0.081-5.584,3.136c-0.743,1.795-0.714,3.8-0.77,5.742 c-0.209,7.34-1.802,14.639-4.67,21.399c-1.746,4.115-4.015,8.363-3.373,12.787c0.132,0.907,0.415,1.843,1.086,2.466 c1.358,1.261,3.587,0.681,5.14-0.329c4.65-3.024,7.179-9.101,12.476-10.746c2.753-0.855,5.736-0.305,8.597-0.658 c6.604-0.816,10.212-5.753,14.8-9.855c4.514-4.036,10.014-7.453,15.801-9.322"/><g><path style="fill:#4d5e7a" d="M196.025,179.311c0.365,1.048,0.56,1.611,0.581,1.688c0.13,0.456,0.211,0.706,0.243,0.749 c0.101,0.34,0.175,0.595,0.221,0.765c0.132,0.464,0.225,0.691,0.28,0.681c0.024-0.004,0.033-0.042,0.028-0.115 c0.002-0.219-0.041-0.753-0.126-1.598l-0.328-2.94c-0.139-1.234-0.206-2.064-0.2-2.487c0.04-1.193,0.359-1.843,0.957-1.95 c0.528-0.094,0.953,0.062,1.277,0.467c0.271,0.334,0.436,0.784,0.497,1.35c0.228,2.105,0.309,4.207,0.245,6.307 c-0.078,2.305-0.456,3.6-1.137,3.883c-0.287,0.125-0.517,0.178-0.691,0.16c-0.165-0.011-0.423-0.112-0.773-0.301 c-0.54-0.294-1.093-1.142-1.66-2.544c-0.26-0.644-0.538-1.448-0.831-2.412c-0.169-0.538-0.408-1.353-0.716-2.444 c0.136,1.633,0.201,2.662,0.196,3.085c-0.005,0.342,0.021,0.943,0.077,1.803c0.093,1.438,0.032,2.371-0.184,2.8 c-0.114,0.231-0.363,0.454-0.747,0.669c-0.148,0.083-0.3,0.139-0.457,0.167c-0.253,0.045-0.502,0.012-0.75-0.098 c-0.405-0.18-0.688-0.397-0.847-0.654c-0.283-0.445-0.553-0.986-0.813-1.622c-0.249-0.671-0.456-1.236-0.619-1.694 c-0.232-0.665-0.559-1.749-0.98-3.25c-0.357-1.277-0.563-2.159-0.618-2.645c-0.062-0.533,0.07-0.931,0.398-1.192 c0.17-0.135,0.339-0.219,0.504-0.248c0.59-0.105,1.104,0.36,1.54,1.396c0.196,0.461,0.42,1.217,0.673,2.269 c0.373,1.55,0.599,2.457,0.678,2.719c0.249,0.801,0.391,1.263,0.43,1.386c0.036,0.205,0.07,0.304,0.102,0.299 c0.023-0.004,0.029-0.046,0.015-0.125c0.044-1.121,0.029-2.049-0.045-2.783c-0.123-1.286-0.18-2.361-0.171-3.224 c0.016-1.417,0.383-2.181,1.103-2.293c0.364-0.057,0.667,0.003,0.91,0.179c0.186,0.13,0.388,0.374,0.606,0.733 c0.127,0.213,0.258,0.511,0.391,0.894C195.643,178.189,195.89,178.913,196.025,179.311z"/><path style="fill:#4d5e7a" d="M206.514,173.665c0.087,0.171,0.147,0.344,0.177,0.517c0.038,0.212,0.03,0.417-0.025,0.614 c-0.107,0.401-0.268,0.685-0.482,0.854c-0.142,0.115-0.351,0.197-0.627,0.246c-0.149,0.027-0.321,0.045-0.514,0.055 c0.118,0.434,0.221,0.899,0.309,1.395c0.07,0.394,0.227,1.069,0.471,2.025c0.222,0.887,0.367,1.56,0.433,2.019 c0.028,0.206,0.055,0.36,0.082,0.461c0.054,0.258,0.118,0.369,0.193,0.331c1.002-0.308,1.632-0.165,1.893,0.431 c0.041,0.098,0.071,0.195,0.088,0.289c0.084,0.473-0.108,0.88-0.575,1.223c-0.336,0.255-0.778,0.451-1.322,0.589 c-0.823,0.212-1.457,0.308-1.899,0.289c-0.597-0.024-1.04-0.115-1.329-0.275c-0.404-0.213-0.632-0.582-0.685-1.109 c-0.07-0.719,0.213-1.135,0.851-1.249c0.118-0.021,0.242-0.027,0.375-0.018c0.015-0.003,0.125-0.002,0.329,0.002 c-0.033-0.368-0.127-0.895-0.282-1.583c-0.17-0.774-0.277-1.304-0.32-1.589c-0.05-0.373-0.143-0.856-0.282-1.449 c-0.148-0.648-0.25-1.129-0.306-1.445c-0.797,0.045-1.24,0.066-1.329,0.066c-0.174-0.018-0.345-0.113-0.514-0.286 c-0.198-0.2-0.346-0.596-0.443-1.189c-0.095-0.576,0.377-1.054,1.414-1.434c0.481-0.175,0.937-0.301,1.371-0.378 c0.512-0.091,0.991-0.115,1.437-0.073C205.824,173.078,206.327,173.301,206.514,173.665z"/><path style="fill:#4d5e7a" d="M212.746,173.958c0.383,0.509,0.933,1.386,1.651,2.632c0.452,0.805,0.791,1.407,1.016,1.806 c0.471,0.818,0.845,1.393,1.125,1.726c0.063,0.078,0.117,0.113,0.164,0.105c0.063-0.011,0.077-0.156,0.045-0.434 c-0.052-0.478-0.281-1.482-0.682-3.011c-0.403-1.529-0.699-2.874-0.89-4.034c-0.184-1.129,0.152-1.77,1.011-1.923 c1.056-0.188,1.736,0.577,2.042,2.294c0.038,0.212,0.083,0.534,0.135,0.963c0.053,0.43,0.097,0.751,0.135,0.963 c0.376,2.111,0.549,3.884,0.52,5.319c-0.013,0.612-0.078,1.066-0.196,1.364c-0.163,0.411-0.491,0.713-0.984,0.906 c-0.152,0.059-0.315,0.105-0.488,0.135c-0.426,0.076-0.818,0.02-1.176-0.168c-0.843-0.444-1.871-1.703-3.086-3.778 c-0.607-1.038-1.038-1.79-1.291-2.256c-0.328-0.608-0.595-0.894-0.799-0.858c-0.039,0.007-0.073,0.025-0.099,0.054 c-0.28,0.212-0.375,0.571-0.285,1.075c0.02,0.11,0.042,0.208,0.065,0.293c0.552,2.006,0.999,3.422,1.341,4.247 c0.128,0.31,0.213,0.584,0.255,0.82c0.067,0.378,0.043,0.719-0.073,1.025c-0.14,0.358-0.386,0.568-0.741,0.631 c-0.56,0.1-0.97-0.018-1.233-0.353c-0.408-0.513-0.814-1.903-1.218-4.171c-0.292-1.638-0.474-2.616-0.546-2.932 c-0.073-0.316-0.138-0.636-0.195-0.959c-0.189-1.063-0.218-1.769-0.084-2.118c0.264-0.705,0.668-1.106,1.212-1.203 c0.275-0.049,0.626-0.042,1.051,0.02C211.14,172.241,211.907,172.848,212.746,173.958z"/></g><g><g><path style="fill:#4d5e7a" d="M189.669,142.307c7.132,4.183,16.378,3.82,21.608-2.99c0.295-0.385-0.326-0.824-0.655-0.505 c-3.205,3.102-6.159,5.204-10.861,5.26c-3.554,0.042-6.578-1.24-9.92-2.171C189.598,141.833,189.451,142.179,189.669,142.307 L189.669,142.307z"/></g></g><g><g><path style="fill:#4d5e7a" d="M174.167,193.685c1.154-0.335,2.061-1.397,2.779-2.31c0.7-0.891,1.392-2.008,1.397-3.178 c0.002-0.46-0.575-0.69-0.898-0.372c-0.753,0.74-1.236,1.746-1.902,2.565c-0.66,0.812-1.566,1.422-2.154,2.283 C173.044,193.177,173.614,193.845,174.167,193.685L174.167,193.685z"/></g></g><g><g><path style="fill:#4d5e7a" d="M233.84,186.646c2.925-9.545,7.51-21.718,2.448-31.348c-0.248-0.472-1.079-0.271-1.034,0.28 c0.503,6.223,1.84,11.523,0.528,17.819c-0.923,4.425-2.808,8.572-2.618,13.157C233.18,186.941,233.724,187.024,233.84,186.646 L233.84,186.646z"/></g></g><g><g><path style="fill:#4d5e7a" d="M201.159,224.973c4.782-2.78,9.133-8.795,15.218-7.667c0.203,0.038,0.415-0.221,0.223-0.384 c-2.035-1.729-4.424-1.305-6.644-0.053c-3.335,1.881-6.609,4.814-9.204,7.578C200.496,224.72,200.823,225.168,201.159,224.973 L201.159,224.973z"/></g></g><g><g><path style="fill:#4d5e7a" d="M146.605,168.474c-1.422,0.956-1.525,3.505-0.277,4.665c0.23,0.213,0.59,0.059,0.604-0.25 c0.032-0.681-0.038-1.361,0.015-2.047c0.052-0.674,0.291-1.305,0.32-1.987C147.281,168.532,146.878,168.29,146.605,168.474 L146.605,168.474z"/></g></g><g><g><path style="fill:#4d5e7a" d="M253.432,143.836c0.441,0.603,1.093,1.027,1.611,1.567c0.258,0.268,0.503,0.543,0.762,0.81 c0.267,0.274,0.436,0.598,0.759,0.81c0.34,0.223,0.697-0.081,0.734-0.421c0.088-0.796-0.602-1.796-1.119-2.334 c-0.587-0.611-1.407-1.222-2.285-1.237C253.517,143.024,253.187,143.502,253.432,143.836L253.432,143.836z"/></g></g><g><g><path style="fill:#562e2b" d="M217.967,110.465c0.62-1.804,3.206-3.056,4.952-2.33c0.068,0.028,0.095-0.072,0.046-0.109 c-1.635-1.249-4.662,0.674-5.118,2.406C217.827,110.51,217.942,110.54,217.967,110.465L217.967,110.465z"/></g></g><g><g><path style="fill:#562e2b" d="M206.677,110.214c-0.639-2.711-3.94-3.521-6.272-2.644c-0.094,0.036-0.059,0.178,0.042,0.154 c2.621-0.638,4.971-0.054,6.131,2.533C206.604,110.314,206.691,110.272,206.677,110.214L206.677,110.214z"/></g></g><g><g><path style="fill:#bc6753" d="M199.646,126.973c0.719,1.107,2.04,1.962,3.153,2.642c1.116,0.682,2.456,1.446,3.797,1.404 c0.146-0.005,0.263-0.209,0.131-0.316c-0.964-0.784-2.191-1.171-3.256-1.806c-1.188-0.709-2.156-1.719-3.325-2.424 C199.84,126.288,199.444,126.662,199.646,126.973L199.646,126.973z"/></g></g></g><g><g><path style="fill:#d77b61" d="M458.467,393.959c7.244,6.083,14.487,12.166,21.731,18.248c0.305,0.256,0.625,0.534,0.749,0.896 c0.135,0.398,0.001,0.801-0.142,1.164c-1.482,3.772-3.984,7.066-7.213,9.498c-8.846-6.236-17.451-12.828-25.779-19.747 c2.263-3.758,4.911-7.27,7.898-10.476c0.273-0.293,0.571-0.596,0.981-0.68c0.69-0.141,1.403,0.373,1.992,0.852"/><path style="fill:#a33d2c" d="M502.399,422.984c0.393,0.442,0.787,0.899,1.018,1.444c0.268,0.634,0.297,1.348,0.202,2.03 c-0.57,4.124-5.126,6.601-6.377,10.572c-0.404,1.282-0.436,2.645-0.552,3.984c-0.526,6.046-2.884,11.921-6.683,16.653 c-3.799,4.732-9.026,8.304-14.815,10.125c-1.034,0.325-2.156,0.595-3.187,0.261c-1.735-0.561-2.513-2.543-2.96-4.31 c-0.852-3.37-1.316-6.837-1.382-10.312c-0.051-2.738,0.144-5.478,0.022-8.213c-0.117-2.623-0.526-5.223-0.935-7.817 c-0.328-2.084-0.656-4.167-0.984-6.251c-0.257-1.632-0.538-3.326-1.482-4.681c-1.111-1.595-3.148-2.814-3.129-4.757 c0.014-1.392,1.143-2.513,2.309-3.273c2.89-1.883,6.377-2.549,9.744-3.302c3.211-0.718,4.533-2.05,3.993-5.268 c-0.331-1.97,0.68-4.197,2.97-3.637c2.135,0.521,4.51,2.444,6.36,3.564c2.802,1.696,5.484,3.59,8.019,5.664 C497.359,417.756,499.987,420.274,502.399,422.984z"/><g><g><path style="fill:#d3b497" d="M497.863,420.402c1.418,5.101-2.729,9.461-5.788,12.848c-0.869,0.962-1.172,1.666-1.229,2.941 c-0.112,2.476-0.103,4.742-0.873,7.154c-1.407,4.406-4.23,8.167-7.396,11.469c-3.275,3.415-7.461,7.598-12.595,5.632 c-0.483-0.185-0.833,0.63-0.355,0.842c3.95,1.757,7.757-0.221,10.753-2.878c3.823-3.391,7.464-7.462,9.579-12.16 c0.953-2.117,1.636-4.366,1.853-6.685c0.15-1.6-0.156-3.015,0.453-4.519c0.626-1.544,1.946-2.448,2.981-3.747 c2.188-2.747,4.833-7.595,3.075-11.091C498.191,419.954,497.788,420.133,497.863,420.402L497.863,420.402z"/></g></g><g><g><path style="fill:#d3b497" d="M485.329,451.258c-5.182-4.007-13.026-2.091-17.639,1.834c-0.439,0.374,0.201,1.018,0.635,0.635 c4.308-3.798,11.704-5.717,16.725-2.107C485.26,451.771,485.537,451.418,485.329,451.258L485.329,451.258z"/></g></g><g><g><path style="fill:#d3b497" d="M470.202,426.056c-0.431,1.743-0.816,3.49-1.42,5.185c-0.6,1.682-1.576,3.222-2.088,4.924 c-0.083,0.277,0.284,0.487,0.483,0.281c2.39-2.466,3.496-6.975,3.616-10.31C470.805,425.797,470.283,425.726,470.202,426.056 L470.202,426.056z"/></g></g><g><g><path style="fill:#d3b497" d="M475.738,432.451c-1.196-0.792-2.464-1.01-3.874-1.137c-1.777-0.16-4.902-0.293-6.398-1.468 c-0.023,0.178-0.046,0.356-0.069,0.534c-0.117-0.035-0.234-0.071-0.351-0.106c0.119,0.248,0.456,0.144,0.535-0.07 c0.005-0.014,0.011-0.029,0.016-0.043c0.059-0.159-0.067-0.341-0.218-0.384c-0.021-0.006-0.042-0.012-0.064-0.018 c-0.292-0.083-0.525,0.244-0.384,0.5c0.572,1.039,3.077,1.284,4.126,1.476c2.126,0.39,4.475,0.117,6.427,1.148 C475.772,433.034,476.006,432.629,475.738,432.451L475.738,432.451z"/></g></g><g><g><path style="fill:#d3b497" d="M473.776,432.15c-1.101,1.703-2.096,3.435-2.976,5.264c-0.652,1.356-1.534,2.852-1.802,4.35 c-0.027,0.15,0.094,0.311,0.259,0.259c1.186-0.366,1.565-2.495,2.032-3.502c0.95-2.048,1.947-4.08,2.946-6.104 C474.386,432.112,473.963,431.861,473.776,432.15L473.776,432.15z"/></g></g><g><g><path style="fill:#d3b497" d="M476.545,437.1c-3.38-0.023-6.656-0.483-9.975-1.073c0.047,0.18,0.095,0.36,0.142,0.539 c-0.113-0.006-0.226-0.011-0.34-0.017c0.131,0.132,0.417,0.088,0.45-0.119c0.002-0.013,0.004-0.027,0.006-0.04 c0.032-0.201-0.078-0.347-0.281-0.369c-0.022-0.002-0.043-0.005-0.064-0.007c-0.198-0.021-0.381,0.225-0.311,0.409 c0.373,0.978,2.554,0.904,3.416,1.028c2.322,0.333,4.62,0.365,6.956,0.203C476.898,437.63,476.906,437.102,476.545,437.1 L476.545,437.1z"/></g></g><g><g><path style="fill:#d3b497" d="M475.771,437.91c-1.523,1.645-2.565,3.474-3.437,5.536c-0.46,1.088-0.787,2.325-1.465,3.304 c-0.604,0.872-1.162,1.105-1.449,2.115c-0.049,0.171,0.19,0.331,0.313,0.182c0.431-0.519,1.148-0.765,1.607-1.29 c0.561-0.642,0.89-1.415,1.214-2.191c1.06-2.54,2.037-5.06,3.694-7.288C476.457,438.001,476.004,437.659,475.771,437.91 L475.771,437.91z"/></g></g><g><g><path style="fill:#d3b497" d="M479.223,446.669c-3.369-2.627-8.566-4.246-12.765-4.75c-0.282-0.034-0.397,0.421-0.146,0.539 c4.091,1.919,8.706,2.125,12.613,4.598C479.156,447.201,479.447,446.843,479.223,446.669L479.223,446.669z"/></g></g><g><g><path style="fill:#d3b497" d="M473.181,426.329c2.214,7.442,3.792,14.86,4.222,22.634c0.03,0.55,0.891,0.553,0.859,0 c-0.439-7.727-1.904-15.519-4.832-22.702C473.368,426.112,473.132,426.166,473.181,426.329L473.181,426.329z"/></g></g><path style="fill:#d77b61" d="M530.908,300.332c8.39-4.367,16.78-8.735,25.171-13.102c0.353-0.184,0.732-0.373,1.114-0.349 c0.419,0.027,0.74,0.305,1.022,0.576c2.919,2.812,5.006,6.383,6.018,10.297c-9.145,5.79-18.525,11.22-28.103,16.27 c-2.607-3.528-4.839-7.317-6.66-11.303c-0.166-0.364-0.332-0.755-0.253-1.167c0.134-0.692,0.882-1.154,1.549-1.515"/><path style="fill:#a33d2c" d="M580.552,275.034c0.583-0.101,1.179-0.195,1.764-0.103c0.68,0.106,1.302,0.459,1.831,0.899 c3.203,2.66,2.904,7.837,5.617,10.994c0.876,1.019,2.017,1.766,3.093,2.571c4.859,3.636,8.606,8.738,10.622,14.462 c2.016,5.724,2.294,12.048,0.786,17.927c-0.269,1.05-0.632,2.145-1.459,2.845c-1.392,1.178-3.486,0.794-5.223,0.241 c-3.312-1.054-6.503-2.488-9.49-4.266c-2.353-1.401-4.578-3.012-6.966-4.351c-2.29-1.284-4.715-2.308-7.134-3.329 c-1.943-0.82-3.886-1.641-5.83-2.461c-1.522-0.642-3.109-1.297-4.759-1.21c-1.941,0.103-4.051,1.19-5.692,0.148 c-1.175-0.746-1.532-2.297-1.563-3.689c-0.075-3.449,1.198-6.763,2.335-10.02c1.084-3.107,0.65-4.933-2.369-6.171 c-1.848-0.758-3.207-2.791-1.523-4.442c1.569-1.538,4.455-2.542,6.383-3.523c2.919-1.486,5.943-2.765,9.042-3.825 C573.452,276.558,576.978,275.653,580.552,275.034z"/><g><g><path style="fill:#d3b497" d="M575.97,277.527c5.087,1.487,6.59,7.32,7.862,11.711c0.359,1.24,0.804,1.871,1.857,2.585 c1.791,1.214,3.532,2.246,5.027,3.855c3.104,3.342,4.938,7.612,6.147,11.958c1.305,4.692,3.091,11.191-1.505,14.641 c-0.462,0.347-0.039,1.131,0.465,0.796c3.675-2.44,3.873-6.919,3.161-10.889c-0.941-5.254-2.572-10.667-5.732-15.039 c-1.184-1.639-2.579-3.127-4.189-4.354c-1.275-0.972-2.671-1.486-3.617-2.795c-0.927-1.284-0.977-2.65-1.47-4.132 c-1.143-3.432-3.922-8.466-7.939-8.828C575.749,277.01,575.708,277.45,575.97,277.527L575.97,277.527z"/></g></g><g><g><path style="fill:#d3b497" d="M595.559,304.453c-6.145,2.291-8.635,9.981-7.734,15.968c0.085,0.566,0.962,0.331,0.866-0.239 c-0.946-5.617,1.308-12.938,6.99-15.285C595.949,304.787,595.842,304.347,595.559,304.453L595.559,304.453z"/></g></g><g><g><path style="fill:#d3b497" d="M566.186,304.016c1.26,1.279,2.544,2.537,3.663,3.945c1.092,1.374,1.848,3.13,3.074,4.367 c0.216,0.218,0.533-0.011,0.483-0.281c-0.307-1.675-1.639-3.277-2.686-4.578c-1.207-1.5-2.566-2.852-4.169-3.925 C566.261,303.35,565.951,303.777,566.186,304.016L566.186,304.016z"/></g></g><g><g><path style="fill:#d3b497" d="M574.522,302.683c-1.322,0.576-2.168,1.592-3.022,2.718c-0.586,0.772-1.164,1.535-1.834,2.237 c-0.711,0.746-1.818,2.045-2.779,2.396c0.143,0.109,0.287,0.219,0.431,0.328c0.001-0.022,0.001-0.043,0.002-0.065 c-0.104,0.104-0.208,0.208-0.312,0.312c0.014,0.002,0.028,0.003,0.042,0.005c0.285,0.031,0.342-0.327,0.207-0.5 c-0.01-0.012-0.019-0.025-0.029-0.037c-0.107-0.137-0.329-0.102-0.441,0c-0.017,0.015-0.033,0.03-0.05,0.045 c-0.23,0.21-0.038,0.566,0.24,0.581c1.22,0.064,3.068-2.302,3.761-3.106c1.306-1.516,2.24-3.478,4.036-4.481 C575.062,302.954,574.809,302.558,574.522,302.683L574.522,302.683z"/></g></g><g><g><path style="fill:#d3b497" d="M573.246,304.196c0.857,1.815,1.792,3.558,2.867,5.253c0.82,1.293,1.631,2.843,2.78,3.874 c0.115,0.103,0.31,0.067,0.353-0.093c0.322-1.228-1.349-2.721-1.979-3.686c-1.213-1.854-2.392-3.735-3.562-5.616 C573.522,303.633,573.101,303.89,573.246,304.196L573.246,304.196z"/></g></g><g><g><path style="fill:#d3b497" d="M578.902,304.451c-1.795,2.866-3.93,5.399-6.179,7.91c0.18,0.047,0.36,0.095,0.539,0.142 c-0.06,0.097-0.12,0.193-0.18,0.29c0.19-0.044,0.27-0.319,0.119-0.451c-0.01-0.009-0.021-0.018-0.031-0.027 c-0.107-0.093-0.31-0.131-0.412,0c-0.012,0.015-0.024,0.03-0.035,0.046c-0.134,0.173-0.123,0.488,0.142,0.539 c1.108,0.215,2.553-2.196,3.158-2.956c1.298-1.631,2.389-3.369,3.357-5.214C579.547,304.415,579.092,304.147,578.902,304.451 L578.902,304.451z"/></g></g><g><g><path style="fill:#d3b497" d="M579.189,305.541c0.649,2.339,1.777,4.297,3.196,6.259c0.691,0.956,1.439,1.836,1.833,2.959 c0.3,0.853,0.327,1.286,0.931,1.95c0.124,0.137,0.372-0.006,0.313-0.182c-0.181-0.543-0.048-1.202-0.184-1.772 c-0.228-0.961-0.785-1.765-1.36-2.553c-1.581-2.162-3.144-4.312-4.142-6.822C579.635,305.024,579.081,305.153,579.189,305.541 L579.189,305.541z"/></g></g><g><g><path style="fill:#d3b497" d="M588.439,307.219c-1.994,0.72-3.689,1.866-5.301,3.227c-1.845,1.558-4.006,3.19-5.463,5.116 c-0.18,0.238,0.164,0.537,0.396,0.395c3.845-2.349,6.383-6.298,10.558-8.289C588.878,307.55,588.702,307.124,588.439,307.219 L588.439,307.219z"/></g></g><g><g><path style="fill:#d3b497" d="M567.983,301.622c7.49,2.034,14.638,4.624,21.463,8.358c0.485,0.266,0.92-0.477,0.434-0.742 c-6.792-3.703-14.187-6.558-21.828-7.865C567.891,301.346,567.82,301.577,567.983,301.622L567.983,301.622z"/></g></g><path style="fill:#3d302a" d="M414.378,248.008c-10.278,25.636-19.919,51.528-28.91,77.643 c-2.519,7.315-5.02,15.015-3.764,22.649c0.69,4.191,2.488,8.12,4.551,11.833c6.739,12.125,16.368,22.355,26.032,32.306 c10.282,10.588,20.724,21.02,31.165,31.451c10.889-7.972,26.237-12.724,30.166-26.909 c-16.627-16.155-30.346-35.294-40.304-56.229c-0.594-1.249-1.186-2.548-1.227-3.93c-0.049-1.63,0.669-3.174,1.372-4.646 c7.121-14.919,14.242-29.838,21.363-44.757c5.49-11.502,11.055-23.251,12.662-35.894"/><path style="fill:#d77b61" d="M551.91,158.17c2.075-3.102,4.766-5.732,7.175-8.581c2.409-2.85,4.594-6.043,5.358-9.695 c0.18-0.862-0.029-2.116-0.909-2.096c-0.269,0.006-0.013,0.1-0.283,0.097c0.411-0.933,0.16-2.116-0.595-2.801 c-0.755-0.685-1.956-0.822-2.846-0.323c0.291-0.815,0.032-1.796-0.623-2.361s-1.664-0.677-2.427-0.269 c0.615-0.885-0.246-2.199-1.31-2.372c-1.063-0.173-2.098,0.43-2.92,1.126c-0.983,0.833-1.821,1.836-2.467,2.951 c-1.674-0.761-3.935-1.407-5.109,0.007c-0.334,0.402-0.507,0.911-0.652,1.414c-0.939,3.251-0.996,6.753-0.162,10.033 c-1.207,1.068-2.414,2.135-3.621,3.203"/><path style="fill:#3d302a" d="M541.151,283.761c-0.231-0.127-0.495-0.194-0.804-0.177c-0.589,0.032-1.415,0.505-2.019,0.672 c-0.784,0.217-1.566,0.438-2.348,0.661c-2.573,0.733-5.131,1.556-7.723,2.221c-4.416,1.132-8.84,2.258-13.178,3.669 c-7.162,2.329-13.859,5.772-20.354,9.525c-1.327,0.767-2.646,1.547-3.958,2.333c0.529-15.85-0.593-31.755-3.34-47.374 c-0.305-1.737-0.559-3.687-1.341-5.288c-0.879-1.799-1.58-1.519-3.552-1.415c-3.378,0.178-40.8,1.381-40.852,0.243 c1.232,36.131,4.781,72.183,10.618,107.86c0.596,3.642,1.505,7.727,4.659,9.643c1.343,0.816,2.936,1.116,4.502,1.257 c4.434,0.4,8.902-0.356,13.197-1.529c28.776-7.855,49.421-33.261,76.76-45.191c1.127-0.492,2.359-1.048,2.886-2.159 c0.511-1.078,0.197-2.349-0.138-3.495c-1.617-5.535-3.525-10.985-5.713-16.321c-1.106-2.698-2.284-5.366-3.531-8.001 c-0.638-1.347-1.294-2.685-1.968-4.015C542.503,285.99,542.15,284.312,541.151,283.761z"/><g><g><path style="fill:#ba5e49" d="M563.065,143.024c-0.734,0.906-2.1,3.03-3.454,3.036c-1.689,0.008-0.345-2.738,0.023-3.377 c0.469-0.814,1.049-1.547,1.637-2.277c0.048-0.059-0.065-0.272-0.131-0.205c-0.96,0.97-1.917,1.942-2.879,2.91 c-0.354,0.356-0.708,0.788-1.15,1.041c-1.143,0.654-1.833-0.592-1.728-1.597c0.236-2.268,1.764-4.127,3.173-5.817 c0.053-0.063-0.128-0.222-0.189-0.164c-0.716,0.683-1.432,1.366-2.149,2.048c-0.682,0.651-1.476,1.723-2.316,2.147 c-0.838,0.422-1.634-0.545-1.544-1.383c0.051-0.478,0.326-1.012,0.514-1.461c0.352-0.839,0.769-1.651,1.244-2.428 c0.135-0.221,1.319-1.892,1.247-1.941c-0.09-0.061-1.249,1.681-1.403,1.885c-0.506,0.668-1.041,1.359-1.646,1.94 c-0.229,0.243-0.489,0.45-0.779,0.622c-0.438,0.343-0.803,0.177-1.098-0.496c-0.664-0.207-0.886-0.563-0.666-1.066 c0.131-0.388,0.298-0.76,0.501-1.114c0.042-0.079-0.154-0.228-0.188-0.165c-0.521,0.981-1.128,2.984,0.543,3.264 c1.011,0.169,1.877-0.854,2.459-1.518c0.987-1.127,1.851-2.343,2.623-3.625c0.043-0.071-0.152-0.208-0.205-0.143 c-1.293,1.574-2.352,3.32-3.07,5.23c-0.318,0.847-0.671,2.115,0.321,2.681c1.059,0.604,2.117-0.803,2.769-1.424 c0.788-0.75,1.852-1.508,2.498-2.378c0.464-0.625-0.2-0.016-0.413,0.254c-0.333,0.422-0.658,0.852-0.957,1.299 c-0.654,0.98-2.968,5.682-0.306,5.819c0.722,0.037,1.264-0.516,1.739-0.979c0.814-0.793,1.597-1.62,2.394-2.43 c0.109-0.111,0.427-0.339,0.476-0.483c0.186-0.542-0.306,0.094-0.307,0.096c-0.334,0.267-0.585,0.779-0.819,1.139 c-0.465,0.715-0.872,1.484-1.07,2.319c-0.149,0.629-0.421,1.948,0.514,2.075c1.529,0.208,3.122-2.145,3.834-3.16 C563.139,143.148,563.148,142.921,563.065,143.024L563.065,143.024z"/></g></g><g><g><path style="fill:#d77b61" d="M548.255,146.438c0.882-1.56,1.466-3.287,1.711-5.062c1.649,1.365,3.642,2.309,5.742,2.721 c0.34,0.067,0.709,0.116,1.02-0.036c0.441-0.216,0.615-0.784,0.525-1.266s-0.383-0.899-0.673-1.295 c-1.006-1.372-2.069-2.703-3.184-3.988c-1.132-1.304-2.225-2.543-3.669-3.525c-0.345-0.235-0.709-0.458-1.117-0.547 c-0.631-0.138-1.299,0.067-1.841,0.419c-0.542,0.352-0.979,0.841-1.403,1.328"/></g><g><g><path style="fill:#ba5e49" d="M548.374,146.633c0.287-0.548,0.568-1.083,0.802-1.656c0.172-0.422,0.423-2.303,0.779-2.568 c0.893-0.665,2.437,0.838,3.421,1.232c1.123,0.449,3.564,1.588,4.024-0.229c0.393-1.551-1.849-3.575-2.673-4.587 c-1.799-2.209-3.464-4.623-6.195-5.643c-0.192-0.072-0.155,0.42,0.026,0.488c2.786,1.041,4.801,3.955,6.6,6.243 c0.899,1.143,1.454,1.371,0.93,2.837c-0.522,1.462-0.728,1.097-1.945,0.695c-1.533-0.506-2.884-1.314-4.151-2.297 c-0.097-0.075-0.165,0.054-0.178,0.131c-0.31,1.815-0.823,3.333-1.678,4.963C548.053,146.403,548.261,146.848,548.374,146.633 L548.374,146.633z"/></g></g></g><path style="fill:#d77b61" d="M358.4,108.927c-0.154-3.307-0.993-6.539-1.516-9.809c-0.524-3.269-0.72-6.697,0.374-9.822 c0.258-0.738,0.992-1.594,1.652-1.175c0.202,0.128-0.036,0.082,0.17,0.203c0.116-0.897,0.849-1.681,1.736-1.856 c0.888-0.175,1.863,0.273,2.31,1.059c0.152-0.752,0.799-1.379,1.556-1.508c0.757-0.129,1.574,0.249,1.967,0.908 c-0.061-0.954,1.195-1.557,2.083-1.201c0.887,0.356,1.397,1.288,1.702,2.194c0.365,1.083,0.542,2.23,0.521,3.372 c1.62,0.189,3.634,0.735,3.878,2.348c0.069,0.459-0.033,0.925-0.153,1.373c-0.777,2.901-2.34,5.587-4.477,7.696 c0.427,1.364,0.855,2.729,1.282,4.093"/><g><g><path style="fill:#ba5e49" d="M356.749,92.445c0.173,1.248,0.244,3.031,1.277,3.95c0.741,0.659,1.163-0.09,1.434-0.797 c0.403-1.048,0.637-3.01,0.197-4.066c0.15,0.361,0.317,1.692,0.478,2.367c0.155,0.648,0.24,1.419,0.561,2.016 c0.277,0.516,0.819,1.026,1.458,0.818c1.152-0.377,1.453-2.516,1.513-3.508c0.045-0.738-0.007-1.479-0.089-2.212 c-0.013-0.114-0.124-1.049-0.198-1.004c-0.135,0.082,0.317,1.404,0.375,1.62c0.277,1.02,0.385,2.999,1.303,3.705 c2.573,1.981,2.201-6.196,2.083-7.024c-0.009-0.062-0.213-0.178-0.213-0.094c0.001,1.296,0.093,2.584,0.314,3.862 c0.123,0.713,0.251,1.594,0.796,2.135c0.327,0.325,0.763,0.516,1.226,0.366c0.916-0.296,1.021-1.403,1.065-2.205 c0.004-0.082-0.198-0.213-0.202-0.135c-0.017,0.304-0.025,0.619-0.097,0.917c-0.046,0.299-0.163,0.574-0.351,0.825 c-0.644-0.184-1.288-0.368-1.932-0.553c-0.34-0.426-0.327-1.42-0.401-1.947c-0.014-0.1-0.366-2.646-0.202-2.698 c-0.237,0.076-0.022,2.185-0.03,2.452c-0.025,0.777-0.104,1.551-0.244,2.315c-0.142,0.776-0.939,3.107-2.164,0.865 c-0.339-0.62-0.43-1.553-0.617-2.236c-0.233-0.851-0.467-1.701-0.701-2.552c-0.017-0.062-0.219-0.209-0.202-0.096 c0.298,1.94,0.624,4.124-0.293,5.95c-0.39,0.776-1.166,1.98-2.167,0.181c-0.228-0.409-0.277-1.047-0.385-1.495 c-0.246-1.013-0.492-2.026-0.738-3.039c-0.019-0.077-0.169-0.237-0.146-0.071c0.092,0.676,0.185,1.355,0.202,2.038 c0.013,0.524,0.047,2.325-0.478,2.678c-0.35,0.236-1.376,0.036-1.612-0.262c-0.188-0.237-0.266-0.677-0.342-0.972 c-0.189-0.733-0.287-1.482-0.343-2.235C356.875,92.174,356.737,92.365,356.749,92.445L356.749,92.445z"/></g></g><g><g><path style="fill:#d77b61" d="M366.555,101.689c0.045-1.589,0.394-3.169,1.021-4.63c-1.878,0.281-3.826,0.085-5.61-0.565 c-0.289-0.105-0.592-0.237-0.758-0.495c-0.236-0.366-0.108-0.877,0.182-1.203c0.289-0.326,0.703-0.508,1.105-0.675 c1.393-0.581,2.811-1.105,4.247-1.569c0.586-0.189,1.253-0.502,1.859-0.563c0.72-0.072,1.575,0.13,2.291,0.219 c0.292,0.036,0.587,0.076,0.863,0.179c0.503,0.186,0.917,0.571,1.211,1.019c0.295,0.449,0.48,0.96,0.627,1.476"/></g><g><g><path style="fill:#ba5e49" d="M366.614,101.695c0.089-1.583,0.438-3.088,1.048-4.55c0.028-0.066-0.076-0.201-0.147-0.191 c-1.368,0.187-2.753,0.19-4.108-0.111c-0.855-0.19-0.998-0.228-1.558-0.999c-0.545-0.751-0.66-0.795,0.021-1.296 c0.548-0.404,1.345-0.622,1.976-0.867c1.129-0.438,2.273-0.839,3.427-1.203c1.194-0.376,2.656-1.04,3.927-1.009 c0.094,0.002,0.105-0.266,0.01-0.246c-1.405,0.299-11.484,2.558-10.101,4.779c0.628,1.008,2.875,1.138,3.903,1.23 c0.592,0.053,1.175,0.002,1.764,0.021c0.779,0.025,0.472,0.285,0.272,0.944c-0.349,1.148-0.509,2.323-0.554,3.519 C366.489,101.856,366.607,101.812,366.614,101.695L366.614,101.695z"/></g></g></g><path style="fill:#a33d2c" d="M466.106,136.75c5.134,0.93,11.919,2.567,16.893,4.121c4.053,1.266,7.727,4.361,11.218,6.85 c7.713,5.5,15.067,11.496,22.094,17.846c2.198,1.986,4.049,2.421,5.301-0.268c1.219-2.617,3.234-4.952,5.057-7.193 c1.94-2.386,4.003-4.673,6.213-6.813c0.913-0.884,5.304-5.784,6.531-5.543c1.863,0.367,3.971,1.356,5.571,2.378 c2.301,1.471,13.161,6.849,11.78,9.604c-2.37,4.73-4.783,9.438-7.225,14.131c-3.146,6.045-5.262,11.19-10.239,16.013 c-4.849,4.699-10.223,8.858-15.991,12.369c-0.53,0.323-1.079,0.646-1.691,0.748c-0.716,0.12-1.443-0.074-2.14-0.276 c-15.789-4.56-29.904-12.802-43.998-21.09"/><path style="fill:#a33d2c" d="M413.441,142.857c-9.075,2.835-19.108,2.842-28.275,0.725c-1.058-0.244-2.181-0.525-2.927-1.314 c-0.542-0.574-0.812-1.346-1.06-2.095c-1.995-6.014-3.537-12.179-4.613-18.427c-0.695-4.041,0.568-12.173-2.116-15.431 c-1.97-2.392-12.769-0.13-16.203,0.809c-3.21,0.877-3.303,1.232-3.632,4.554c-0.194,1.956-0.185,3.942-0.268,5.906 c-0.143,3.384-0.157,6.773-0.064,10.158c0.187,6.772,0.807,13.527,1.678,20.243c0.43,3.317,0.921,6.625,1.451,9.927 c0.468,2.916,0.648,6.42,2.535,8.85c0.936,1.206,2.313,1.972,3.652,2.706c7.94,4.354,15.412,9.694,23.758,13.297 c9.265,3.999,18.963,6.893,28.686,9.546c5.126,1.399,5.349-0.794,6.762-4.787c4.377-12.369,8.813-25.089,8.439-38.205 c-0.088-3.08-0.533-6.368-2.568-8.683c-2.394-2.724-4.99-1.079-7.903,0.446C418.502,142.272,415.887,142.093,413.441,142.857z"/><path style="fill:#653a3c" d="M469.64,100.828c1.074-1.419,2.316-3.269,3.331-4.731c0.837-1.206,1.678-2.487,1.861-3.944 c0.161-1.277-0.202-2.558-0.616-3.776c-2.866-8.42-8.617-17.074-17.218-20.375c-2.688-1.032-5.742-1.536-8.424-0.491 c-1.346,0.524-2.615,1.4-3.298,2.67c-0.355-1.273-1.288-2.229-2.468-2.786c-2.044-0.966-3.375-0.779-5.349-0.037 c-4.403,1.655-8.764,3.166-11.74,6.96c-1.914,2.44-3.653,5.017-5.2,7.704c-1.109,1.927-2.14,3.979-2.319,6.195 c-0.203,2.502,0.697,4.953,1.669,7.268c1.14,2.717,2.399,5.384,3.772,7.992c12.735-2.402,26.368-3.776,39.276-2.633 c0.774,0.069,0.282,1.269,1.058,1.234C465.548,102.008,468.065,100.781,469.64,100.828z"/><path style="fill:#a33d2c" d="M403.965,232.458c-0.439,2.507-1.042,4.987-1.739,7.436c-1.233,4.332-2.536,9.648,0.675,12.806 c2.587,2.545,6.85,2.199,10.265,0.969c16.826-6.058,34.945-1.115,52.041,0.48c9.86,0.92,32.05,2.14,28.06-13.58 c-0.35-1.4-1.42-7.5-2.75-15.35c-1.96-11.58-4.52-23.3-1.81-35c0.66-2.86,1.57-5.67,1.98-8.57c0.57-4.02,0.17-8.09-0.22-12.12 c-0.8-8.06-1.6-16.16-3.69-23.98c-0.33-1.21-0.71-2.45-1.58-3.34c-0.91-0.91-2.19-1.29-3.43-1.63 c-4.87-1.34-10.65-3.23-16.14-4.23c-2.23-0.42-4.42-0.68-6.47-0.7c-0.14,0-0.28,0.01-0.41,0.02c-0.06,0-0.11,0.01-0.16,0.02 c-1.09,0.17-2.23,0.99-3.3,1.35c-2.26,0.77-4.64,1.17-7,1.52c-2.18,0.32-4.38,0.26-6.59,0.11c-1.47-0.09-2.94-0.21-4.41-0.27 c-1.18-0.05-2.36-0.05-3.54-0.02c-0.04,0-0.07,0-0.11,0.01c-3.48,0.12-6.608,0.208-9.988,1.068 c-3.87,0.97-8.688,2.025-11.708,4.875c-1.18,1.12-1.863,2.567-2.693,3.957c-6.88,11.523-8.154,22.991-8.579,35.952 c-0.479,14.647,5.124,28.847,3.909,43.528C404.446,229.341,404.237,230.905,403.965,232.458z"/><g><g><path style="fill:#4c3b31" d="M462.106,366.878c4.93,0.389,9.122-3.588,9.526-8.329c0.045-0.527-0.393-0.943-0.842-1.106 c-0.097-0.035-0.202-0.05-0.305-0.041c-0.499,0.046-0.976,0.323-1.106,0.842c-0.454,1.816-0.897,3.584-2.417,4.821 c-1.53,1.245-3.341,1.301-5.112,1.925C460.814,365.355,461.013,366.791,462.106,366.878L462.106,366.878z"/></g></g><g><g><path style="fill:#4c3b31" d="M391.167,352.335c-1.311,0.471-2.752,0.574-4.105,0.204c-1.343-0.367-2.225-1.24-3.324-2.022 c-0.653-0.465-1.305,0.411-1.01,1.01c1.538,3.123,6.215,3.497,8.972,2.071C392.386,353.244,391.911,352.068,391.167,352.335 L391.167,352.335z"/></g></g><path style="fill:#d77b61" d="M458.537,135.479c-1.697-6.258-2.361-13.158-1.139-19.648c0.157-0.831,0.352-1.67,0.299-2.512 c-0.053-0.843-0.406-1.713-1.091-2.098c-0.753-0.424-1.545,0.127-2.294,0.319c-1.006,0.257-2.008,0.443-3.004,0.76 c-1.311,0.418-2.599,0.919-3.86,1.497c-1.661,0.762-3.359,1.499-4.863,2.598c-0.831,0.608-1.622,1.337-2.258,2.188 c-0.612,0.818-0.773,1.907-0.517,2.911c1.559,6.103,0.892,12.724-0.145,19.042c1.133,1.16,2.614,1.591,4.161,1.835 c2.383,0.376,4.833,0.444,7.204-0.09c2.371-0.535,4.665-1.699,6.407-3.552C458.249,137.865,458.854,136.65,458.537,135.479z"/><ellipse transform="matrix(0.9234 -0.3839 0.3839 0.9234 -9.1351 172.8983)" style="fill:#d77b61" cx="428.575" cy="109.334" rx="6.318" ry="7.827"/><path style="fill:#d77b61" d="M460.779,115.491c-2.751,5.044-7.103,9.163-12.521,11.649c-2.041,0.937-4.225,1.712-6.47,1.649 c-4.626-0.132-8.414-3.752-10.952-7.622c-4.79-7.308-6.831-16.373-5.634-25.028c0.771-5.572,5.155-10.31,10.528-11.974 c5.373-1.664,11.261-0.784,16.518,1.216c1.791,0.681,3.546,1.497,5.089,2.632c4.404,3.24,6.638,8.865,6.702,14.332 C464.095,107.065,462.924,111.559,460.779,115.491z"/><ellipse transform="matrix(0.5599 -0.8285 0.8285 0.5599 116.0059 434.0071)" style="fill:#d77b61" cx="466.562" cy="107.8" rx="7.827" ry="6.318"/><g><g><path style="fill:#bc6753" d="M463.331,110.38c0.659-0.965,1.934-2.418,3.305-1.983c0.998,0.316,1.279,1.583,0.562,2.163 c-1.058,0.271-1.537,0.007-1.437-0.791c0.03-0.339,0.131-0.658,0.301-0.958c0.992-1.901,3.29-3.057,5.312-3.41 c0.434-0.076-0.247-0.763-0.546-0.71c-2.172,0.38-4.832,1.66-5.719,3.844c-0.516,1.269,0.278,3.118,1.832,3.078 c1.93-0.05,1.745-2.362,0.606-3.297c-1.81-1.487-3.896-0.174-5.015,1.462C462.342,110.056,463.148,110.648,463.331,110.38 L463.331,110.38z"/></g></g><g><g><path style="fill:#bc6753" d="M451.888,123.386c-1.55,1.01-2.995,2.206-4.621,3.096c-1.967,1.076-3.788,0.932-5.88,1.425 c-0.136,0.032-0.109,0.253,0.033,0.245c1.938-0.102,3.525,0.207,5.359-0.616c1.994-0.895,3.658-2.375,5.374-3.695 C452.415,123.641,452.18,123.196,451.888,123.386L451.888,123.386z"/></g></g><g><g><path style="fill:#562e2b" d="M445.548,105.48c1.106-0.492,1.737-1.4,3.091-1.364c1.322,0.035,2.137,1.035,3.312,1.347 c0.223,0.059,0.439-0.109,0.444-0.338c0.031-1.545-2.713-2.263-3.938-2.212c-1.288,0.053-3.202,0.875-3.292,2.347 C445.153,105.472,445.387,105.552,445.548,105.48L445.548,105.48z"/></g></g><g><g><path style="fill:#562e2b" d="M431.866,107.106c0.764-1.442-1.804-1.95-2.731-1.93c-1.327,0.029-3.44,0.935-3.242,2.57 c0.029,0.236,0.291,0.484,0.535,0.307c0.9-0.652,1.285-1.516,2.524-1.651c0.46-0.05,1.037-0.051,1.477,0.102 c0.448,0.155,0.688,0.554,1.121,0.731C431.659,107.279,431.813,107.205,431.866,107.106L431.866,107.106z"/></g></g><g><g><path style="fill:#562e2b" d="M445.491,99.326c1.443-0.566,2.749-1.144,4.333-1.171c1.592-0.028,3.128,0.648,4.692,0.5 c0.452-0.043,0.581-0.557,0.223-0.824c-2.414-1.796-7.679-1.629-9.636,0.83C444.888,98.931,445.076,99.489,445.491,99.326 L445.491,99.326z"/></g></g><g><g><path style="fill:#562e2b" d="M432.501,99.152c-2.262-1.806-7.142-0.856-8.923,1.27c-0.166,0.198-0.015,0.603,0.284,0.487 c1.308-0.507,2.483-1.206,3.892-1.44c1.589-0.264,2.982,0.238,4.531,0.206C432.526,99.67,432.72,99.327,432.501,99.152 L432.501,99.152z"/></g></g><g><g><path style="fill:#bc6753" d="M437.597,108.077c-0.059,1.072,0.233,2.088-0.011,3.165c-0.166,0.734-0.577,1.396-0.65,2.153 c-0.105,1.097,0.418,2.104,1.542,2.336c0.286,0.059,0.597-0.038,0.747-0.304c0.036-0.064,0.073-0.129,0.109-0.193 c0.118-0.209,0.044-0.461-0.154-0.588c-1.534-0.987-0.458-2.274-0.251-3.621c0.163-1.059,0.165-2.277-0.445-3.189 C438.22,107.44,437.624,107.596,437.597,108.077L437.597,108.077z"/></g></g><path style="fill:#653a3c" d="M442.729,84.314c-1.181-0.999-3.083-0.536-4.195,0.539c-1.112,1.075-1.663,2.585-2.305,3.992 c-0.956,2.094-2.223,4.106-4.044,5.514c-1.821,1.408-4.267,2.14-6.483,1.514c1.041-0.139,2-0.794,2.509-1.712 c-1.551,1.646-4.406,1.823-6.149,0.382c2.547-2.572,2.736-6.762,5.089-9.513c0.034,0.348,0.067,0.696,0.101,1.045 c0.845-1.93,2.413-3.759,4.413-4.422c1.729-2.36,3.752-3.996,6.553-4.843"/><path style="fill:#653a3c" d="M442.649,84.877c-0.117-0.972,0.899-1.815,1.878-1.774c0.979,0.04,1.825,0.74,2.351,1.566 c0.526,0.826,0.801,1.782,1.158,2.694c2.127,5.435,7.572,9.408,13.397,9.775c-0.415-0.709-0.965-1.338-1.613-1.843 c0.558,1.744,3.625,1.018,4.602,2.566c1.669-4.532,1.255-9.975-1.351-14.041c-2.057-3.21-4.843-6.116-8.414-7.453 c-0.169,0.083-0.094,0.399,0.094,0.398c-1.189-0.535-2.148-1.534-3.381-1.96c-6.925-2.387-15.041-0.935-20.708,3.705"/><g><g><path style="fill:#8c5357" d="M442.569,84.491c-0.806-1.898-3.122-1.796-4.497-0.554c-3.397,3.07-2.747,8.772-7.963,10.224 c0.155,0.155,0.311,0.311,0.466,0.466c0.449-1.069,0.699-2.088,0.82-3.23c0.047-0.439-0.69-0.54-0.774-0.105 c-1.021,5.335-7.209,3.817-10.511,2.016c-0.034,0.262-0.069,0.524-0.103,0.786c1.65-0.463,3.009-1.258,4.294-2.386 c0.328-0.288,0.055-0.821-0.343-0.828c-1.845-0.034-3.227-0.784-4.26-2.314c-0.256,0.15-0.513,0.3-0.769,0.449 c2.248,3.136,6.664-4.718,6.644-6.675c-0.004-0.371-0.544-0.363-0.57,0c-0.097,1.315-4.135,7.938-5.305,6.226 c-0.32-0.468-1.082-0.037-0.769,0.449c1.176,1.827,2.858,2.769,5.029,2.835c-0.114-0.276-0.229-0.552-0.343-0.828 c-1.201,1.046-2.349,1.684-3.837,2.243c-0.327,0.123-0.451,0.595-0.103,0.786c3.789,2.081,10.73,3.391,11.705-2.55 c-0.258-0.035-0.516-0.07-0.774-0.105c-0.024,1.033-0.266,2.012-0.725,2.938c-0.125,0.29,0.081,0.649,0.428,0.556 c2.062-0.552,3.497-1.855,4.591-3.669c0.767-1.271,1.284-2.666,1.881-4.019c0.736-1.666,3.289-6.032,5.428-2.504 C442.354,84.934,442.671,84.729,442.569,84.491L442.569,84.491z"/></g></g><g><g><path style="fill:#8c5357" d="M442.553,84.464c1.762-1.46,3.267-1.497,4.514-0.109c0.543,0.496,0.997,1.066,1.362,1.71 c0.673,1.191,0.846,2.487,1.209,3.776c0.397,1.41,0.904,2.642,1.896,3.745c1.792,1.992,4.85,3.358,7.478,2.375 c0.315-0.118,0.277-0.585-0.081-0.598c-3.087-0.117-6.077-0.672-7.74-3.651c-1.196-2.142-1.077-4.737-2.563-6.763 c-1.238-1.688-6.565-4.742-6.49-0.542C442.143,84.636,442.511,84.707,442.553,84.464L442.553,84.464z"/></g></g><g><g><path style="fill:#8c5357" d="M444.611,70.169c0.123,0.753,0.414,1.556,0.455,2.313c0.04,0.192,0.08,0.384,0.12,0.577 c-0.06,1.001-0.415,1.235-1.064,0.701c-0.392-0.005-0.672-0.274-1.058-0.006c-1.224,0.851,1.068,2.763-0.577,2.882 c-0.112,0.008-0.22,0.092-0.215,0.215c0.031,0.75,0.118,1.321,0.477,1.98c0.029,0.052,0.122,0.031,0.116-0.032 c-0.083-1.01-0.467-1.728,0.806-1.808c0.165-0.01,0.277-0.18,0.191-0.332c-0.483-0.849-1.382-2.376,0.353-2.324 c0.272,0.008,0.456,0.236,0.769,0.223c0.276-0.012,0.47-0.045,0.655-0.252c0.231-0.258,0.163-0.455,0.149-0.804 c-0.044-1.091-0.503-2.385-0.785-3.442C444.933,69.803,444.569,69.916,444.611,70.169L444.611,70.169z"/></g></g><g><g><path style="fill:#8c5357" d="M467.745,91.352c-1.02-0.52-2.054-1.008-3.051-1.574c-0.998-0.566-2.713-1.303-3.119-2.456 c-0.193,0.053-0.386,0.106-0.579,0.16c0.831,2.525,2.247,4.654,4.199,6.45c0.134-0.134,0.267-0.267,0.401-0.401 c-0.827-0.712-1.749-1.047-2.779-1.373c-1.362-0.432-2.233-1.005-3.375-1.804c-0.136-0.095-0.286,0.061-0.258,0.199 c0.44,2.203,4.562,2.298,6.069,3.424c0.257,0.192,0.583-0.233,0.343-0.445c-1.904-1.685-3.241-3.794-4.02-6.209 c-0.118-0.366-0.691-0.213-0.579,0.16c0.322,1.075,1.206,1.586,2.127,2.146c1.403,0.854,2.878,1.631,4.408,2.23 C467.823,91.973,468.023,91.494,467.745,91.352L467.745,91.352z"/></g></g><g><g><path style="fill:#8c5357" d="M430.147,88.431c0.503,0.526-1.897,1.483-2.173,1.545c-1.057,0.238-2.144-0.113-2.662-1.115 c-0.099,0.129-0.198,0.258-0.298,0.387c1.56,0.564,3.439-0.753,3.105-2.461c-0.034-0.175-0.293-0.125-0.299,0.04 c-0.053,1.342-1.344,2.431-2.666,1.913c-0.241-0.094-0.377,0.203-0.298,0.387c0.673,1.556,2.52,1.763,3.943,1.177 c0.583-0.24,1.505-0.633,1.777-1.264c0.156-0.363,0.098-0.733-0.301-0.831C430.147,88.177,430.054,88.334,430.147,88.431 L430.147,88.431z"/></g></g><g><path style="fill:#653a3c" d="M469.573,95.485c-0.338,2.607-1.421,5.113-3.089,7.146c-0.009-0.64-0.019-1.28-0.028-1.92 c-0.775,1.443-1.799,2.751-3.014,3.849c0.628-2.459,0.729-5.052,0.293-7.552"/></g><g><g><path style="fill:#8c5357" d="M469.377,95.431c-0.443,1.112-0.611,2.302-1.075,3.418c-0.532,1.28-1.24,2.414-2.088,3.512 c0.217,0.09,0.435,0.18,0.652,0.27c-0.015-0.64-0.031-1.28-0.046-1.92c-0.009-0.348-0.5-0.511-0.677-0.183 c-0.775,1.435-1.763,2.667-2.946,3.786c0.194,0.113,0.388,0.226,0.582,0.339c0.606-2.57,0.701-5.126,0.285-7.735 c-0.069-0.432-0.721-0.247-0.655,0.181c0.379,2.49,0.281,4.916-0.302,7.369c-0.081,0.34,0.326,0.58,0.582,0.339 c1.237-1.167,2.217-2.451,3.081-3.912c-0.226-0.061-0.451-0.122-0.677-0.183c0.003,0.64,0.006,1.28,0.009,1.92 c0.001,0.303,0.436,0.54,0.652,0.27c1.549-1.947,3.223-4.832,3.022-7.416C469.758,95.249,469.462,95.218,469.377,95.431 L469.377,95.431z"/></g></g><g><g><path style="fill:#562e2b" d="M445.309,104.838c0.35-0.88,0.988-1.775,1.914-2.097c0.758-0.264,1.535-0.115,2.311-0.185 c0.074-0.007,0.101-0.118,0.019-0.138c-1.758-0.427-4.101,0.36-4.339,2.407C445.206,104.884,445.29,104.884,445.309,104.838 L445.309,104.838z"/></g></g><g><g><path style="fill:#562e2b" d="M432.045,106.455c-0.764-1.696-2.766-2.604-4.483-1.688c-0.105,0.056-0.033,0.233,0.082,0.195 c1.709-0.562,3.421-0.122,4.285,1.561C431.969,106.601,432.08,106.532,432.045,106.455L432.045,106.455z"/></g></g><path style="fill:#fff" d="M436.144,119.228c0,0,0.14,0.39,0.44,0.93c0.73,1.32,2.43,3.5,5.37,2.83 c3.68-0.84,4.06-3.6,3.87-5.44c-0.11-1-0.38-1.72-0.38-1.72l-1.94,0.71l-7.18,2.62L436.144,119.228z"/><g><g><path style="fill:#4c3b31" d="M445.608,306.658c1.562-19-16.451-34.648-10.799-54.104c0.291-1-1.136-1.319-1.514-0.417 c-3.222,7.686-0.617,17.466,2.242,24.817c1.891,4.862,4.116,9.593,5.745,14.555c1.643,5.004,2.086,10.247,3.544,15.256 C444.956,307.212,445.572,307.095,445.608,306.658L445.608,306.658z"/></g></g><g><g><path style="fill:#4c3b31" d="M439.697,253.612c-1.578,6.074-1.127,12.705,0.489,18.732c0.864,3.221,2.433,6.155,3.11,9.402 c0.721,3.455-1.153,5.999-1.446,9.442c-0.053,0.628,0.793,0.73,1.092,0.296c3.044-4.424,3.507-8.273,1.521-13.122 c-3.343-8.164-3.857-15.815-3.224-24.542C441.304,252.929,439.917,252.767,439.697,253.612L439.697,253.612z"/></g></g><g><g><path style="fill:#4c3b31" d="M449.897,291.312c4.649-4.142,9.055-8.023,15.323-9.26c0.348-0.069,0.368-0.672,0-0.723 c-6.881-0.959-12.315,4.008-16.632,8.674C447.774,290.882,449.009,292.104,449.897,291.312L449.897,291.312z"/></g></g><g><g><path style="fill:#4c3b31" d="M439.138,295.783c-3.875-5.734-9.77-9.675-16.786-9.941c-0.5-0.019-0.607,0.757-0.118,0.875 c6.189,1.494,11.822,4.597,15.589,9.835C438.386,297.335,439.693,296.605,439.138,295.783L439.138,295.783z"/></g></g><g><g><path style="fill:#4c3b31" d="M437.485,297.607c-2.168-3.698-7.272-5.397-11.158-3.571c-0.526,0.247-0.24,1.042,0.284,1.048 c3.872,0.048,6.961,0.985,10.041,3.357C437.157,298.829,437.771,298.094,437.485,297.607L437.485,297.607z"/></g></g><g><g><path style="fill:#4c3b31" d="M452.007,293.901c1.659-1.528,3.678-2.14,5.611-3.193c0.363-0.198,0.324-0.871-0.123-0.942 c-2.561-0.409-5.015,1.137-6.781,2.843C449.864,293.43,451.144,294.696,452.007,293.901L452.007,293.901z"/></g></g><g><g><path style="fill:#90291e" d="M489.396,187.192c-1.73-1.06-3.567-1.872-5.229-3.06c-1.798-1.285-3.275-2.904-4.972-4.299 c-0.365-0.3-0.964,0.076-0.69,0.533c2.06,3.431,6.625,6.767,10.476,7.812C489.575,188.338,489.917,187.511,489.396,187.192 L489.396,187.192z"/></g></g><g><g><path style="fill:#90291e" d="M400.122,166.231c-1.348,7.717-0.036,15.264,0.984,22.948 c1.135,8.555,2.195,17.149,4.065,25.579c0.059,0.267,0.507,0.214,0.483-0.065c-1.392-16.192-5.24-32.072-4.819-48.365 C400.846,165.928,400.194,165.821,400.122,166.231L400.122,166.231z"/></g></g><g><g><path style="fill:#90291e" d="M382.19,142.743c-2.431-0.254-5.059,0.439-6.969,1.953c-0.331,0.263,0.027,0.838,0.41,0.705 c2.198-0.763,4.226-1.325,6.558-1.545C382.908,143.788,382.903,142.817,382.19,142.743L382.19,142.743z"/></g></g><g><g><path style="fill:#90291e" d="M519.562,167.486c0.497,0.842,0.986,1.7,1.301,2.63c0.299,0.881,0.282,1.795,0.526,2.676 c0.122,0.439,0.789,0.453,0.904,0c0.493-1.942-0.674-4.498-2.051-5.831C519.893,166.622,519.308,167.055,519.562,167.486 L519.562,167.486z"/></g></g><path style="fill:#a33d2c" d="M438.023,134.179c0.066-0.323,0.138-0.645,0.224-0.963c0.137-0.51,0.315-1.023,0.651-1.43 c0.336-0.407,0.859-0.693,1.382-0.622c0.313,0.043,0.594,0.205,0.874,0.351c4.735,2.478,11.391,1.071,15.342-2.304 c0.257-0.22,0.524-0.445,0.847-0.547c0.671-0.213,1.416,0.18,1.828,0.752c0.411,0.572,0.562,1.285,0.693,1.977 c0.301,1.579,0.619,3.288,1.795,4.383c1.136,1.057,2.387,1.243,3.833,1.414c0.806,0.095,1.376,0.815,1.321,1.625 c-0.115,1.693-0.859,3.33-2.075,4.539c-1.569,1.56-3.62,2.537-5.693,3.309c-4.636,1.726-9.6,2.567-14.546,2.466 c-3.254-0.067-8.221-0.5-10.525-3.125c-1.394-1.589-0.947-3.428,0.482-4.771c1.373-1.291,2.536-2.587,3.03-4.45 C437.714,135.925,437.846,135.047,438.023,134.179z"/><g><g><path style="fill:#90291e" d="M460.853,135.96c-0.589,0.794-1.106,1.562-1.918,2.156c-0.719,0.525-1.539,0.865-2.283,1.346 c-0.325,0.21-0.193,0.704,0.195,0.721c2.084,0.088,4.311-1.914,4.981-3.811C462.044,135.757,461.185,135.512,460.853,135.96 L460.853,135.96z"/></g></g><g><g><path style="fill:#90291e" d="M455.012,140.21c-0.668,0.022-1.432,0.105-2.007,0.461c-0.237,0.147-0.236,0.602,0.085,0.653 c0.677,0.108,1.394-0.08,2.03-0.32C455.52,140.852,455.499,140.194,455.012,140.21L455.012,140.21z"/></g></g><g><g><path style="fill:#90291e" d="M436.845,138.71c0.991,1.435,2.828,1.894,4.472,2.181c2.136,0.373,4.846,0.989,6.938,0.348 c0.266-0.081,0.233-0.415,0-0.509c-1.662-0.667-3.656-0.499-5.431-0.718c-2.122-0.261-3.602-0.833-5.481-1.8 C437.043,138.06,436.624,138.39,436.845,138.71L436.845,138.71z"/></g></g><g><g><path style="fill:#90291e" d="M486.163,142.478c-1.572,0.798-2.698,2.638-3.131,4.273c-0.114,0.429,0.473,0.667,0.707,0.298 c0.417-0.66,0.893-1.327,1.359-1.958c0.496-0.672,1.146-1.188,1.669-1.831C487.118,142.829,486.689,142.211,486.163,142.478 L486.163,142.478z"/></g></g><g><g><path style="fill:#90291e" d="M414.57,142.932c0.761,0.29,1.421,0.789,2.153,1.121c0.186,0.084,0.424-0.055,0.362-0.278 c-0.287-1.021-1.283-1.584-2.259-1.769C414.213,141.89,413.993,142.712,414.57,142.932L414.57,142.932z"/></g></g><g><g><path style="fill:#4c3b31" d="M489.818,302.831c-0.347,1.847-0.611,3.705-0.978,5.55c-0.328,1.647-0.801,3.286-0.834,4.973 c-0.01,0.511,0.612,0.575,0.874,0.237c2.135-2.769,2.824-7.078,2.872-10.499C491.767,302.01,490.027,301.718,489.818,302.831 L489.818,302.831z"/></g></g></g><g><path style="fill:#f0dfc5" d="M430.716,180.307c0.176,1.096,0.269,1.684,0.276,1.764c0.048,0.472,0.084,0.732,0.107,0.78 c0.04,0.352,0.068,0.616,0.084,0.792c0.049,0.48,0.101,0.72,0.156,0.72c0.024,0,0.04-0.036,0.048-0.108 c0.04-0.216,0.092-0.748,0.156-1.596l0.192-2.952c0.079-1.24,0.159-2.068,0.239-2.484c0.248-1.168,0.677-1.752,1.284-1.752 c0.536,0,0.928,0.228,1.176,0.684c0.208,0.376,0.292,0.848,0.253,1.416c-0.145,2.112-0.433,4.196-0.864,6.252 c-0.48,2.256-1.08,3.464-1.8,3.624c-0.305,0.072-0.54,0.084-0.708,0.036c-0.16-0.04-0.396-0.184-0.708-0.432 c-0.48-0.384-0.876-1.316-1.188-2.796c-0.144-0.68-0.276-1.52-0.396-2.52c-0.072-0.56-0.164-1.404-0.276-2.532 c-0.152,1.632-0.269,2.656-0.348,3.072c-0.064,0.336-0.145,0.932-0.24,1.788c-0.16,1.432-0.384,2.34-0.672,2.724 c-0.152,0.208-0.437,0.384-0.853,0.528c-0.16,0.056-0.319,0.084-0.479,0.084c-0.257,0-0.496-0.076-0.721-0.228 c-0.367-0.248-0.607-0.512-0.72-0.792c-0.2-0.488-0.372-1.068-0.516-1.74c-0.128-0.704-0.232-1.296-0.313-1.776 c-0.112-0.696-0.244-1.82-0.396-3.372c-0.128-1.32-0.176-2.224-0.145-2.712c0.032-0.536,0.232-0.904,0.601-1.104 c0.191-0.104,0.372-0.156,0.54-0.156c0.6,0,1.023,0.548,1.271,1.644c0.112,0.488,0.2,1.272,0.265,2.352 c0.096,1.592,0.159,2.524,0.191,2.796c0.104,0.832,0.164,1.312,0.181,1.44c0,0.208,0.016,0.312,0.048,0.312 c0.023,0,0.036-0.04,0.036-0.12c0.239-1.096,0.388-2.012,0.443-2.748c0.104-1.288,0.236-2.356,0.396-3.204 c0.264-1.392,0.76-2.08,1.487-2.064c0.368,0.008,0.656,0.12,0.864,0.336c0.16,0.16,0.316,0.436,0.468,0.828 c0.088,0.232,0.164,0.548,0.229,0.948C430.536,179.136,430.652,179.891,430.716,180.307z"/><path style="fill:#f0dfc5" d="M442.031,176.587c0.056,0.184,0.084,0.364,0.084,0.54c0,0.216-0.044,0.416-0.132,0.6 c-0.176,0.376-0.384,0.628-0.624,0.756c-0.16,0.088-0.38,0.132-0.66,0.132c-0.151,0-0.324-0.012-0.516-0.036 c0.04,0.448,0.06,0.924,0.06,1.428c0,0.4,0.036,1.092,0.108,2.076c0.063,0.912,0.088,1.6,0.072,2.064 c-0.009,0.208-0.009,0.364,0,0.468c0.008,0.264,0.052,0.384,0.132,0.36c1.04-0.128,1.636,0.124,1.788,0.756 c0.023,0.104,0.036,0.204,0.036,0.3c0,0.48-0.261,0.848-0.78,1.104c-0.376,0.192-0.845,0.308-1.404,0.348 c-0.848,0.064-1.488,0.048-1.92-0.048c-0.584-0.128-1.004-0.296-1.26-0.504c-0.36-0.28-0.521-0.684-0.48-1.212 c0.057-0.72,0.408-1.08,1.057-1.08c0.12,0,0.243,0.016,0.372,0.048c0.016,0,0.123,0.02,0.323,0.06 c0.032-0.368,0.032-0.904,0-1.608c-0.031-0.792-0.044-1.332-0.036-1.62c0.017-0.376,0.009-0.868-0.023-1.476 c-0.032-0.664-0.048-1.156-0.048-1.476c-0.792-0.096-1.232-0.152-1.32-0.168c-0.168-0.048-0.32-0.172-0.456-0.372 c-0.16-0.232-0.236-0.648-0.228-1.248c0.008-0.583,0.556-0.972,1.644-1.164c0.504-0.088,0.976-0.132,1.416-0.132 c0.521,0,0.996,0.06,1.428,0.18C441.455,175.888,441.911,176.196,442.031,176.587z"/><path style="fill:#f0dfc5" d="M448.116,177.967c0.288,0.568,0.676,1.528,1.164,2.88c0.304,0.872,0.532,1.524,0.684,1.956 c0.32,0.888,0.588,1.52,0.805,1.896c0.048,0.088,0.096,0.132,0.144,0.132c0.064,0,0.104-0.14,0.12-0.42 c0.032-0.48-0.017-1.508-0.144-3.084c-0.129-1.576-0.185-2.952-0.169-4.128c0.017-1.144,0.46-1.716,1.332-1.716 c1.072,0,1.608,0.872,1.608,2.616c0,0.216-0.012,0.54-0.036,0.972c-0.023,0.432-0.036,0.756-0.036,0.972 c0,2.144-0.14,3.92-0.42,5.328c-0.12,0.6-0.264,1.036-0.432,1.308c-0.232,0.376-0.608,0.616-1.128,0.72 c-0.16,0.032-0.328,0.048-0.504,0.048c-0.433,0-0.809-0.124-1.128-0.372c-0.752-0.584-1.544-2.004-2.376-4.26 c-0.416-1.128-0.708-1.944-0.876-2.448c-0.217-0.656-0.429-0.984-0.637-0.984c-0.04,0-0.076,0.012-0.107,0.036 c-0.313,0.16-0.469,0.496-0.469,1.008c0,0.112,0.005,0.212,0.013,0.3c0.191,2.072,0.384,3.544,0.576,4.416 c0.071,0.328,0.107,0.612,0.107,0.852c0,0.384-0.084,0.716-0.252,0.996c-0.2,0.328-0.479,0.492-0.84,0.492 c-0.568,0-0.952-0.188-1.152-0.564c-0.312-0.576-0.468-2.016-0.468-4.32c0-1.664-0.008-2.658-0.023-2.982 c-0.017-0.324-0.024-0.65-0.024-0.978c0-1.08,0.096-1.78,0.288-2.1c0.384-0.648,0.852-0.972,1.404-0.972 c0.279,0,0.624,0.068,1.031,0.204C446.836,175.995,447.484,176.727,448.116,177.967z"/></g></g><g><g><g><path style="fill:#fa5" d="M288.221,41c-1.766-0.011-3.314,1.256-3.588,3.001c-1.044,6.659,0.072,12.435,0.879,18.693 c1.246,9.665,2.69,19.446,6.149,28.608c1.754,4.646,4.2,8.622,6.825,12.794c4.897,7.782,15.231,10.529,23.917,9.711 c3.56-0.335,7.114-1.111,10.316-2.748c3.077-1.573,5.724-3.879,8.102-6.386c7.249-7.642,12.203-17.291,15.055-27.431 s3.661-20.775,3.281-31.301c-0.125-3.452-0.642-4.613-4.345-4.541c-12.621,0.243-25.288-0.152-37.911-0.227 C307.341,41.115,297.781,41.057,288.221,41z"/><g><g><path style="fill:#fa5" d="M364.172,68.111c-3.491,0.487-4.858-3.267-4.012-5.965c0.806-2.568,3.186-3.796,5.628-4.241 c4.668-0.852,8.749,1.933,11.743,5.27c5.686,6.336,4.023,14.24-0.499,20.769c-4.452,6.428-11.733,10.863-19.003,13.427 c-3.652,1.288-7.446,2.141-11.292,2.571c-3.87,0.433-7.69,0.293-11.151,2.28c-2.32,1.332-1.451,5.519,1.43,5.281 c15.686-1.293,32.711-4.657,43.057-17.747c8.536-10.8,9.394-25.1-2.829-33.463c-5.189-3.55-12.463-4.791-17.878-0.974 c-4.22,2.975-5.758,8.672-3.447,13.355c2.203,4.465,9.358,7.286,12.641,2.231c2.738-4.216-1.642-9.827-6.145-6.961 C360.101,65.42,361.707,68.455,364.172,68.111L364.172,68.111z"/></g></g><g><g><path style="fill:#fa5" d="M278.492,65.849c-0.08,0.031-0.159,0.063-0.239,0.094c-1.164,0.457-2.005,1.55-1.629,2.869 c0.028,0.097,0.056,0.195,0.083,0.292c0.456,1.597,2.123,2.073,3.516,1.43c1.156-0.533,1.452-1.468,1.576-2.658 c0.121-1.163-0.887-2.094-1.866-2.451c-5.502-2.006-8.539,5.444-5.399,9.315c3.837,4.731,10.444,2.09,13.131-2.397 c3.143-5.249,2.617-12.072-1.929-16.267c-5.091-4.697-13.028-4.513-18.786-1.169c-6.02,3.496-9.746,10.2-9.71,17.138 c0.034,6.587,3.347,12.015,7.59,16.817c11.532,13.053,27.231,17.242,43.962,18.641c2.878,0.241,3.753-3.951,1.43-5.281 c-3.211-1.838-6.722-1.858-10.33-2.212c-4.255-0.417-8.414-1.363-12.413-2.888c-7.437-2.835-14.166-7.642-19.391-13.634 c-5.41-6.205-7.654-15.074-1.528-21.773c3.391-3.708,9.46-6.049,14.151-3.411c2.511,1.412,4.101,3.923,3.987,6.84 c-0.141,1.657-0.631,3.192-1.473,4.605c-1.131,2.269-2.679,2.461-4.644,0.578c-0.592-0.592-1.184-1.184-1.775-1.775 c0.039,0.121,0.077,0.243,0.116,0.364c0.211-0.799,0.422-1.597,0.633-2.396c-0.078,0.085-0.155,0.17-0.233,0.254 c1.128,0,2.257,0,3.385,0c-0.062-0.077-0.124-0.155-0.186-0.232c0,1.099,0,2.199,0,3.298c0.063-0.061,0.125-0.122,0.187-0.183 C282.246,68.162,280.68,64.99,278.492,65.849L278.492,65.849z"/></g></g><path style="fill:#fa5" d="M329.388,108.375c1.454,2.58,0.734,6.022-1.242,8.228c-1.976,2.205-4.97,3.291-7.923,3.516 c-1.563,0.119-3.16,0.016-4.646-0.481c-2.319-0.775-4.292-2.53-5.331-4.743c-1.039-2.213-1.13-4.853-0.245-7.132"/><g><g><path style="fill:#fa5" d="M318.618,104.646c-4.545,5.11-3.822,12.957-3.895,19.37 c-0.065,5.701-1.978,15.248,3.746,18.735c0.925,0.563,2.19,0.563,3.115,0c5.726-3.489,3.811-13.064,3.746-18.735 c-0.074-6.427,0.655-14.254-3.895-19.37C320.75,103.875,319.304,103.876,318.618,104.646L318.618,104.646z"/></g></g><path style="fill:#fa5" d="M342.583,140.25c0,3.066-5.462,4.37-7.632,4.934c-4.953,1.288-9.853,1.649-14.952,1.649 c-4.525,0-8.844-0.684-13.233-1.248c-1.68-0.216-3.466-0.825-5.031-1.462c-1.563-0.637-4.319-1.81-4.319-3.873 c0-3.607,5.611-4.47,8.23-4.924c4.821-0.834,9.383-1.66,14.354-1.66c4.296,0,8.343,0.926,12.524,1.236 c0.67,0.05,1.351,0.102,1.978,0.343C336.755,136.113,342.583,136.821,342.583,140.25z"/><g><path style="fill:#e58f41" d="M315.707,67.36c0.67-1.405,1.339-2.811,2.009-4.216c0.541-1.136,1.082-2.272,1.624-3.409 c0.621-1.304,0.862-4.192,2.319-1.97c0.77,1.173,1.318,2.571,1.956,3.821c0.322,0.631,2.211,5.538,2.874,5.626 c1.454,0.191,2.907,0.381,4.361,0.572c1.243,0.163,2.485,0.326,3.728,0.489c0.749,0.098,3.547-0.257,3.636,0.924 c0.043,0.564-2.756,2.716-3.242,3.203c-1.67,1.674-3.34,3.347-5.01,5.021c0.586,3.152,1.141,6.31,1.757,9.456 c0.409,2.089-0.66,1.864-2.345,1.172c-1.333-0.547-2.521-1.361-3.799-2.011c-1.416-0.719-2.832-1.439-4.248-2.158 c-1.436,0.781-2.873,1.561-4.309,2.342c-0.788,0.428-5.389,3.572-6.111,2.972c-0.741-0.616,0.745-6.039,0.899-7.018 c0.237-1.504,0.473-3.009,0.71-4.513c-1.226-1.162-2.452-2.325-3.678-3.487c-1.2-1.138-3.022-1.95-3.753-3.511 c-0.979-2.091,1.325-1.82,2.838-2.061C310.519,68.187,313.113,67.773,315.707,67.36z"/><g><path style="fill:#ffba57" d="M316.786,67.991c1.091-2.291,2.019-6.183,3.759-7.924c0.898-0.898,0.332-1.119,1.371,0.864 c0.352,0.672,0.649,1.37,0.96,2.061c1.388,3.088,1.658,5.137,5.067,5.659c1.578,0.242,3.187,0.439,4.771,0.626 c0.514,0.06,3.087-0.017,3.442,0.272c0.154-0.088,0.307-0.177,0.461-0.265c-0.351,0.34-0.712,0.668-1.086,0.983 c-0.474,0.665-1.466,1.3-2.069,1.874c-1.178,1.124-4.208,3.362-4.705,4.945c-0.746,2.375,1.425,5.743,1.394,8.232 c0.162,0.622,0.324,1.245,0.486,1.867c-1.111-0.406-2.169-0.92-3.174-1.541c-1.133-0.576-2.247-1.192-3.381-1.768 c-1.352-0.687-2.032-1.217-3.386-1.079c-1.824,0.185-4.401,2.425-6.083,3.436c-0.314,0.189-2.227,1.559-2.607,1.469 c-0.017,0.156-0.035,0.311-0.052,0.467c0.065-0.855,0.19-1.701,0.375-2.538c0.474-2.553,2.222-6.5,1.071-8.855 c-0.673-1.377-7.113-4.941-6.447-6.819c0.193-0.545,8.438-1.289,9.085-1.392c1.584-0.253,0.912-2.662-0.665-2.411 c-2.797,0.446-5.638,0.782-8.42,1.303c-0.701,0.131-1.758,0.078-2.359,0.566c-1.048,0.852-1.1,1.732-0.715,2.971 c0.93,2.989,5.179,3.753,6.526,6.387c1.207,2.36-0.004,5.092-0.488,7.585c-0.467,2.407-1.272,6.014,2.292,5.345 c1.775-0.333,3.532-1.899,5.044-2.78c1.537-0.895,2.987-2.058,4.856-1.857c1.454,0.156,3.407,1.787,4.713,2.479 c2.646,1.401,6.203,2.915,6.144-1.28c-0.029-2.008-0.979-3.999-1.108-6.004c-0.212-3.289,0.406-4.033,2.742-6.333 c1.238-1.219,3.823-2.737,4.498-4.311c1.58-3.687-4.355-3.213-6.388-3.448c-1.267-0.147-3.559-0.058-4.771-0.626 c-1.508-0.707-1.695-1.635-2.372-3.163c-1.06-2.392-1.935-4.968-3.769-6.882c-0.312-0.326-0.788-0.429-1.216-0.321 c-1.127,0.282-1.196,0.789-1.786,1.72c-1.689,2.663-2.787,6.317-4.172,9.224C313.939,68.174,316.094,69.444,316.786,67.991z"/></g></g><g><g><path style="fill:#ffcc7b" d="M292.442,51.344c-2.246,4.997-2.046,10.925-1.46,16.275c0.52,4.748,1.196,10.951,5.084,14.163 c0.733,0.605,1.657,0.179,1.767-0.732c0.544-4.502-1.771-9.275-2.411-13.734c-0.735-5.116-0.024-10.23-0.577-15.321 C294.723,50.885,293.027,50.041,292.442,51.344L292.442,51.344z"/></g></g><g><g><path style="fill:#ffcc7b" d="M350.146,48.011c-0.06,2.602,0.812,5.146,0.82,7.779c0.008,2.602-0.31,5.201-0.3,7.804 c0.004,1.081,1.364,1.336,1.929,0.522c3.132-4.516,3.399-12.68-0.048-17.099C351.752,45.998,350.171,46.906,350.146,48.011 L350.146,48.011z"/></g></g></g><g><g><path style="fill:#d77b61" d="M286.239,95.899c-0.056,0.917-0.161,1.88-0.414,2.749c-0.124,0.426-0.659,1.516-1.185,1.351 c-0.156-0.049-0.266-0.201-0.354-0.349c-0.895-1.498-0.755-3.378-0.58-5.093c-0.255,1.287-0.511,2.575-0.766,3.862 c-0.082,0.413-0.169,0.839-0.402,1.172c-0.233,0.332-0.654,0.546-1.032,0.393c-0.25-0.101-0.436-0.338-0.587-0.578 c-1.179-1.873-0.971-4.277-0.715-6.447c-0.349,1.525-0.698,3.05-1.048,4.575c-0.11,0.479-0.274,1.024-0.707,1.178 c-0.368,0.131-0.799-0.098-1.051-0.44c-0.251-0.342-0.36-0.772-0.446-1.191c-0.376-1.823-0.457-3.699-0.237-5.517 c0.054,1.501-0.041,3-0.284,4.463c-0.129,0.777-0.475,1.705-1.215,1.709c-0.451,0.003-0.861-0.381-1.063-0.826 c-0.266-0.587-0.223-1.19-0.264-1.806c-0.058-0.865-0.149-1.668-0.009-2.524c0.09-0.549,0.241-1.082,0.411-1.604 c0.12-0.368,0.203-0.844,0.281-1.227"/></g><g><g><path style="fill:#ba5e49" d="M286.174,95.94c-0.047,0.844-0.145,3.789-1.432,3.673c-0.984-0.088-1.053-1.771-1.092-2.59 c-0.037-0.803,0.047-1.611,0.128-2.408c0.006-0.056-0.122-0.239-0.142-0.14c-0.212,1.05-0.423,2.099-0.633,3.149 c-0.104,0.52-0.159,1.882-0.743,2.093c-0.426-0.107-0.852-0.215-1.278-0.322c-0.263-0.423-0.461-0.874-0.596-1.354 c-0.468-1.627-0.277-3.366-0.085-5.02c0.008-0.07-0.174-0.214-0.194-0.128c-0.349,1.521-0.624,3.082-1.052,4.582 c-0.198,0.694-0.713,2.387-1.904,0.06c-0.122-0.238-0.139-0.614-0.186-0.875c-0.178-0.982-0.264-1.98-0.267-2.978 c-0.001-0.375,0.061-0.78,0.034-1.15c-0.013-0.178,0.04-0.905-0.105-0.35c-0.173,0.66-0.033,1.549-0.098,2.239 c-0.062,0.66-0.112,1.354-0.299,1.993c-0.062,0.211-0.181,0.82-0.434,0.911c-0.582-0.357-1.164-0.715-1.746-1.072 c-0.036-0.242-0.06-0.485-0.074-0.729c-0.006-0.071-0.201-0.197-0.193-0.093c0.063,0.824,0.45,2.786,1.774,2.343 c0.657-0.22,0.86-1.104,0.974-1.691c0.283-1.46,0.323-2.982,0.284-4.463c-0.002-0.069-0.194-0.2-0.203-0.112 c-0.201,1.878-0.391,4.621,0.485,6.379c0.346,0.695,1.23,1.383,1.852,0.551c0.506-0.677,0.543-1.881,0.724-2.675 c0.133-0.584,0.374-1.231,0.417-1.827c0.071-0.988-0.054-0.503-0.107,0.122c-0.15,1.766-0.174,3.825,0.871,5.358 c0.759,1.113,1.696,0.71,2.073-0.498c0.314-1.006,0.566-2.268,0.658-3.318c0.09-1.025-0.019-0.56-0.054,0.101 c-0.022,0.413-0.035,0.828-0.015,1.242c0.034,0.715,0.251,3.228,1.336,3.179c1.34-0.061,1.39-3.523,1.451-4.263 C286.317,95.705,286.178,95.855,286.174,95.94L286.174,95.94z"/></g></g><g><path style="fill:#d77b61" d="M277.51,104.876c-0.083-1.576-0.446-3.152-1.063-4.616c1.738,0.328,3.527,0.184,5.155-0.413 c0.263-0.097,0.539-0.219,0.686-0.471c0.208-0.357,0.076-0.867-0.199-1.197c-0.275-0.33-0.661-0.522-1.036-0.699 c-1.299-0.613-2.619-1.169-3.955-1.667c-1.081-0.403-2.122-0.668-3.222-0.987c-0.723-0.209-1.53-0.41-2.161-0.033 c-0.436,0.261-0.705,0.764-0.823,1.291c-0.118,0.527-0.103,1.085-0.088,1.635"/></g><g><g><path style="fill:#ba5e49" d="M277.567,104.85c-0.074-1-0.219-1.982-0.487-2.949c-0.056-0.204-0.454-1.099-0.397-1.219 c0.224-0.471,1.148-0.164,1.572-0.163c0.972,0.002,4.009-0.064,4.238-1.4c0.22-1.284-1.891-1.918-2.687-2.268 c-2.23-0.979-4.524-1.758-6.849-2.471c-0.069-0.021-0.11,0.235-0.025,0.238c1.395,0.046,2.958,0.802,4.257,1.29 c1.145,0.43,2.332,0.863,3.419,1.428c0.795,0.413,2.556,1.482,1.159,2.337c-0.514,0.314-1.323,0.444-1.914,0.543 c-1.152,0.193-2.303,0.145-3.449-0.054c-0.053-0.009-0.046,0.05-0.033,0.082c0.616,1.503,0.976,3.038,1.081,4.658 C277.463,105.061,277.576,104.961,277.567,104.85L277.567,104.85z"/></g></g></g><g><g><path style="fill:#d77b61" d="M356.845,92.375c0.087,0.927,0.229,1.902,0.529,2.787c0.147,0.434,0.759,1.549,1.326,1.398 c0.168-0.045,0.283-0.195,0.375-0.342c0.929-1.487,0.722-3.388,0.484-5.126c0.314,1.307,0.629,2.614,0.943,3.921 c0.101,0.419,0.208,0.852,0.471,1.194c0.263,0.342,0.726,0.57,1.132,0.427c0.269-0.095,0.463-0.329,0.62-0.567 c1.227-1.857,0.932-4.29,0.591-6.489c0.423,1.55,0.846,3.099,1.269,4.649c0.133,0.486,0.327,1.041,0.802,1.209 c0.404,0.142,0.865-0.076,1.128-0.414s0.368-0.769,0.45-1.189c0.356-1.83,0.39-3.722,0.099-5.563 c-0.015,1.514,0.131,3.03,0.437,4.514c0.162,0.788,0.565,1.735,1.369,1.761c0.49,0.016,0.924-0.359,1.13-0.804 c0.272-0.585,0.208-1.195,0.235-1.816c0.038-0.872,0.113-1.68-0.063-2.548c-0.113-0.557-0.293-1.099-0.492-1.631"/></g><g><g><path style="fill:#ba5e49" d="M356.777,92.445c0.173,1.248,0.244,3.031,1.277,3.95c0.741,0.659,1.163-0.09,1.434-0.797 c0.403-1.048,0.637-3.01,0.197-4.066c0.15,0.361,0.317,1.692,0.478,2.367c0.155,0.648,0.24,1.419,0.561,2.016 c0.277,0.516,0.819,1.026,1.458,0.818c1.152-0.377,1.453-2.516,1.513-3.508c0.045-0.738-0.007-1.479-0.089-2.212 c-0.013-0.114-0.124-1.049-0.198-1.004c-0.134,0.081,0.317,1.404,0.376,1.619c0.244,0.898,0.44,1.829,0.741,2.71 c0.122,0.358,0.248,0.752,0.561,0.996c0.753,0.584,1.544-0.057,1.829-0.814c0.707-1.878,0.532-4.262,0.254-6.206 c-0.009-0.062-0.211-0.182-0.211-0.099c0.001,1.297,0.092,2.583,0.313,3.862c0.123,0.711,0.252,1.595,0.794,2.136 c0.327,0.326,0.761,0.518,1.225,0.369c0.916-0.296,1.023-1.403,1.066-2.207c0.004-0.082-0.198-0.213-0.202-0.135 c-0.02,0.358-0.027,0.75-0.133,1.096c-0.104,0.215-0.209,0.43-0.313,0.645c-0.606-0.092-1.213-0.185-1.819-0.277 c-0.444-0.46-0.469-1.853-0.545-2.444c-0.098-0.764-0.03-1.82-0.246-2.519c0.163,0.526,0.073,1.947,0.037,2.726 c-0.035,0.767-0.103,1.563-0.277,2.312c-0.083,0.357-0.143,0.733-0.36,1.04c-0.125,0.234-0.32,0.405-0.584,0.512 c-0.379-0.254-0.758-0.509-1.137-0.763c-0.392-0.577-0.477-1.711-0.662-2.385c-0.233-0.851-0.467-1.702-0.7-2.553 c-0.017-0.062-0.219-0.209-0.202-0.097c0.298,1.94,0.624,4.124-0.293,5.95c-0.39,0.776-1.166,1.98-2.167,0.181 c-0.228-0.409-0.277-1.047-0.385-1.495c-0.246-1.013-0.492-2.026-0.738-3.039c-0.019-0.077-0.169-0.237-0.146-0.071 c0.092,0.676,0.185,1.355,0.202,2.038c0.013,0.524,0.046,2.325-0.478,2.678c-0.35,0.236-1.376,0.036-1.612-0.262 c-0.188-0.237-0.266-0.677-0.342-0.972c-0.189-0.733-0.287-1.482-0.343-2.235C356.904,92.174,356.766,92.365,356.777,92.445 L356.777,92.445z"/></g></g><g><path style="fill:#d77b61" d="M366.555,103.678c-0.246-2.179,0.187-4.611,1.05-6.619c-1.878,0.281-3.826,0.085-5.61-0.565 c-0.289-0.105-0.592-0.237-0.758-0.495c-0.236-0.366-0.108-0.877,0.182-1.203c0.289-0.326,0.703-0.508,1.105-0.675 c1.393-0.581,2.811-1.105,4.247-1.569c1.162-0.376,2.285-0.614,3.47-0.904c0.78-0.191,1.65-0.37,2.346,0.029 c0.481,0.276,0.787,0.792,0.931,1.327c0.143,0.536,0.144,1.098,0.143,1.653c-0.001,0.668-0.02,1.176-0.171,1.827 c-0.134,0.576-0.268,1.152-0.401,1.727c-0.096,0.413-0.192,0.827-0.34,1.224c-0.247,0.663-0.698,1.268-1.146,1.818 c-0.255,0.313-0.623,0.524-0.882,0.84"/></g><g><g><path style="fill:#ba5e49" d="M366.643,101.695c0.089-1.583,0.438-3.088,1.048-4.55c0.028-0.066-0.076-0.201-0.147-0.191 c-1.371,0.187-2.749,0.18-4.106-0.112c-0.325-0.07-0.732-0.116-1.031-0.272c-0.138-0.047-0.277-0.095-0.415-0.142 c-0.214-0.436-0.428-0.872-0.642-1.308c0.102-0.623,1.458-1.012,1.892-1.187c1.193-0.48,2.404-0.918,3.627-1.315 c1.315-0.427,2.967-1.179,4.361-1.15c0.094,0.002,0.105-0.266,0.01-0.246c-1.412,0.296-11.444,2.542-10.113,4.757 c0.625,1.04,2.903,1.165,3.926,1.254c0.583,0.051,1.177-0.03,1.754,0.019c0.462,0.04,0.442-0.135,0.482,0.318 c0.019,0.214-0.208,0.618-0.269,0.833c-0.31,1.084-0.452,2.188-0.495,3.313C366.518,101.856,366.636,101.812,366.643,101.695 L366.643,101.695z"/></g></g></g></g><g><path style="fill:#fa5" d="M248.413,73.662c0.72,0.209,1.452,0.361,2.194,0.409c-1.747-0.114-3.879,1.159-5.205,2.166 c-2.163,1.642-3.858,3.902-4.925,6.392c-0.296,0.692-0.959,1.886-0.914,2.648c-0.214-3.686-2.302-8.009-5.342-10.185 c-0.999-0.715-2.184-1.696-3.449-1.829c3.682,0.388,7.205-1.835,8.722-5.159c0.845-1.852,1.113-3.905,1.39-5.903 c-0.118,0.85,0.215,2.013,0.355,2.858c0.313,1.896,0.868,3.806,1.976,5.4C244.522,72.342,246.278,73.043,248.413,73.662z"/><path style="fill:#fa5" d="M399.413,51.162c0.72,0.209,1.452,0.361,2.194,0.409c-1.747-0.114-3.879,1.159-5.205,2.166 c-2.163,1.642-3.858,3.902-4.925,6.392c-0.296,0.692-0.959,1.886-0.914,2.648c-0.214-3.686-2.302-8.009-5.342-10.185 c-0.999-0.715-2.184-1.696-3.449-1.829c3.682,0.388,7.205-1.835,8.722-5.159c0.845-1.852,1.113-3.905,1.39-5.903 c-0.118,0.85,0.215,2.013,0.355,2.858c0.313,1.896,0.868,3.806,1.976,5.4C395.522,49.842,397.278,50.543,399.413,51.162z"/><path style="fill:#fa5" d="M339.23,23.328c0.507,0.147,1.021,0.254,1.543,0.288c-1.228-0.08-2.727,0.815-3.66,1.523 c-1.521,1.155-2.713,2.744-3.463,4.494c-0.208,0.487-0.674,1.326-0.643,1.862c-0.151-2.592-1.619-5.632-3.756-7.162 c-0.702-0.503-1.536-1.192-2.426-1.286c2.589,0.273,5.066-1.291,6.133-3.628c0.594-1.302,0.782-2.746,0.977-4.151 c-0.083,0.598,0.151,1.416,0.249,2.01c0.22,1.333,0.61,2.676,1.389,3.797C336.494,22.4,337.728,22.893,339.23,23.328z"/><path style="fill:#fa5" d="M253.149,91.184c0.329,0.095,0.664,0.165,1.003,0.187c-0.799-0.052-1.773,0.53-2.38,0.99 c-0.989,0.751-1.764,1.784-2.252,2.922c-0.136,0.316-0.438,0.862-0.418,1.211c-0.098-1.685-1.053-3.662-2.442-4.657 c-0.457-0.327-0.998-0.775-1.577-0.836c1.683,0.177,3.294-0.839,3.987-2.359c0.386-0.847,0.509-1.785,0.636-2.699 c-0.054,0.389,0.098,0.92,0.162,1.307c0.143,0.867,0.397,1.74,0.903,2.469C251.37,90.58,252.173,90.901,253.149,91.184z"/><path style="fill:#fa5" d="M391.967,107.183c0.527,0.153,1.063,0.264,1.606,0.299c-1.279-0.083-2.839,0.848-3.81,1.585 c-1.583,1.202-2.824,2.856-3.604,4.678c-0.217,0.506-0.702,1.38-0.669,1.938c-0.157-2.697-1.685-5.862-3.909-7.454 c-0.731-0.523-1.598-1.241-2.525-1.339c2.695,0.284,5.273-1.343,6.383-3.776c0.619-1.356,0.814-2.858,1.017-4.32 c-0.086,0.622,0.158,1.473,0.26,2.092c0.229,1.388,0.635,2.785,1.446,3.952C389.119,106.216,390.404,106.73,391.967,107.183z"/><path style="fill:#fa5" d="M325.776,31.936c0.289,0.084,0.583,0.145,0.881,0.164c-0.702-0.046-1.558,0.465-2.091,0.87 c-0.869,0.66-1.55,1.567-1.978,2.568c-0.119,0.278-0.385,0.758-0.367,1.064c-0.086-1.481-0.925-3.217-2.146-4.091 c-0.401-0.287-0.877-0.681-1.386-0.735c1.479,0.156,2.894-0.737,3.503-2.072c0.34-0.744,0.447-1.569,0.558-2.371 c-0.047,0.342,0.086,0.809,0.142,1.148c0.126,0.762,0.349,1.529,0.794,2.169C324.213,31.406,324.919,31.687,325.776,31.936z"/></g></g></g></svg>