<svg xmlns="http://www.w3.org/2000/svg" xmlns:xlink="http://www.w3.org/1999/xlink" x="0" y="0" version="1.1" viewBox="0 0 500 500" style="enable-background:new 0 0 500 500" xml:space="preserve"><g id="Background_Simple"><g><path style="fill:#ffe6de" d="M403.903,71.481c-32.03-31.616-91.034-49.657-133.851-53.847 c-48.805-8.02-104.823,10.136-141.669,49.794S72.51,153.734,68.1,212.009c-4.287,56.643,12.586,98.025,39.363,122.157 c36.841,33.201,110.859,35.174,110.859,35.174l51.059,1.806c12.05,0.456,49.079-2.961,60.678-6.428 c20.182-6.033,50.94-23.407,66.238-35.636c35.138-28.087,57.167-77.419,58.174-127.185 C455.481,152.13,435.934,103.096,403.903,71.481z"/><g><g><path style="fill:#fff" d="M169.758,303.41c1.534-12.523-1.196-26.12-9.877-35.275c-8.446-8.907-21.767-12.529-33.34-4.363 c-0.255,0.172-0.502,0.357-0.746,0.547c-0.072,0.055-0.145,0.104-0.217,0.159l0.019-0.008c-3.294,2.641-5.65,6.817-6.885,10.963 c-2.862,9.603-1.729,20.331,3.076,29.125c4.805,8.794,13.22,15.543,22.847,18.323c4.556,1.316,9.6,1.733,13.932-0.196 C165.672,319.522,168.813,311.129,169.758,303.41z"/><path style="fill:#fff" d="M167.044,324.879c-2.391-1.115-4.851-2.082-7.361-2.895l-3.344,1.79 c-0.595,0.947-0.741,2.129-0.579,3.236c0.162,1.107,0.61,2.153,1.131,3.143c0.428,0.813,1.074,1.698,1.993,1.694 c0.796-0.003,1.44-0.729,1.625-1.503c0.185-0.774,0.02-1.583-0.145-2.362c0.409,0.729,0.845,1.487,1.55,1.936 c0.705,0.449,1.762,0.463,2.276-0.196c0.417-0.536,0.335-1.333-0.013-1.915c-0.348-0.583-0.91-1-1.457-1.402 c1.33,0.691,2.888,0.935,4.366,0.683c0.445-0.076,0.945-0.248,1.104-0.671C168.439,325.755,167.685,325.178,167.044,324.879z"/></g><g><path style="fill:#ffe6de" d="M126.64,268.23c-5.786,7.398-7.797,18.294-3.937,27.033c0.327,0.74,1.611,0.209,1.319-0.556 c-3.277-8.585-1.606-18.334,3.155-26.063C127.375,268.322,126.883,267.919,126.64,268.23L126.64,268.23z"/></g><g><path style="fill:#ffe6de" d="M123.821,298.47c0.218,0.663,0.26,1.405,0.415,2.089c0.244,1.075,1.999,0.445,1.438-0.606 c-0.153-0.286-0.301-0.578-0.471-0.855c-0.175-0.285-0.395-0.555-0.524-0.865C124.466,297.722,123.637,297.91,123.821,298.47 L123.821,298.47z"/></g><g><path style="fill:#ffe6de" d="M154.894,324.646c2.617,0.495,5.331-0.674,7.173-2.514c0.673-0.672-0.335-1.657-1.036-1.036 c-1.818,1.61-3.8,2.217-6.137,2.65C154.448,323.829,154.449,324.562,154.894,324.646L154.894,324.646z"/></g></g><g><g><path style="fill:#fff" d="M146.091,51.545c13.992,5.218,28.379,9.354,43.002,12.378c14.54,3.007,29.306,4.928,44.13,5.767 c14.912,0.843,29.886,0.591,44.762-0.756c14.788-1.339,29.482-3.75,43.914-7.24c14.448-3.494,28.637-8.069,42.388-13.716 c1.664-0.683,3.321-1.383,4.972-2.095c0.615-0.265,0.084-1.164-0.527-0.901c-13.669,5.898-27.792,10.729-42.2,14.474 c-14.343,3.728-28.965,6.385-43.701,7.957c-14.723,1.57-29.56,2.067-44.355,1.485c-14.81-0.582-29.576-2.245-44.14-4.998 c-14.542-2.749-28.881-6.584-42.841-11.5c-1.715-0.604-3.424-1.226-5.128-1.861C145.739,50.304,145.467,51.312,146.091,51.545 L146.091,51.545z"/></g><path style="fill:#fff" d="M153.043,53.455c-0.945,9.478-0.452,19.097,1.455,28.429c0.314,1.537,0.897,3.325,2.403,3.766 c1.454,0.425,2.873-0.673,3.984-1.702c7.42-6.877,14.443-14.184,21.021-21.87L153.043,53.455z"/><path style="fill:#fff" d="M193.984,63.786c0.632,9.504,2.706,18.91,6.127,27.799c0.564,1.464,1.433,3.132,2.992,3.317 c1.504,0.179,2.723-1.138,3.648-2.336c6.184-8.008,11.904-16.373,17.123-25.04L193.984,63.786z"/><path style="fill:#fff" d="M329.407,59.968c4.646,8.315,10.552,15.924,17.455,22.487c1.137,1.081,2.638,2.215,4.125,1.714 c1.435-0.483,1.972-2.195,2.294-3.675c2.153-9.885,3.734-19.895,4.734-29.963L329.407,59.968z"/><path style="fill:#fff" d="M247.428,69.739c2.198,9.267,5.801,18.201,10.648,26.4c0.799,1.351,1.932,2.851,3.5,2.776 c1.513-0.073,2.497-1.573,3.211-2.909c4.772-8.921,9.027-18.118,12.738-27.531L247.428,69.739z"/><path style="fill:#fff" d="M290.644,66.844c3.38,8.905,8.109,17.296,13.978,24.798c0.967,1.236,2.285,2.577,3.83,2.299 c1.491-0.268,2.272-1.883,2.807-3.3c3.576-9.464,6.605-19.135,9.066-28.948L290.644,66.844z"/><g><path style="fill:#ffe6de" d="M341.486,76.872c4.447-1.346,8.957-2.468,13.414-3.778c0.386-0.113,0.221-0.718-0.167-0.604 c-4.457,1.311-8.967,2.433-13.414,3.778C340.935,76.385,341.098,76.989,341.486,76.872L341.486,76.872z"/></g><g><path style="fill:#ffe6de" d="M336.617,70.872c6.509-2.279,13.017-4.559,19.525-6.838c0.378-0.132,0.215-0.737-0.166-0.604 c-6.509,2.279-13.017,4.559-19.526,6.838C336.073,70.401,336.235,71.006,336.617,70.872L336.617,70.872z"/></g><g><path style="fill:#ffe6de" d="M331.771,63.637c8.726-1.522,17.27-3.943,25.497-7.225c0.37-0.148,0.208-0.753-0.166-0.604 c-8.227,3.282-16.771,5.703-25.497,7.225C331.208,63.102,331.376,63.705,331.771,63.637L331.771,63.637z"/></g><g><path style="fill:#ffe6de" d="M346.659,82.14c2.073-0.416,4.147-0.833,6.221-1.249c0.395-0.079,0.228-0.683-0.166-0.604 c-2.074,0.417-4.147,0.833-6.221,1.249C346.098,81.616,346.265,82.219,346.659,82.14L346.659,82.14z"/></g><g><path style="fill:#ffe6de" d="M252.094,70.813c1.016,7.414,2.511,14.752,4.478,21.972c0.106,0.388,0.71,0.223,0.604-0.166 c-1.967-7.22-3.462-14.558-4.478-21.972C252.644,70.25,252.04,70.419,252.094,70.813L252.094,70.813z"/></g><g><path style="fill:#ffe6de" d="M259.5,70.81c1.304,8.873,2.113,17.811,2.433,26.773c0.014,0.402,0.64,0.404,0.626,0 c-0.321-9.019-1.143-18.011-2.455-26.939C260.046,70.246,259.442,70.415,259.5,70.81L259.5,70.81z"/></g><g><path style="fill:#ffe6de" d="M266.479,69.324c0.254,6.097,0.829,12.173,1.717,18.21c0.058,0.397,0.662,0.228,0.604-0.166 c-0.88-5.981-1.443-12.003-1.695-18.044C267.089,68.922,266.462,68.92,266.479,69.324L266.479,69.324z"/></g><g><path style="fill:#ffe6de" d="M272.375,68.712c0.263,3.126,0.527,6.252,0.79,9.378c0.034,0.399,0.66,0.402,0.626,0 c-0.263-3.126-0.527-6.252-0.79-9.378C272.968,68.313,272.341,68.31,272.375,68.712L272.375,68.712z"/></g><g><path style="fill:#ffe6de" d="M154.543,81.237c4.422-1.218,8.845-2.436,13.267-3.653c0.388-0.107,0.223-0.711-0.166-0.604 c-4.422,1.218-8.845,2.435-13.267,3.653C153.989,80.74,154.153,81.344,154.543,81.237L154.543,81.237z"/></g><g><path style="fill:#ffe6de" d="M153.107,74.433c8.298-2.535,16.596-5.071,24.894-7.606c0.384-0.117,0.221-0.722-0.166-0.604 c-8.298,2.535-16.596,5.071-24.894,7.606C152.557,73.947,152.72,74.551,153.107,74.433L153.107,74.433z"/></g><g><path style="fill:#ffe6de" d="M152.861,66.826c6.483-2.221,12.966-4.441,19.449-6.662c0.379-0.13,0.216-0.735-0.166-0.604 c-6.483,2.221-12.966,4.441-19.449,6.662C152.315,66.352,152.478,66.957,152.861,66.826L152.861,66.826z"/></g><g><path style="fill:#ffe6de" d="M152.771,60.272c2.595-1.012,5.19-2.024,7.786-3.036c0.371-0.145,0.21-0.75-0.166-0.604 c-2.595,1.012-5.19,2.024-7.786,3.036C152.233,59.813,152.395,60.419,152.771,60.272L152.771,60.272z"/></g></g><path style="fill:#fff" d="M401.712,138.859l2.878-8.765l3.269,8.765c0,0,6.53,1.111,6.606,1.72 c0.074,0.595-6.25,2.46-6.25,2.46s-2.654,8.498-3.625,6.574c-0.971-1.925-1.912-6.185-1.912-6.185s-8.223-1.708-8.223-2.547 C394.455,139.971,401.712,138.859,401.712,138.859z"/><path style="fill:#fff" d="M117.823,224.112l2.878-8.765l3.269,8.765c0,0,6.53,1.111,6.606,1.72 c0.074,0.595-6.25,2.46-6.25,2.46s-2.654,8.498-3.625,6.574c-0.971-1.925-1.912-6.185-1.912-6.185s-8.223-1.708-8.223-2.547 C110.566,225.225,117.823,224.112,117.823,224.112z"/><path style="fill:#fff" d="M203.37,116.466l1.973-6.007l2.24,6.007c0,0,4.476,0.761,4.528,1.179 c0.051,0.408-4.284,1.686-4.284,1.686s-1.819,5.824-2.484,4.505c-0.665-1.319-1.31-4.239-1.31-4.239s-5.636-1.171-5.636-1.745 C198.397,117.229,203.37,116.466,203.37,116.466z"/><path style="fill:#fff" d="M299.508,46.069l1.973-6.007l2.24,6.007c0,0,4.476,0.761,4.528,1.179 c0.051,0.408-4.284,1.686-4.284,1.686s-1.819,5.824-2.484,4.505c-0.665-1.319-1.31-4.239-1.31-4.239s-5.636-1.171-5.636-1.745 C294.535,46.832,299.508,46.069,299.508,46.069z"/><path style="fill:#fff" d="M143.14,110.878c4.013,2.925,6.042,8.33,4.943,13.173c1.721,0.722,4.891-0.629,4.891-0.629 c0.929-1.618,0.772-4.936,0.457-6.775c-0.597-3.489-2.257-6.788-4.703-9.347L143.14,110.878z"/><path style="fill:#fff" d="M178.967,342.304c4.013,2.925,6.042,8.33,4.943,13.173c1.721,0.722,4.891-0.629,4.891-0.629 c0.929-1.618,0.772-4.936,0.457-6.775c-0.597-3.489-2.257-6.788-4.703-9.347L178.967,342.304z"/><path style="fill:#fff" d="M399.192,97.073c4.013,2.925,6.042,8.33,4.944,13.173c1.72,0.722,4.891-0.629,4.891-0.629 c0.929-1.618,0.772-4.936,0.457-6.775c-0.597-3.489-2.258-6.788-4.703-9.347L399.192,97.073z"/><path style="fill:#fff" d="M305.826,313.473c4.013,2.925,6.042,8.331,4.944,13.173c1.72,0.722,4.891-0.629,4.891-0.629 c0.929-1.618,0.772-4.936,0.457-6.775c-0.597-3.489-2.257-6.788-4.703-9.347L305.826,313.473z"/><path style="fill:#fff" d="M316.815,214.558c3.449-3.572,9.083-4.837,13.728-3.082c0.952-1.605,0.051-4.931,0.051-4.931 c-1.475-1.143-4.783-1.444-6.648-1.386c-3.538,0.111-7.035,1.301-9.906,3.371L316.815,214.558z"/><g><g><path style="fill:#fff" d="M232.962,220.408c3.758-9.472,4.404-20.653-0.508-29.581 c-4.779-8.686-14.447-14.238-25.158-10.223c-0.234,0.082-0.465,0.177-0.695,0.275c-0.068,0.028-0.135,0.051-0.202,0.08 l0.016-0.002c-3.114,1.39-5.808,4.172-7.62,7.158c-4.199,6.919-5.506,15.533-3.549,23.386 c1.957,7.853,7.153,14.846,14.107,18.986c3.291,1.959,7.147,3.317,10.926,2.695 C226.476,232.162,230.645,226.247,232.962,220.408z"/><path style="fill:#fff" d="M226.454,236.628c-1.641-1.36-3.365-2.619-5.16-3.767l-2.979,0.715 c-0.659,0.619-1.014,1.512-1.114,2.41c-0.1,0.898,0.037,1.807,0.242,2.687c0.168,0.723,0.492,1.546,1.211,1.731 c0.622,0.16,1.274-0.275,1.577-0.842c0.303-0.567,0.339-1.233,0.369-1.875c0.171,0.653,0.356,1.335,0.815,1.829 c0.459,0.495,1.282,0.722,1.818,0.312c0.435-0.333,0.534-0.973,0.382-1.499c-0.153-0.527-0.506-0.967-0.852-1.393 c0.898,0.812,2.066,1.321,3.272,1.426c0.363,0.032,0.789-0.001,1-0.299C227.364,237.598,226.893,236.993,226.454,236.628z"/></g><g><path style="fill:#ffe6de" d="M206.459,184.102c-6.047,4.606-9.831,12.693-8.612,20.325c0.105,0.656,1.244,0.51,1.171-0.159 c-0.802-7.383,2.493-14.643,7.783-19.723C207.026,184.33,206.719,183.904,206.459,184.102L206.459,184.102z"/></g><g><path style="fill:#ffe6de" d="M198.071,207.155c0.034,0.562-0.088,1.148-0.109,1.713c-0.033,0.921,1.508,0.782,1.277-0.173 c-0.132-0.544-0.368-1.087-0.446-1.638C198.735,206.648,198.046,206.743,198.071,207.155L198.071,207.155z"/></g><g><path style="fill:#ffe6de" d="M217.002,233.97c1.947,0.93,4.31,0.569,6.131-0.493c0.678-0.395,0.081-1.393-0.611-1.045 c-1.747,0.88-3.415,0.947-5.325,0.82C216.823,233.227,216.659,233.806,217.002,233.97L217.002,233.97z"/></g><g><path style="fill:#ffe6de" d="M200.053,221.575c4.795,3.195,12.019,3.277,17.511,2.449c6.33-0.954,12.072-3.621,16.928-7.76 c0.424-0.362-0.186-0.957-0.609-0.609c-4.617,3.806-10.221,6.334-16.123,7.297c-6.228,1.016-11.606-0.466-17.68-1.443 C200.041,221.503,200.017,221.551,200.053,221.575L200.053,221.575z"/></g><g><path style="fill:#ffe6de" d="M194.765,207.627c12.729,4.472,29.589,2.028,40.883-5.256c0.419-0.27,0.054-0.889-0.389-0.666 c-6.334,3.189-12.556,5.77-19.646,6.702c-7.02,0.923-13.85,0.176-20.793-0.978C194.69,207.407,194.638,207.583,194.765,207.627 L194.765,207.627z"/></g><g><path style="fill:#ffe6de" d="M196.821,192.54c10.309,4.257,23.878,0.237,32.34-6.172c0.304-0.23,0.026-0.748-0.308-0.526 c-4.643,3.086-9.892,5.316-15.373,6.38c-5.727,1.111-10.891,0.348-16.604-0.087C196.623,192.115,196.625,192.459,196.821,192.54 L196.821,192.54z"/></g></g><g><g><path style="fill:#fff" d="M115.972,193.297c8.767-5.194,16.119-13.643,17.695-23.71 c1.533-9.794-2.718-20.101-13.647-23.478c-0.236-0.078-0.476-0.145-0.718-0.208c-0.07-0.019-0.138-0.042-0.209-0.06l0.014,0.008 c-3.314-0.805-7.146-0.253-10.407,1.001c-7.554,2.904-13.858,8.919-17.114,16.328c-3.256,7.409-3.424,16.12-0.456,23.649 c1.405,3.563,3.625,6.996,6.994,8.816C103.651,198.627,110.568,196.498,115.972,193.297z"/><path style="fill:#fff" d="M100.901,202.147c-0.466-2.079-1.06-4.13-1.777-6.137l-2.794-1.257 c-0.9,0.087-1.727,0.576-2.355,1.225c-0.628,0.649-1.076,1.451-1.452,2.273c-0.309,0.675-0.557,1.524-0.101,2.111 c0.394,0.507,1.176,0.562,1.762,0.299c0.586-0.263,1.023-0.768,1.439-1.257c-0.264,0.621-0.534,1.274-0.474,1.946 c0.06,0.672,0.572,1.356,1.247,1.359c0.548,0.003,1.018-0.443,1.219-0.952c0.201-0.51,0.191-1.075,0.178-1.623 c0.214,1.192,0.826,2.309,1.716,3.129c0.268,0.247,0.625,0.482,0.973,0.375C101.029,203.47,101.026,202.703,100.901,202.147z"/></g><g><path style="fill:#ffe6de" d="M117.218,148.364c-7.601-0.056-15.542,4.026-19.246,10.809c-0.319,0.583,0.672,1.165,1.023,0.591 c3.882-6.331,10.93-10.058,18.222-10.84C117.527,148.891,117.544,148.366,117.218,148.364L117.218,148.364z"/></g><g><path style="fill:#ffe6de" d="M96.48,161.468c-0.317,0.466-0.772,0.854-1.134,1.289c-0.59,0.708,0.715,1.541,1.116,0.644 c0.228-0.511,0.374-1.085,0.649-1.569C97.315,161.473,96.712,161.127,96.48,161.468L96.48,161.468z"/></g><g><path style="fill:#ffe6de" d="M95.051,194.261c0.971,1.927,3.061,3.087,5.151,3.36c0.778,0.102,0.916-1.053,0.156-1.2 c-1.92-0.372-3.28-1.34-4.714-2.609C95.364,193.564,94.88,193.922,95.051,194.261L95.051,194.261z"/></g><g><path style="fill:#ffe6de" d="M89.226,174.088c1.839,5.461,7.503,9.945,12.353,12.65c5.591,3.118,11.765,4.521,18.138,4.218 c0.557-0.027,0.438-0.871-0.109-0.854c-5.981,0.186-11.96-1.243-17.217-4.091c-5.549-3.006-8.896-7.469-13.103-11.958 C89.261,174.024,89.212,174.047,89.226,174.088L89.226,174.088z"/></g><g><path style="fill:#ffe6de" d="M93.576,159.82c7.333,11.325,22.166,19.705,35.556,20.853c0.496,0.043,0.586-0.67,0.099-0.765 c-6.962-1.352-13.462-3.117-19.641-6.718c-6.118-3.565-11.063-8.333-15.85-13.494C93.651,159.599,93.503,159.707,93.576,159.82 L93.576,159.82z"/></g><g><path style="fill:#ffe6de" d="M104.432,149.142c5.551,9.674,18.744,14.795,29.358,14.902c0.382,0.004,0.479-0.576,0.079-0.605 c-5.561-0.399-11.077-1.846-16.064-4.358c-5.21-2.624-8.828-6.387-13.081-10.227 C104.535,148.686,104.326,148.958,104.432,149.142L104.432,149.142z"/></g></g><g><g><path style="fill:#fff" d="M376.85,317.876c10.503-5.503,19.558-14.876,22.001-26.479 c2.376-11.288-1.939-23.523-14.434-28.11c-0.269-0.105-0.544-0.197-0.822-0.285c-0.081-0.027-0.158-0.057-0.239-0.083 l0.016,0.01c-3.802-1.136-8.289-0.727-12.154,0.532c-8.954,2.917-16.644,9.523-20.878,17.935 c-4.233,8.412-4.957,18.524-1.965,27.453c1.416,4.226,3.788,8.349,7.593,10.669C362.21,323.322,370.376,321.268,376.85,317.876z"/><path style="fill:#fff" d="M358.8,327.245c-0.415-2.444-0.981-4.864-1.693-7.239l-3.17-1.63 c-1.05,0.046-2.042,0.564-2.811,1.281c-0.77,0.716-1.339,1.621-1.826,2.553c-0.4,0.766-0.739,1.738-0.245,2.446 c0.427,0.613,1.333,0.724,2.03,0.454c0.697-0.27,1.235-0.83,1.749-1.374c-0.345,0.706-0.698,1.448-0.669,2.233 c0.029,0.785,0.583,1.61,1.367,1.655c0.637,0.036,1.209-0.453,1.474-1.033c0.265-0.58,0.288-1.238,0.306-1.875 c0.176,1.398,0.82,2.733,1.804,3.741c0.297,0.304,0.697,0.598,1.109,0.495C358.868,328.791,358.911,327.9,358.8,327.245z"/></g><g><path style="fill:#ffe6de" d="M380.964,265.732c-8.739-0.532-18.279,3.747-22.932,11.345c-0.472,0.77,0.698,1.428,1.198,0.7 c4.851-7.056,13.299-10.935,21.734-11.388C381.387,266.366,381.387,265.758,380.964,265.732L380.964,265.732z"/></g><g><path style="fill:#ffe6de" d="M356.085,279.77c-0.189,0.249-0.449,0.44-0.675,0.654c-0.223,0.211-0.429,0.444-0.638,0.67 c-0.306,0.332-0.291,0.845,0.077,1.129c0.338,0.261,0.902,0.195,1.111-0.212c0.158-0.307,0.322-0.615,0.455-0.934 c0.125-0.301,0.232-0.6,0.408-0.876C357.128,279.726,356.408,279.344,356.085,279.77L356.085,279.77z"/></g><g><path style="fill:#ffe6de" d="M352.517,317.807c0.967,2.222,3.36,3.707,5.685,4.123c0.878,0.157,1.268-1.141,0.374-1.358 c-2.212-0.538-3.77-1.735-5.355-3.309C352.836,316.881,352.324,317.364,352.517,317.807L352.517,317.807z"/></g><g><path style="fill:#ffe6de" d="M346.935,293.929c1.797,6.466,8.073,11.981,13.552,15.438c6.281,3.963,13.419,5.986,20.82,6.017 c0.645,0.003,0.645-0.988,0-1.001c-7.146-0.148-14.163-2.253-20.211-6.059c-6.106-3.842-9.56-9.073-14.092-14.435 C346.977,293.855,346.924,293.891,346.935,293.929L346.935,293.929z"/></g><g><path style="fill:#ffe6de" d="M352.852,277.609c7.77,13.569,24.578,24.294,40.018,26.386c0.552,0.075,0.817-0.72,0.238-0.865 c-8.02-2.014-15.488-4.437-22.476-9.014c-6.905-4.522-12.337-10.369-17.592-16.653 C352.951,277.357,352.786,277.493,352.852,277.609L352.852,277.609z"/></g><g><path style="fill:#ffe6de" d="M366.111,265.853c5.84,11.608,20.954,18.363,33.283,19.116c0.465,0.028,0.441-0.655,0-0.709 c-6.572-0.813-13.057-2.93-18.777-6.285c-5.675-3.328-9.567-7.847-14.129-12.413 C366.289,265.364,365.991,265.615,366.111,265.853L366.111,265.853z"/></g></g><g><g><path style="fill:#fff" d="M429.129,208.785c3.447-10.477,3.189-22.703-3.214-32.263 c-6.229-9.3-17.763-14.997-29.634-10.216c-0.26,0.098-0.515,0.21-0.769,0.326c-0.075,0.033-0.149,0.061-0.224,0.095l0.018-0.003 c-3.431,1.634-6.259,4.77-8.062,8.097c-4.177,7.708-4.903,17.157-1.969,25.654c2.933,8.497,9.489,15.934,17.797,20.192 c3.932,2.015,8.455,3.352,12.715,2.532C422.771,221.854,427.004,215.243,429.129,208.785z"/><path style="fill:#fff" d="M423.143,226.73c-1.994-1.423-4.075-2.732-6.227-3.918l-3.337,0.891 c-0.697,0.7-1.023,1.688-1.057,2.671c-0.034,0.984,0.203,1.97,0.515,2.923c0.257,0.782,0.7,1.669,1.537,1.844 c0.725,0.152,1.43-0.348,1.725-0.978c0.295-0.63,0.278-1.358,0.255-2.06c0.253,0.706,0.526,1.443,1.094,1.966 c0.568,0.523,1.528,0.74,2.103,0.273c0.467-0.38,0.523-1.082,0.302-1.65c-0.221-0.569-0.664-1.037-1.096-1.488 c1.098,0.853,2.476,1.364,3.862,1.434c0.418,0.021,0.901-0.031,1.115-0.363C424.269,227.753,423.677,227.111,423.143,226.73z"/></g><g><path style="fill:#ffe6de" d="M395.545,170.141c-6.568,5.24-10.075,14.267-8.081,22.541c0.25,1.039,1.78,0.591,1.586-0.437 c-1.493-7.919,1.634-15.772,7.046-21.553C396.447,170.317,395.929,169.834,395.545,170.141L395.545,170.141z"/></g><g><path style="fill:#ffe6de" d="M388.043,195.747c0.039,0.285-0.037,0.583-0.055,0.869c-0.017,0.285-0.006,0.574-0.002,0.86 c0.008,0.54,0.48,0.953,1.016,0.881c0.491-0.066,0.938-0.604,0.746-1.119c-0.116-0.311-0.228-0.627-0.366-0.928 c-0.127-0.277-0.289-0.533-0.361-0.832C388.864,194.825,387.958,195.122,388.043,195.747L388.043,195.747z"/></g><g><path style="fill:#ffe6de" d="M412.039,224.27c2.231,1.053,5.015,0.587,7.057-0.694c0.912-0.572,0.109-1.943-0.843-1.442 c-1.948,1.027-3.798,1.098-5.946,1.145C411.815,223.29,411.538,224.034,412.039,224.27L412.039,224.27z"/></g></g><path style="fill:#fff" d="M370.035,160.444c0,1.424-1.155,2.579-2.579,2.579c-1.424,0-2.579-1.155-2.579-2.579 c0-1.424,1.155-2.579,2.579-2.579C368.88,157.865,370.035,159.02,370.035,160.444z"/><path style="fill:#fff" d="M399.192,247.232c0,1.424-1.155,2.579-2.579,2.579c-1.424,0-2.579-1.154-2.579-2.579 c0-1.424,1.155-2.579,2.579-2.579C398.038,244.653,399.192,245.807,399.192,247.232z"/><path style="fill:#fff" d="M265.462,39.597c0,1.424-1.155,2.579-2.579,2.579c-1.424,0-2.579-1.154-2.579-2.579 c0-1.424,1.155-2.579,2.579-2.579C264.308,37.018,265.462,38.173,265.462,39.597z"/><path style="fill:#fff" d="M231.337,341.309c0,1.424-1.155,2.579-2.579,2.579c-1.424,0-2.579-1.155-2.579-2.579 c0-1.424,1.155-2.579,2.579-2.579C230.183,338.73,231.337,339.884,231.337,341.309z"/><path style="fill:#fff" d="M93.113,270.375c0,1.424-1.154,2.579-2.579,2.579s-2.579-1.155-2.579-2.579 c0-1.424,1.155-2.579,2.579-2.579S93.113,268.951,93.113,270.375z"/><path style="fill:#fff" d="M162.288,195.679c0,1.424-1.154,2.579-2.579,2.579c-1.424,0-2.579-1.155-2.579-2.579 c0-1.424,1.155-2.579,2.579-2.579C161.134,193.1,162.288,194.254,162.288,195.679z"/><path style="fill:#fff" d="M126.549,110.199c0,1.424-1.155,2.579-2.579,2.579c-1.424,0-2.579-1.155-2.579-2.579 c0-1.424,1.155-2.579,2.579-2.579C125.394,107.62,126.549,108.775,126.549,110.199z"/><path style="fill:#fff" d="M370.922,73.345c0,1.424-1.155,2.579-2.579,2.579c-1.424,0-2.579-1.155-2.579-2.579 c0-1.424,1.155-2.579,2.579-2.579C369.767,70.766,370.922,71.92,370.922,73.345z"/><path style="fill:#fff" d="M174.929,261.831c0,1.424-1.155,2.579-2.579,2.579c-1.424,0-2.579-1.155-2.579-2.579 c0-1.424,1.155-2.579,2.579-2.579C173.775,259.252,174.929,260.406,174.929,261.831z"/><circle style="fill:#fff" cx="172.351" cy="224.489" r="2.579"/><circle style="fill:#fff" cx="285.2" cy="104.556" r="2.579"/></g></g><g id="Speech_Bubbles"><g><g><g><path style="fill:#a0d2f4" d="M376.297,125.519c3.383-5.125,4.88-14.071,2.992-20.681c-2.378-8.324-7.652-15.528-18.278-18.488 c-8.34-2.323-17.67-0.566-24.512,4.739c-6.747,5.231-11.272,15.005-9.723,24.09c0,0-9.151,5.852-7.962,7.932 c0.313,1.184,8.247,0.826,11.228,0.087l-0.022-0.083c3.847,7.638,11.137,14.823,23.132,15.13 C362.11,138.474,370.072,134.95,376.297,125.519z"/></g></g><g><g><g><path style="fill:#8380ff" d="M354.792,96.958c-0.364-0.121-15.278-1.213-15.884,12.004 c-0.606,13.216,10.185,12.731,10.428,12.853c0.242,0.121-0.243,2.183,0.485,2.546c0.727,0.364,7.881,0.97,8.245,0 c0.364-0.97,0-2.546,0-2.546s10.376-0.604,9.821-13.58C367.402,96.885,354.792,96.958,354.792,96.958z"/></g><g><g><path style="fill:#421b36" d="M351.543,123.007c0.037-2.757,0.158-5.527,0.1-8.284c-0.041-1.946-0.654-4.293-2.788-4.893 c-1.754-0.493-3.246,0.897-3.52,2.565c-0.314,1.911,1.012,3.543,2.528,4.522c3.397,2.195,8.136,2,11.486-0.183 c1.566-1.021,3.289-2.716,3.065-4.757c-0.182-1.663-1.871-2.823-3.492-2.613c-2.356,0.305-2.923,3.067-3.272,4.985 c-0.543,2.98-0.785,6.005-0.738,9.033c0.01,0.636,0.999,0.638,0.989,0c-0.032-2.057,0.063-4.113,0.307-6.157 c0.208-1.743,0.369-3.771,1.125-5.383c0.695-1.482,2.519-2.131,3.693-0.718c1.22,1.47-0.356,3.358-1.51,4.279 c-2.519,2.01-6.085,2.587-9.136,1.606c-1.508-0.485-3.157-1.41-3.843-2.911c-0.583-1.276-0.017-3.566,1.753-3.377 c2.445,0.261,2.383,3.533,2.359,5.308c-0.031,2.326-0.063,4.651-0.095,6.977C350.545,123.644,351.534,123.644,351.543,123.007 L351.543,123.007z"/></g></g><g><g><path style="fill:#421b36" d="M332.926,118.502c1.204-0.602,2.409-1.203,3.613-1.805c0.239-0.119,0.306-0.457,0.177-0.677 c-0.142-0.243-0.437-0.297-0.677-0.177c-1.204,0.602-2.409,1.203-3.613,1.805c-0.239,0.119-0.306,0.457-0.177,0.677 C332.392,118.568,332.686,118.622,332.926,118.502L332.926,118.502z"/></g></g><g><g><path style="fill:#421b36" d="M336.223,105.236c-1.312-0.283-2.625-0.566-3.937-0.849c-0.261-0.056-0.535,0.078-0.608,0.345 c-0.068,0.247,0.083,0.552,0.345,0.608c1.312,0.283,2.625,0.566,3.937,0.849c0.261,0.056,0.535-0.078,0.608-0.345 C336.636,105.598,336.485,105.293,336.223,105.236L336.223,105.236z"/></g></g><g><g><path style="fill:#421b36" d="M368.389,116.889c1.338,0.666,2.676,1.332,4.013,1.999c0.239,0.119,0.536,0.064,0.677-0.177 c0.128-0.219,0.063-0.557-0.177-0.677c-1.338-0.666-2.676-1.332-4.013-1.999c-0.239-0.119-0.536-0.064-0.677,0.177 C368.084,116.432,368.149,116.77,368.389,116.889L368.389,116.889z"/></g></g><g><g><path style="fill:#421b36" d="M348.029,123.479c0,0,0.416,3.935,0.729,4.843c0.312,0.908,1.717,2.32,3.383,2.522 c1.665,0.202,3.591,0,3.591,0s2.29-0.505,2.758-2.775c0.468-2.27,0.772-4.449,0.772-4.449 C358.597,123.105,347.937,122.659,348.029,123.479z"/></g><g><g><path style="fill:#8380ff" d="M348.211,126.11c3.54,0.556,7.137,0.574,10.683,0.064c0.628-0.09,0.361-1.043-0.263-0.954 c-3.355,0.482-6.808,0.462-10.157-0.065C347.851,125.059,347.583,126.012,348.211,126.11L348.211,126.11z"/></g></g><g><g><path style="fill:#8380ff" d="M348.813,128.792c3.156,0.815,6.482,0.83,9.647,0.048c0.618-0.153,0.356-1.107-0.263-0.954 c-2.993,0.74-6.135,0.723-9.121-0.048C348.46,127.679,348.197,128.633,348.813,128.792L348.813,128.792z"/></g></g></g><g><g><path style="fill:#421b36" d="M345.295,96.191c-0.755-1.258-1.511-2.516-2.266-3.774c-0.327-0.545-1.183-0.048-0.854,0.499 c0.755,1.258,1.511,2.516,2.266,3.774C344.768,97.236,345.624,96.739,345.295,96.191L345.295,96.191z"/></g></g><g><g><path style="fill:#421b36" d="M360.654,96.161c0.679-1.081,1.358-2.163,2.037-3.244c0.142-0.226,0.048-0.545-0.177-0.677 c-0.238-0.139-0.534-0.049-0.677,0.177c-0.679,1.081-1.358,2.163-2.037,3.244c-0.142,0.226-0.048,0.545,0.177,0.677 C360.215,96.477,360.512,96.387,360.654,96.161L360.654,96.161z"/></g></g><g><g><path style="fill:#421b36" d="M369.78,105.225c1.264-0.231,2.527-0.462,3.791-0.694c0.263-0.048,0.412-0.367,0.346-0.609 c-0.076-0.276-0.345-0.394-0.609-0.345c-1.264,0.231-2.527,0.463-3.791,0.694c-0.263,0.048-0.412,0.367-0.345,0.608 C369.248,105.156,369.516,105.273,369.78,105.225L369.78,105.225z"/></g></g></g></g></g><g><g><g><path style="fill:#a0d2f4" d="M324.388,270.25c5.238,0.69,12.722-1.516,17.126-5.464c5.546-4.971,9.136-11.761,7.43-21.096 c-1.339-7.326-6.209-13.884-12.886-17.183c-6.585-3.253-15.849-3.077-22.296,1.538c0,0-7.97-4.879-9.131-3.177 c-0.798,0.688,2.463,6.691,4.156,8.72l0.056-0.048c-4.463,5.849-7.28,14.192-3.006,23.588 C309.029,264.146,314.75,268.98,324.388,270.25z"/></g></g><g><g><g><g><path style="fill:#8380ff" d="M339.728,241.576c-1.037-0.162-4.295,0.129-4.295,0.129l-0.733-0.929 c0,0,2.191-3.696,1.655-4.405c-0.536-0.709-4.386-2.961-5.028-2.683c-0.643,0.278-2.571,2.995-2.571,2.995l-1.35-0.179 c0,0-0.525-3.741-2.046-3.669c-1.52,0.073-4.503,1.059-5.099,1.444c-0.596,0.385,0.3,4.043,0.3,4.043l-0.984,0.787 l-0.423-0.203c0,0-2.924-1.827-3.759-1.201c-0.835,0.627-2.819,4.699-2.663,5.221c0.157,0.522,3.206,2.715,3.206,2.715 l-0.23,1.044c0,0-3.446,1.044-3.602,2.036c-0.157,0.992,0.47,5.064,1.514,5.169c1.044,0.104,4.281-0.365,4.281-0.365 l0.783,0.887c0,0-1.984,3.811-1.41,4.49c0.574,0.679,4.542,2.715,5.168,2.402c0.627-0.313,2.402-3.133,2.402-3.133 l1.357,0.104c0,0,0.731,3.707,2.245,3.55c1.514-0.157,4.438-1.305,5.012-1.723c0.574-0.418-0.522-4.02-0.522-4.02l0.992-0.888 c0,0,2.924,1.775,4.02,1.044c1.096-0.731,2.871-4.176,2.61-4.698c-0.261-0.522-2.924-2.715-2.924-2.715l0.014-0.278 c0.925-0.258,3.139-0.952,3.306-1.727C341.166,245.839,340.765,241.738,339.728,241.576z M326.546,251.949 c-2.605,0-4.717-2.112-4.717-4.717c0-2.605,2.112-4.717,4.717-4.717s4.717,2.112,4.717,4.717 C331.263,249.837,329.151,251.949,326.546,251.949z"/></g></g></g></g></g><g><g><g><path style="fill:#a0d2f4" d="M167.539,137.808c-3.665,4.016-6.207,11.632-5.467,17.673 c0.932,7.607,4.551,14.634,13.436,18.688c6.973,3.181,15.375,2.93,22.09-0.766c6.622-3.645,11.926-11.568,11.824-19.727 c0,0,8.81-3.857,8.056-5.839c-0.111-1.078-7.098-1.859-9.807-1.623l0.008,0.075c-2.311-7.21-7.697-14.499-18.143-16.42 C181.732,128.434,174.283,130.418,167.539,137.808z"/></g></g><g><g><path style="fill:#8380ff" d="M196.72,167.531c0.093-1.549-2.848-7.859-10.097-7.977c-6.418-0.104-10.412,2.74-12.042,8.52 c0,0,3.816,3.184,11.637,2.643C194.041,170.177,196.72,167.531,196.72,167.531z"/></g></g><g><g><path style="fill:#8380ff" d="M192.525,152.123c-0.836,5.406-4.796,6.358-8.886,6.062c-4.09-0.296-5.861-3.39-5.591-7.111 c0.269-3.72,3.47-6.52,7.56-6.224C189.697,145.146,193.095,148.436,192.525,152.123z"/></g></g><g><g><path style="fill:#8380ff" d="M176.904,157.422c0.047-0.793-1.458-4.024-5.17-4.084c-3.286-0.053-5.331,1.403-6.166,4.363 c0,0,1.954,1.63,5.959,1.353C175.533,158.777,176.904,157.422,176.904,157.422z"/></g></g><g><g><path style="fill:#8380ff" d="M174.934,149.532c-0.428,2.768-2.456,3.256-4.55,3.104c-2.094-0.152-3.001-1.736-2.863-3.641 c0.138-1.905,1.777-3.339,3.871-3.187C173.487,145.96,175.226,147.645,174.934,149.532z"/></g></g><g><g><path style="fill:#8380ff" d="M205.911,157.934c0.055-0.915-1.682-4.643-5.964-4.712c-3.791-0.062-6.15,1.619-7.113,5.033 c0,0,2.254,1.881,6.874,1.561C204.328,159.497,205.911,157.934,205.911,157.934z"/></g></g><g><g><path style="fill:#8380ff" d="M203.638,148.832c-0.494,3.193-2.833,3.756-5.249,3.581c-2.416-0.175-3.462-2.003-3.303-4.2 c0.159-2.198,2.05-3.852,4.466-3.677C201.968,144.711,203.975,146.654,203.638,148.832z"/></g></g></g><g><g><path style="fill:#a0d2f4" d="M376.747,212.621c5.169-1.091,11.494-5.661,14.334-10.848c3.577-6.532,4.705-14.129-0.008-22.366 c-3.699-6.464-10.472-11.03-17.866-11.92c-7.292-0.878-15.97,2.368-20.515,8.865c0,0-9.139-1.951-9.668,0.04 c-0.524,0.914,4.548,5.491,6.819,6.842l0.036-0.064c-2.264,7-2.146,15.806,5.009,23.245 C360.232,211.972,367.235,214.629,376.747,212.621z"/></g><g><path style="fill:#8380ff" d="M376.427,186.859c0,0-0.396,7.53,0.515,9.957c0.608,1.619,6.964,1.051,7.025,0.438 c0.242-2.448-0.405-8.961-0.506-10.723C383.347,184.561,376.426,184.73,376.427,186.859z"/></g><g><path style="fill:#8380ff" d="M366.499,180.832c0,0,0.303,13.958,1.215,16.385c0.608,1.619,6.964,1.051,7.025,0.438 c0.242-2.448-0.405-15.138-0.506-16.9C374.119,178.784,366.499,178.702,366.499,180.832z"/></g><g><path style="fill:#8380ff" d="M358.147,193.029c0,0-0.446,2.149,0.465,4.576c0.608,1.619,6.964,1.051,7.025,0.438 c0.242-2.448,0.345-3.328,0.243-5.091C365.767,190.981,358.147,190.899,358.147,193.029z"/></g></g></g><g id="Podium"><g><g><ellipse style="fill:#421b36" cx="265.706" cy="469.665" rx="88.223" ry="18.653"/></g><g><path style="fill:#421b36" d="M177.483,451.853c0,0-2.872,13.076,0,17.812c2.872,4.736,176.446,0,176.446,0 s3.198-12.822,0-17.812C350.731,446.863,177.483,451.853,177.483,451.853z"/></g><g><ellipse style="fill:#421b36" cx="265.706" cy="451.853" rx="88.223" ry="18.653"/><path style="fill:#8380ff" d="M265.706,470.902c-49.693,0-88.619-8.367-88.619-19.048c0-10.682,38.926-19.049,88.619-19.049 c49.693,0,88.619,8.367,88.619,19.049C354.325,462.535,315.399,470.902,265.706,470.902z M265.706,433.596 c-23.539,0-45.664,1.937-62.302,5.455c-16.222,3.429-25.526,8.096-25.526,12.802s9.304,9.372,25.526,12.802 c16.638,3.517,38.763,5.454,62.302,5.454c23.539,0,45.665-1.937,62.301-5.454c16.222-3.43,25.526-8.096,25.526-12.802 s-9.304-9.373-25.526-12.802C311.371,435.533,289.245,433.596,265.706,433.596z"/></g></g><g><path style="fill:#421b36" d="M331.622,433.545c-2.387-3.724-131.687,0-131.687,0s-2.144,9.759,0,13.293 c0,7.688,29.479,13.921,65.843,13.921c36.364,0,65.844-6.233,65.844-13.921C331.622,446.838,334.008,437.269,331.622,433.545z"/><path style="fill:#8380ff" d="M265.779,461.155c-36.973,0-65.973-6.23-66.237-14.206c-2.11-3.696-0.081-13.087,0.007-13.489 l0.066-0.301l0.309-0.009c0.323-0.009,32.701-0.937,64.954-1.397c65.461-0.937,66.636,0.891,67.077,1.579l0,0 c2.39,3.729,0.261,12.741,0.063,13.556C331.897,454.892,302.845,461.155,265.779,461.155z M200.259,433.931 c-0.333,1.658-1.818,9.682,0.014,12.701l0.057,0.095v0.111c0,7.331,29.972,13.525,65.448,13.525 c35.476,0,65.447-6.194,65.447-13.525l0.012-0.096c0.024-0.094,2.315-9.432,0.056-12.976 C328.792,431.196,251.696,432.453,200.259,433.931z"/></g><g><ellipse style="fill:#421b36" cx="265.778" cy="433.545" rx="65.843" ry="13.921"/><path style="fill:#8380ff" d="M265.779,447.862c-37.143,0-66.239-6.288-66.239-14.316c0-8.028,29.096-14.317,66.239-14.317 c37.143,0,66.239,6.289,66.239,14.317C332.017,441.573,302.922,447.862,265.779,447.862z M265.779,420.019 c-35.476,0-65.448,6.194-65.448,13.526c0,7.331,29.972,13.525,65.448,13.525c35.476,0,65.447-6.194,65.447-13.525 C331.226,426.213,301.255,420.019,265.779,420.019z"/></g><g><g><path style="fill:#8380ff" d="M244.539,427.97c0,0.063,0,0.127,0,0.19c0,0.506,0,1.013,0,1.52 c1.05,0.297,1.132-0.553,1.126-1.377C245.257,428.182,244.898,428.076,244.539,427.97z"/></g><g><path style="fill:#8380ff" d="M244.539,437.278c0,0.169,0,0.338,0,0.507c0.273,0.066,0.555,0.131,0.838,0.195 c-0.053-0.193-0.107-0.387-0.16-0.579C244.965,437.355,244.752,437.316,244.539,437.278z"/></g><g><path style="fill:#8380ff" d="M244.539,434.239c0.308,0.065,0.615,0.116,0.955-0.085c-0.06-0.422-0.1-0.818-0.125-1.269 c-0.291-0.058-0.561-0.111-0.831-0.165C244.539,433.225,244.539,433.732,244.539,434.239z"/></g><g><path style="fill:#8380ff" d="M293.643,430.573c-0.468-0.076-0.956-0.155-1.448-0.235c-0.235,0.173-0.461,0.339-0.675,0.496 C291.435,432.922,294.408,432.564,293.643,430.573z"/></g><g><path style="fill:#8380ff" d="M301.716,434.639c-1.113,0.614-1.08,1.948-0.244,2.121c0.38-0.13,0.744-0.262,1.089-0.397 C303.014,435.685,302.618,434.772,301.716,434.639z"/></g><g><path style="fill:#8380ff" d="M264.168,426.755c0.379,1.155,1.575,0.961,2.253,0.12 C265.845,425.584,264.397,425.025,264.168,426.755z"/></g><g><path style="fill:#8380ff" d="M254.809,428.282c-0.319-0.223-0.503-0.318-0.799-0.435 C251.096,428.872,255.055,431.675,254.809,428.282z"/></g><g><path style="fill:#8380ff" d="M266.586,433.497c0.482,0.594,0.482,0.594,0.611,1.122c0.79,0.001,1.163-0.462,1.513-1.012 C268.287,432.503,266.889,432.116,266.586,433.497z"/></g><g><path style="fill:#8380ff" d="M298.985,434.134c-0.015,0.174-0.026,0.317-0.043,0.529c0.673,0.002,0.915-0.593,1.417-0.747 c0-0.349,0-0.657,0-0.992c-0.77-0.781-1.903-0.306-2.001,0.734C298.563,433.814,298.78,433.978,298.985,434.134z"/></g><g><path style="fill:#8380ff" d="M283.494,432.212c1.089-0.083,1.201-1.168,0.399-1.766 C282.743,429.916,281.525,432.253,283.494,432.212z"/></g><g><path style="fill:#8380ff" d="M291.503,435.426c-0.174,1.169,1.477,2.163,1.962,0.755 C293.98,435.016,292.167,434.671,291.503,435.426z"/></g><g><path style="fill:#8380ff" d="M274.235,439.261c-0.31,0.267-0.975,0.618-0.759,1.118c0.638-0.009,1.27-0.021,1.899-0.037 C275.152,439.957,274.608,439.58,274.235,439.261z"/></g><g><path style="fill:#8380ff" d="M285.996,425.271c-0.274-0.027-0.546-0.056-0.824-0.081 C285.415,425.319,285.714,425.342,285.996,425.271z"/></g><g><path style="fill:#8380ff" d="M302.548,431.67c0.713-1.57-1.781-1.81-1.74-0.178 C301.119,432.502,302.051,432.644,302.548,431.67z"/></g><g><path style="fill:#8380ff" d="M259.214,425.026c-0.42,0.033-0.835,0.068-1.248,0.104 C258.606,425.472,258.794,425.455,259.214,425.026z"/></g><g><path style="fill:#8380ff" d="M263.713,428.188c-1.057-1.122-2.15,0.983-1.147,1.493c0.588,0.174,1.308,0.48,1.511-0.457 C263.69,428.968,263.756,428.562,263.713,428.188z"/></g><g><path style="fill:#8380ff" d="M275.691,438.119c0.305,0.295,0.462,0.582,0.625,0.947c0.42,0.397,1.114-0.129,1.094-0.641 C277.831,436.844,275.94,436.517,275.691,438.119z"/></g><g><path style="fill:#8380ff" d="M264.356,431.229c-0.259,1.492,1.954,1.048,2.028-0.122 C266.088,430.181,264.474,430.272,264.356,431.229z"/></g><g><path style="fill:#8380ff" d="M288.169,436.982c0.278-0.301,0.532-0.576,0.815-0.883c-0.16-0.668-0.372-1.21-1.008-1.414 C286.524,435.044,287.165,436.513,288.169,436.982z"/></g><g><path style="fill:#8380ff" d="M254.065,439.036c0.332-0.156,0.587-0.266,0.863-0.452c0.244-1.725-2.344-2.052-1.813-0.019 C253.468,438.74,253.775,438.893,254.065,439.036z"/></g><g><path style="fill:#8380ff" d="M256.179,425.535c-0.376,0.299-0.665,0.53-0.936,0.746c-0.272,1.166,0.931,1.308,1.757,1.123 C257.671,426.423,256.737,426.209,256.179,425.535z"/></g><g><path style="fill:#8380ff" d="M298.323,431.697c-0.127-1.657-1.695-1.892-2.057-0.188c0.222,0.4,0.57,0.581,0.944,0.663 C297.568,432.02,297.884,431.884,298.323,431.697z"/></g><g><path style="fill:#8380ff" d="M297.85,427.378c0.037-0.065,0.065-0.126,0.093-0.188c-0.563-0.138-1.152-0.27-1.757-0.398 c-0.013,0.087-0.027,0.185-0.039,0.269C297.181,427.716,297.181,427.716,297.85,427.378z"/></g><g><path style="fill:#8380ff" d="M291.499,426.963c0.607,0.955,1.868,0.866,2.036-0.317c-0.071-0.13-0.145-0.266-0.219-0.403 c-0.436-0.075-0.88-0.147-1.332-0.218C291.746,426.226,291.614,426.547,291.499,426.963z"/></g><g><path style="fill:#8380ff" d="M287.379,426.026c-0.966,1.28,0.931,2.336,1.55,1.014 C289.025,425.988,288.317,425.442,287.379,426.026z"/></g><g><path style="fill:#8380ff" d="M289.883,434.421c1.788,0.542,1.57-2.262,0.011-1.771 C289.338,433.429,288.926,433.615,289.883,434.421z"/></g><g><path style="fill:#8380ff" d="M255.877,439.639c0.315,0.033,0.634,0.064,0.954,0.095 C256.581,439.338,256.22,439.406,255.877,439.639z"/></g><g><path style="fill:#8380ff" d="M260.243,436.687c0.549,0.163,0.881,0.328,1.436,0.148c-0.156-0.496-0.143-0.857-0.131-1.331 c-0.386-0.786-1.576-0.51-1.762,0.319C259.935,436.104,260.079,436.378,260.243,436.687z"/></g><g><path style="fill:#8380ff" d="M282.596,426.081c-0.365,1.901,1.76,1.668,2.035,0.362 C283.999,425.918,283.395,425.4,282.596,426.081z"/></g><g><path style="fill:#8380ff" d="M274.593,425.798c-0.888,0.424-1.378,0.128-1.052,1.428c0.093,0.274,0.419,0.208,0.664,0.24 c0.603,0.268,1.087,0.177,1.289-0.542C275.337,426.422,275.061,426.029,274.593,425.798z"/></g><g><path style="fill:#8380ff" d="M265.409,434.749c-1.296,0.466-1.447,1.555-0.199,1.969 C266.496,436.948,266.365,435.215,265.409,434.749z"/></g><g><path style="fill:#8380ff" d="M268.226,429.647c0.073-0.377,0.142-0.74,0.222-1.154c-0.159-0.145-0.337-0.307-0.53-0.485 c-0.509,0.252-1.178,0.08-1.487,0.793c0.253,0.377,0.489,0.731,0.722,1.079C267.561,430,267.877,429.762,268.226,429.647z"/></g><g><path style="fill:#8380ff" d="M263.342,438.952c0.414-0.237,0.437-0.683,0.55-1.077c-0.603-0.41-0.603-0.41-0.883-0.895 c-0.862-0.157-1.223,0.259-0.628,0.937C261.503,438.687,262.632,438.938,263.342,438.952z"/></g><g><path style="fill:#8380ff" d="M268.448,424.598c-0.595,0.01-1.186,0.023-1.772,0.04 C267.044,425.328,268.372,425.66,268.448,424.598z"/></g><g><path style="fill:#8380ff" d="M279.85,426.711c0.163-1.321-1.896-1.262-1.99-0.033 C278.393,427.74,279.379,427.898,279.85,426.711z"/></g><g><path style="fill:#8380ff" d="M250.532,426.84c0.284,0.359,0.556,0.655,1.031,0.743c0.275-0.148,0.577-0.308,0.872-0.466 c-0.068-0.512-0.013-0.61,0.139-1.2c-0.339-0.033-0.66-0.072-0.945-0.065c-0.136,0.02-0.276,0.038-0.411,0.058 C250.877,426.012,250.628,426.265,250.532,426.84z"/></g><g><path style="fill:#8380ff" d="M287.714,439.514c0.179-0.02,0.362-0.04,0.539-0.061 C288.09,439.428,287.908,439.444,287.714,439.514z"/></g><g><path style="fill:#8380ff" d="M269.723,425.794c-2.188,1.408,0.665,2.927,1.149,0.751 C270.576,426.199,270.281,425.88,269.723,425.794z"/></g><g><path style="fill:#8380ff" d="M281.906,424.927c-0.53-0.036-1.066-0.069-1.607-0.1 C280.708,425.631,281.493,425.45,281.906,424.927z"/></g><g><path style="fill:#8380ff" d="M285.309,438.778c1.081,0.395,1.823-1.114,0.864-1.789 C285.025,436.737,284.396,438.074,285.309,438.778z"/></g><g><path style="fill:#8380ff" d="M273.232,435.826c0.249,0.309,0.479,0.595,0.737,0.914c0.434-0.145,0.869-0.291,1.333-0.447 C275.679,434.375,274.152,434.771,273.232,435.826z"/></g><g><path style="fill:#8380ff" d="M261.57,426.17c-0.369,0.012-0.675,0.064-0.872-0.276c-0.515-0.375-1.077,0.368-0.937,0.918 C260.046,428.197,262.259,427.495,261.57,426.17z"/></g><g><path style="fill:#8380ff" d="M305.368,431.693c0.326,0.493,1.719,0.827,1.611-0.048c-0.194-0.406-0.53-0.802-0.992-1.187 C305.657,430.705,305.485,431.184,305.368,431.693z"/></g><g><path style="fill:#8380ff" d="M273.207,438.219c-0.066-0.828-1.57-1.581-1.855-0.597c-0.022,0.591,0.149,0.689,0.098,1.369 C272.08,439.059,272.65,438.716,273.207,438.219z"/></g><g><path style="fill:#8380ff" d="M272.249,428.304c-2.409-0.282,0.176,3.652,0.795,0.737 C273.094,428.518,272.663,428.43,272.249,428.304z"/></g><g><path style="fill:#8380ff" d="M282.792,439.975c0.491-0.037,0.977-0.076,1.458-0.117c-0.214-0.182-0.417-0.237-1.045-0.395 C283.006,439.636,282.873,439.809,282.792,439.975z"/></g><g><path style="fill:#8380ff" d="M290.509,427.951c-0.49,0.039-0.892,0.163-1.093,0.673c0.155,0.349,0.316,0.713,0.477,1.076 c0.446,0,0.851,0,1.274,0c0.099-0.25,0.189-0.478,0.292-0.743C291.106,428.582,290.805,428.264,290.509,427.951z"/></g><g><path style="fill:#8380ff" d="M264.013,424.757c-0.001-0.009-0.005-0.015-0.007-0.025c-0.641,0.029-1.274,0.062-1.902,0.098 C262.84,425.334,263.256,425.309,264.013,424.757z"/></g><g><path style="fill:#8380ff" d="M304.722,429.608c-0.464-0.261-0.989-0.516-1.572-0.763c-0.035,0.09-0.067,0.181-0.097,0.273 C303.673,430.15,304.384,430.041,304.722,429.608z"/></g><g><path style="fill:#8380ff" d="M283.713,436.852c0.339-0.364,0.791-0.671,0.89-1.299c-0.164-0.178-0.349-0.38-0.515-0.561 c-0.381,0-0.713,0-1.047,0c-0.134,0.287-0.274,0.581-0.432,0.918C282.919,436.221,282.98,436.88,283.713,436.852z"/></g><g><path style="fill:#8380ff" d="M277.508,424.695c-0.594-0.023-1.193-0.043-1.796-0.059 C276.17,425.757,277.299,425.457,277.508,424.695z"/></g><g><path style="fill:#8380ff" d="M245.99,427.202c0.459,0.032,0.967,0.166,1.365,0.376c0.411-0.33,0.501-0.722,0.403-1.085 c-0.63,0.12-1.246,0.243-1.837,0.372C245.93,426.964,245.951,427.074,245.99,427.202z"/></g><g><path style="fill:#8380ff" d="M258.35,434.653c0.895-0.069,0.72-0.691,0.805-1.323c0.015-0.753-0.854-0.517-1.382-0.612 c-0.164,0.272-0.322,0.535-0.552,0.917C257.891,433.775,258.032,434.31,258.35,434.653z"/></g><g><path style="fill:#8380ff" d="M284.841,434.05c0.195,0.209,0.405,0.434,0.592,0.633c0.377-0.117,0.644-0.199,0.921-0.285 c0.184-0.285,0.368-0.569,0.536-0.829C286.089,432.323,285.16,432.715,284.841,434.05z"/></g><g><path style="fill:#8380ff" d="M266.722,437.739c-0.282,0.633,0.448,1.428,1.21,1.397 C269.332,438.261,267.758,436.578,266.722,437.739z"/></g><g><path style="fill:#8380ff" d="M258.916,437.31c-0.655-0.408-1.006,0.06-1.448,0.565 C258.115,440.402,260.16,438.087,258.916,437.31z"/></g><g><path style="fill:#8380ff" d="M253.945,425.559c0.007-0.005,0.011-0.011,0.018-0.016c-0.015,0.002-0.029,0.004-0.045,0.006 C253.927,425.552,253.936,425.555,253.945,425.559z"/></g><g><path style="fill:#8380ff" d="M299.339,437.414c0.074-0.021,0.147-0.041,0.221-0.062c-0.01-0.003-0.017-0.007-0.027-0.01 C299.459,437.36,299.404,437.39,299.339,437.414z"/></g><g><path style="fill:#8380ff" d="M280.346,432.633c-0.256,1.135,0.737,2.116,1.611,1.404 C282.688,433.021,281.255,432.358,280.346,432.633z"/></g><g><path style="fill:#8380ff" d="M294.011,433.5c0.134,0.263,0.241,0.475,0.397,0.781 C297.297,434.852,294.835,430.711,294.011,433.5z"/></g><g><path style="fill:#8380ff" d="M300.733,428.909c-0.793-0.654-1.852-1.052-2.211,0.192 C298.793,430.52,300.122,429.823,300.733,428.909z"/></g><g><path style="fill:#8380ff" d="M287.659,432.198c0.959,0.205,1.253-0.392,1.305-1.262c-0.234-0.218-0.458-0.427-0.701-0.652 C287.09,430.696,287.024,431.35,287.659,432.198z"/></g><g><path style="fill:#8380ff" d="M270.548,436.486c0.007-0.426,0.066-0.659,0.184-1.104 C268.762,433.422,268.367,437.629,270.548,436.486z"/></g><g><path style="fill:#8380ff" d="M298.258,435.75c-0.178-0.073-0.369-0.151-0.556-0.229c-0.013-0.128-0.025-0.246-0.043-0.407 c-0.311-0.039-0.602-0.103-0.897-0.192c-0.351,0.343-0.383,0.781-0.504,1.141C296.735,437.129,297.899,436.8,298.258,435.75z"/></g><g><path style="fill:#8380ff" d="M282.361,438.25c-0.119-0.516-0.539-0.751-0.924-1.11 C279.074,438.007,281.086,439.827,282.361,438.25z"/></g><g><path style="fill:#8380ff" d="M286.26,429.661c0.1-0.342,0.258-0.591,0.481-0.907 C285.192,426.318,283.894,430.643,286.26,429.661z"/></g><g><path style="fill:#8380ff" d="M265.427,439.43c-0.595,0.183-0.904,0.483-0.96,0.825c0.566,0.024,1.136,0.045,1.711,0.062 C266.146,439.982,265.928,439.639,265.427,439.43z"/></g><g><path style="fill:#8380ff" d="M270.705,439.749c-0.644-0.673-1.267,0.013-1.84,0.435c0.002,0.071,0.012,0.13,0.019,0.193 c0.595,0.008,1.194,0.014,1.797,0.016C270.748,440.195,270.766,439.977,270.705,439.749z"/></g><g><path style="fill:#8380ff" d="M271.734,425.273c0.675,0.062,0.759-0.413,1.05-0.632c0.028-0.019,0.047-0.04,0.069-0.059 c-0.539-0.005-1.08-0.009-1.625-0.009c-0.019,0-0.038,0-0.057,0C271.106,424.901,271.384,425.138,271.734,425.273z"/></g><g><path style="fill:#8380ff" d="M280.088,435.887c-0.696-1.064-0.782-1.108-1.649-0.896c-0.191,0.573-0.151,1.137,0.047,1.801 C279.05,436.499,279.618,436.349,280.088,435.887z"/></g><g><path style="fill:#8380ff" d="M260.792,430.161c-0.854,0.117-0.989,1.003-0.751,1.713 C261.647,432.448,262.144,430.966,260.792,430.161z"/></g><g><path style="fill:#8380ff" d="M304.312,434.391c0.659-0.916,0.669-0.962,0.315-1.582c-0.323,0-0.663,0-1.056,0 c-0.192,0.289-0.345,0.521-0.484,0.73C303.432,434.525,303.432,434.525,304.312,434.391z"/></g><g><path style="fill:#8380ff" d="M262.08,433.294c0.067,0.293,0.135,0.592,0.202,0.884c1.053,1.016,1.081,0.149,1.644-0.644 C263.513,432.803,262.49,432.437,262.08,433.294z"/></g><g><path style="fill:#8380ff" d="M280.534,428.496c-0.097,0.296-0.184,0.56-0.267,0.813c0.213,0.726,1.248,0.838,1.668,0.25 c0-0.353,0-0.691,0-1.033c-0.23-0.15-0.434-0.283-0.649-0.422C281.013,428.247,280.765,428.376,280.534,428.496z"/></g><g><path style="fill:#8380ff" d="M279.355,439.575c-0.55-0.288-1.09,0.06-1.173,0.671c0.508-0.022,1.01-0.047,1.51-0.073 C279.654,439.972,279.555,439.767,279.355,439.575z"/></g><g><path style="fill:#8380ff" d="M290.68,439.01c0.209-0.235,0.407-0.457,0.605-0.681c-0.142-0.169-0.24-0.286-0.336-0.4 c0.035-0.153,0.068-0.299,0.118-0.518c-0.462-0.076-0.827-0.136-1.214-0.201c-0.247,0.219-0.54,0.402-0.626,0.716 C289.598,438.503,290.157,438.67,290.68,439.01z"/></g><g><path style="fill:#8380ff" d="M250.077,437.646c-0.732-0.748-1.721-0.185-1.609,0.79c0.031,0.073,0.068,0.136,0.11,0.192 c0.379,0.068,0.762,0.135,1.154,0.199C250.165,438.613,250.446,438.14,250.077,437.646z"/></g><g><path style="fill:#8380ff" d="M270.448,431.431c0.553-0.464-0.496-1.406-1.016-0.985c-0.636,0.511-0.557,1.749,0.349,1.901 C270.059,432.045,270.1,431.655,270.448,431.431z"/></g><g><path style="fill:#8380ff" d="M256.461,436.893c0.87-1.211,0.751-2.302-0.981-1.536 C255.215,436.766,255.483,436.731,256.461,436.893z"/></g><g><path style="fill:#8380ff" d="M277,432.708c-0.836,0.049-1.145,0.543-1.287,1.196c0.477,0.527,1.039,0.389,1.574,0.349 C277.668,433.32,277.668,433.32,277,432.708z"/></g><g><path style="fill:#8380ff" d="M260.015,440.001c0.481,0.035,0.967,0.067,1.456,0.097 C261.224,439.534,260.427,439.412,260.015,440.001z"/></g><g><path style="fill:#8380ff" d="M276.279,428.171c-0.584,0.557-0.205,0.825-0.212,1.491c0.733,0.167,1.309,0.103,1.649-0.572 C277.518,428.306,276.954,428.145,276.279,428.171z"/></g><g><path style="fill:#8380ff" d="M249.93,429.459c0.625-1.481-0.903-2.032-1.47-0.591 C248.548,429.856,249.162,429.878,249.93,429.459z"/></g><g><path style="fill:#8380ff" d="M255.975,431.979c1.292-0.25,1.108-1.902-0.252-1.606 C255.239,430.9,254.911,432.185,255.975,431.979z"/></g><g><path style="fill:#8380ff" d="M254.464,434.29c0.303-0.382,0.523-0.967-0.059-1.092 C253.281,431.319,252.214,434.986,254.464,434.29z"/></g><g><path style="fill:#8380ff" d="M252.285,436.447c0.07-0.301,0.139-0.601,0.207-0.894c-0.271-0.41-0.637-0.612-1.104-0.674 c-0.229,0.284-0.444,0.55-0.652,0.809C251.277,436.601,251.4,436.661,252.285,436.447z"/></g><g><path style="fill:#8380ff" d="M274.872,432.125c0.213-0.524,0.551-1.663-0.299-1.624 C272.776,430.111,274.049,433.049,274.872,432.125z"/></g><g><path style="fill:#8380ff" d="M294.129,428.613c0.178,0.438,0.339,0.832,0.5,1.226c0.893,0.118,0.927,0.098,1.326-0.793 C295.643,428.339,294.738,428.035,294.129,428.613z"/></g><g><path style="fill:#8380ff" d="M246.292,435.381c0.035,0.299,0.101,0.635,0.167,0.932 C248.919,437.496,248.054,434.161,246.292,435.381z"/></g><g><path style="fill:#8380ff" d="M280.04,431.268c-0.454-0.327-0.779-0.632-1.28-0.754c-0.294,0.311-0.543,0.575-0.806,0.854 C278.281,432.318,279.701,432.177,280.04,431.268z"/></g><g><path style="fill:#8380ff" d="M252.473,431.625c-0.308-0.966-1.064-1.636-1.662-0.507 C250.98,432.295,251.653,432.4,252.473,431.625z"/></g><g><path style="fill:#8380ff" d="M272.976,433.043c-0.521-0.025-0.925-0.453-1.406-0.115c-0.035,0.315-0.074,0.652-0.116,1.026 C272.725,434.824,272.884,434.343,272.976,433.043z"/></g><g><path style="fill:#8380ff" d="M295.354,437.575c-1.143-0.633-1.348,0.379-0.912,0.948c0.463-0.086,0.916-0.175,1.358-0.267 C295.881,437.956,295.68,437.851,295.354,437.575z"/></g><g><path style="fill:#8380ff" d="M258.608,429.704c0.503-0.247,0.503-0.247,0.725-0.769c-0.308-1.002-1.018-0.693-1.772-0.372 C257.657,429.27,258.094,429.53,258.608,429.704z"/></g><g><path style="fill:#8380ff" d="M248.841,434.052c0.508,0.218,1.03,0.358,1.268-0.248c-0.121-0.329-0.227-0.616-0.365-0.993 c-0.236,0-0.449,0-0.669,0C248.812,433.176,248.215,433.733,248.841,434.052z"/></g><g><path style="fill:#8380ff" d="M247.661,431.945c0-0.449,0-0.87,0-1.268c-0.637-0.551-1.02,0.388-1.561,0.584 C246.462,431.962,246.987,432.159,247.661,431.945z"/></g><g><polygon style="fill:#8380ff" points="287.257 437.035 287.255 436.975 287.184 437.009"/></g><g><path style="fill:#8380ff" d="M243.612,429.127c0.157,0.472,0.549,0.6,0.928,0.744c0-0.063,0-0.127,0-0.19 c0-0.507,0-1.013,0-1.52C243.725,427.887,243.802,428.643,243.612,429.127z"/></g><g><path style="fill:#8380ff" d="M243.809,437.599c0.241,0.062,0.481,0.125,0.731,0.186c0-0.169,0-0.338,0-0.507 C244.08,437.15,243.883,437.322,243.809,437.599z"/></g><g><path style="fill:#8380ff" d="M244.539,434.429c0-0.063,0-0.127,0-0.19c0-0.507,0-1.013,0-1.52 C243.658,432.485,243.656,434.556,244.539,434.429z"/></g><g><path style="fill:#8380ff" d="M236.495,433.835c-0.06-0.252-0.124-0.521-0.191-0.804c-0.288-0.139-0.567-0.274-0.818-0.395 c-0.066,0.016-0.128,0.032-0.191,0.047c0.06,0.535,0.361,1.057,0.881,1.56C236.294,434.141,236.403,434.006,236.495,433.835z"/></g><g><path style="fill:#8380ff" d="M239.882,432.431c-1.357,1.063-0.673,2.445,0.931,1.658 C241.64,433.483,240.705,432.566,239.882,432.431z"/></g><g><path style="fill:#8380ff" d="M243.136,436.496c0.257-0.955-0.142-1.841-1.247-1.605c-0.289,0.314-0.605,0.536-0.749,0.98 C241.505,436.581,242.42,436.705,243.136,436.496z"/></g><g><path style="fill:#8380ff" d="M237.106,432.149c1.06,0.093,1.306-0.061,1.655-1.04c-0.282-0.39-0.643-0.669-1.166-0.792 C236.691,430.975,236.468,431.099,237.106,432.149z"/></g><g><path style="fill:#8380ff" d="M237.271,435.085c0.406,0.256,0.867,0.507,1.386,0.75 C238.665,435.183,237.876,434.909,237.271,435.085z"/></g><g><path style="fill:#8380ff" d="M242.447,430.242c-1.085,0.447-1.066,1.093-0.4,1.92 C243.344,432.21,243.563,430.84,242.447,430.242z"/></g><g><path style="fill:#8380ff" d="M240.164,429.719c0.621-0.258,0.621-0.258,0.886-0.672c-0.077-0.315-0.256-0.523-0.483-0.696 c-0.508,0.182-0.978,0.37-1.419,0.561C239.363,429.338,239.864,429.435,240.164,429.719z"/></g></g></g><g id="Line"><g><path style="fill:#421b36" d="M264.285,63.735c-1.173-5.958-2.346-11.916-3.519-17.874c-0.381,0.16-0.762,0.321-1.142,0.482 c3.632,5.071,7.264,10.142,10.896,15.212c0.334,0.466,0.931,0.357,1.142-0.149c4.429-10.576,9.834-20.725,16.115-30.317 c-0.388-0.105-0.776-0.21-1.165-0.315c-0.14,9.966-0.281,19.933-0.421,29.899c-0.006,0.447,0.546,0.815,0.94,0.54 c6.491-4.531,12.981-9.062,19.472-13.593c-0.306-0.235-0.612-0.471-0.918-0.706c-1.372,7.567-2.743,15.133-4.115,22.7 c-0.143,0.786,1.062,1.124,1.205,0.332c1.372-7.567,2.743-15.134,4.115-22.7c0.087-0.482-0.429-1.047-0.918-0.706 c-6.491,4.531-12.981,9.062-19.472,13.593c0.313,0.18,0.627,0.36,0.94,0.54c0.14-9.966,0.281-19.933,0.421-29.899 c0.009-0.645-0.837-0.816-1.165-0.316c-6.343,9.687-11.769,19.936-16.241,30.616c0.381-0.05,0.762-0.099,1.142-0.149 c-3.632-5.071-7.264-10.142-10.896-15.213c-0.412-0.575-1.283-0.234-1.142,0.482c1.173,5.958,2.346,11.916,3.519,17.874 C263.235,64.856,264.44,64.522,264.285,63.735L264.285,63.735z"/></g></g><g id="Character_00000178202016924023447860000000717041842499933631_"><g><g><g><path style="fill:#ffae7a" d="M241.423,67.282c-0.182-0.443-2.168-8.666-2.168-8.666s7.197-7.545,6.57-12.034 c-0.626-4.489-6.383-5.261-6.383-5.261s-1.585-10.291-9.964-5.08c0,0-5.04,0.255-5.169,5.581c0,0-4.321,3.942-1.809,11.527 c2.512,7.585,5.241,7.021,5.241,7.021s3.051,11.528,6.049,12.972C236.789,74.784,242.333,69.496,241.423,67.282z"/></g><g><g><path style="fill:#8380ff" d="M240.001,33.796c-4.674-5.671-12.417-4.651-15.158-4.07c0.307-0.906,0.562-1.68,0.755-2.288 c0.02-0.054,0.041-0.112,0.062-0.171c0.278-0.858,0.434-1.338,0.434-1.338c1.329-3.981-6.242-9.788-16.908-12.967 c-10.666-3.179-20.456-2.886-21.78,1.101c-0.069,0.196-0.104,0.405-0.128,0.614c-0.186,0.472-0.471,1.138-0.825,1.958 c-1.19-1.369-7.267-7.753-15.293-5.487c-8.97,2.526-7.144,10.94-6.004,15.37c1.687,6.573,8.374,14.329,11.587,17.771 c-0.348,0.574-0.956,1.039-1.716,1.303c-1.249,0.433-1.903-0.203-2.772-1.064c-1.337-1.326-4.371-0.54-3.741,1.732 c1.115,4.017,5.342,5.277,8.897,3.541c2.704,6.924,8.989,12.583,10.036,13.412c-0.152,0.759-0.414,1.502-0.782,2.245 c-0.831,1.7-2.184,3.355-3.867,4.98c-0.011,0.014-0.027,0.023-0.039,0.037c-0.225-0.026-0.444-0.057-0.679-0.084 c-5.387-0.607-5.488,2.778-5.488,2.778c-4.509,0.475-4.676,3.919-4.676,3.919c-1.179,6.904,9.889,9.889,17.265,10.996 c2.704,0.406,4.844-0.166,6.103-1.2c2.917-2.393,1.175-4.981,1.175-4.981s0.895,0.044,0.995-1.886 c0.087-1.623-1.183-3.586-3.436-5.196c-0.51-2.311-0.2-5.13,0.731-7.729c0.201-0.577,0.436-1.146,0.699-1.692 c3.554-0.205,11.744-1.493,16.765-5.799c0.198,0.646,0.501,1.261,0.879,1.796c1.98,2.804,5.887,3.507,8.276,0.887 c1.304-1.429-0.415-3.646-2.104-3.343c-0.977,0.176-1.658,0.379-2.334-0.466c-0.219-0.273-0.389-0.632-0.512-1.026 c5.101-1.205,14.097-3.773,19.057-7.835C239.114,46.627,245.76,40.777,240.001,33.796z M178.089,38.501 c-4.048-4.764-12.862-16.531-6.513-22.284c0,0,2.484-2.575,7.718,0.856c1.984,1.302,3.748,2.786,5.178,4.128 C182.368,26.12,179.673,32.72,178.089,38.501z M217.07,52.42l-0.005,0c-0.103,0.021-0.196,0.047-0.295,0.073 c1.936-5.015,3.922-10.617,5.57-15.371c0.007-0.02,0.014-0.039,0.021-0.064c0.285-0.827,0.558-1.634,0.822-2.403 c1.942-0.292,4.22-0.518,6.561-0.49c6.362,0.072,6.815,3.534,6.815,3.534C238.244,46.101,222.971,50.894,217.07,52.42z"/></g><g style="opacity:.3"><path style="fill:#421b36" d="M209.535,58.313c-0.005,0.007-0.009,0.01-0.014,0.016c-0.002,0-0.003,0.001-0.006,0.001 c-0.001-0.004-0.002-0.006-0.003-0.009C209.519,58.318,209.529,58.319,209.535,58.313z M209.332,58.225 c-0.053,0.079,0.101,0.137,0.18,0.097C209.494,58.22,209.426,58.213,209.332,58.225z M207.171,59.093 c-0.02,0.258,0.02,0.466,0.337,0.656c0.195-0.158,0.422-0.121,0.657-0.081c0.57-0.052,0.141-0.773-0.083-1.013 c-0.405-0.157-0.861-0.244-1.104-0.646c-0.298,0.066-0.599,0.131-0.904,0.195C206.552,58.368,207.309,58.428,207.171,59.093z M204.501,59.517c0.439,0.194,0.791,0.118,1.104-0.193c0.118-0.433-0.013-0.779-0.267-0.968 c-0.357,0.072-0.717,0.142-1.081,0.21C204.209,58.903,204.365,59.196,204.501,59.517z M208.81,60.047 c-0.142,0.191-0.29,0.392-0.476,0.643C209.417,62.581,210.49,59.809,208.81,60.047z M189.236,65.012 c0.374-0.436-0.008-0.911-0.373-1.19c-0.443,0.093-0.755,0.28-0.777,0.747C188.328,65.091,188.723,65.068,189.236,65.012z M190.024,59.959c-0.066,0.157-0.12,0.281-0.189,0.443c0.501,1.393,1.735,0.33,0.934-0.647 C190.516,59.773,190.239,59.847,190.024,59.959z M180.344,53.324c-0.194-0.083-0.352-0.15-0.512-0.217 c-0.166,0.094-0.317,0.179-0.542,0.306c-0.008,0.066-0.007,0.126-0.006,0.185c0.143,0.241,0.289,0.481,0.437,0.716 C180.136,54.452,180.653,54.093,180.344,53.324z M189.328,58.237c-0.735,0.058-0.867,0.876-0.311,1.286 c0.459,0.042,0.661-0.297,0.95-0.562C189.731,58.694,189.537,58.475,189.328,58.237z M187.48,57.696 c0.361,0.242,0.823,0.357,1.037-0.085c-0.323-0.194-0.637-0.401-0.943-0.617C187.464,57.151,187.412,57.384,187.48,57.696z M209.52,58.33c-0.002,0-0.003,0.001-0.006,0.001c-0.001-0.004-0.002-0.006-0.003-0.009c-0.079,0.04-0.232-0.018-0.18-0.097 c0.094-0.012,0.162-0.005,0.18,0.097c0.007-0.004,0.017-0.003,0.023-0.008C209.53,58.32,209.525,58.323,209.52,58.33 c0.217,0.018,0.261-0.227,0.362-0.364c-0.085-0.199-0.163-0.382-0.25-0.585c-0.275,0.069-0.555,0.138-0.842,0.208 C208.588,58.105,209.033,59.01,209.52,58.33z M186.647,56.334c0.014-0.003,0.024-0.008,0.037-0.012 c-0.163-0.132-0.321-0.267-0.478-0.403C186.266,56.122,186.386,56.274,186.647,56.334z M180.59,52.593 c0.435,0.706,1.014,0.64,1.293-0.115c-0.114-0.552-0.214-0.657-0.786-0.578C181.162,52.307,180.612,52.201,180.59,52.593z M183.296,55.356c0.192,0.201,0.335,0.351,0.48,0.503c-0.03,0.034-0.061,0.068-0.091,0.102 C185.494,56.259,184.133,53.96,183.296,55.356z M187.445,63.213c-0.02,0.101-0.048,0.201-0.072,0.302 c0.644,0.09,1.135-1.175-0.147-1.113c-0.107,0.111-0.221,0.227-0.333,0.343C187.135,62.959,187.326,63.119,187.445,63.213z M178.857,48.623c-0.444,0.257-0.96,0.548-0.549,1.09c0.406,0.032,0.796,0.103,1.088-0.232 C179.194,49.12,179.334,48.73,178.857,48.623z M205.545,60.392c0.798,0.691,0.361,1.112,1.348,0.259 c0.013-0.139,0.024-0.254,0.041-0.441C206.435,60.052,205.79,59.761,205.545,60.392z M187.125,58.829 c-0.05-0.904-1.145-1.083-1.346-0.178C186.043,59.187,186.675,59.162,187.125,58.829z M190.248,62.561 c-0.15,0.087-0.331,0.192-0.514,0.298c-0.014,0.251,0.229,0.37,0.083,0.572c0.184,0.565,0.772,0.432,1.032-0.014 C190.789,63.035,190.783,62.644,190.248,62.561z M205.369,61.924c-0.143-0.302-0.29-0.591-0.424-0.895 c-0.386,0.18-0.729,0.281-0.843,0.679C204.156,62.319,205.006,62.396,205.369,61.924z M211.252,59.423 c-0.24-0.408-1.329-0.716-1.257,0.024C209.926,60.294,211.122,60.134,211.252,59.423z M215.227,56.144 c0.139-0.198,0.229-0.335,0.268-0.397c0.006-0.009,0.012-0.019,0.017-0.023c0.005-0.005,0.006-0.01,0.006-0.01s0,0-0.005,0 c-0.041,0.014-0.296,0.097-0.717,0.227C214.879,56.093,215.012,56.171,215.227,56.144z M208.192,61.969 c-0.285-0.683-1.081-0.519-1.4-0.012C207.029,62.637,207.897,62.589,208.192,61.969z M192.058,59.849 c0.321-0.163,0.525-0.405,0.568-0.652c-0.056-0.01-0.115-0.018-0.17-0.028c-0.269-0.053-0.533-0.118-0.795-0.189 C191.585,59.276,191.712,59.63,192.058,59.849z M183.209,57.908c-0.172,0.374-0.049,0.68,0.192,0.963 c0.493,0.085,0.493,0.085,0.844-0.439C184.109,58.029,183.643,57.556,183.209,57.908z M214.238,56.514 c-0.377-0.178-0.422-0.199-0.69-0.198c-0.048,0.014-0.092,0.027-0.141,0.042C212.627,57.59,214.382,57.891,214.238,56.514z M198.314,59.987c-0.05-0.225-0.089-0.445-0.174-0.604c-0.271,0.019-0.54,0.035-0.806,0.047 c-0.045,0.071-0.093,0.147-0.134,0.212C197.321,60.335,197.836,60.6,198.314,59.987z M180.481,48.51 c-0.245-0.465-0.373-0.744-0.373-0.744L179.674,48c-0.019,0.026-0.036,0.051-0.058,0.079 C179.966,48.481,180.267,48.571,180.481,48.51z M192.44,65.891c-0.058,0.143-0.122,0.301-0.21,0.519 c0.359,0.402,0.658,0.691,1.146,0.244c0.017-0.182,0.033-0.356,0.048-0.511C193.155,65.801,192.829,65.761,192.44,65.891z M201.878,63.833c-0.807-0.381-1.06,0.207-0.683,0.731c0.303-0.067,0.61-0.141,0.92-0.218 C202.119,64.199,202.045,64.026,201.878,63.833z M199.79,62.984c1.245,0.564,1.728-0.692,0.413-0.791 C199.934,62.333,199.497,62.652,199.79,62.984z M202.598,58.853c-0.249,0.04-0.498,0.079-0.748,0.116 c0.076,0.099,0.128,0.217,0.115,0.383C202.319,59.237,202.514,59.05,202.598,58.853z M184.935,56.464 c-0.326,0.186-0.21,0.552-0.405,0.746c0.325,0.739,1.279,0.439,1.051-0.418C185.367,56.683,185.147,56.571,184.935,56.464z M201.152,59.739c-0.283-0.599-0.956-0.457-1.183,0.171C200.264,60.595,201.213,60.569,201.152,59.739z M194.339,62.769 c0.258-0.097,0.573,0.006,0.852-0.241C195.323,61.1,193.296,61.988,194.339,62.769z M191.125,64.49 c-0.022,0.24-0.042,0.451-0.062,0.663c0.141,0.066,0.262,0.124,0.391,0.185c0.168-0.067,0.33-0.131,0.508-0.203 c0.194-0.701,0.194-0.701-0.372-0.924C191.439,64.302,191.274,64.401,191.125,64.49z M181.076,54.735 c-0.034-0.113-0.199-0.113-0.309-0.046c-0.968,0.744,0.576,1.721,0.831,0.522C181.442,55.005,181.155,54.998,181.076,54.735z M192.351,61.73c-0.206-0.091-0.381-0.169-0.55-0.244c-0.284,0.067-0.538,0.152-0.675,0.416 c0.078,0.691,0.73,0.499,1.206,0.406C192.339,62.11,192.344,61.943,192.351,61.73z M198.864,64.513 c0.999-0.229,0.321-1.324-0.532-0.883C198.208,64.087,198.245,64.602,198.864,64.513z M195.441,59.457 c-0.344-0.007-0.68-0.022-1.009-0.044C194.405,59.974,195.384,60.025,195.441,59.457z M202.78,60.113 c0.257,0.469,0.6,0.641,1.075,0.543c0.004-0.292,0.007-0.558,0.011-0.827C203.372,59.572,202.986,59.504,202.78,60.113z M197.283,64.654c-0.193,0.249-0.413,0.436-0.692,0.592c0.008,0.021,0.023,0.038,0.033,0.059 c0.359-0.036,0.746-0.081,1.153-0.135C197.63,64.976,197.511,64.782,197.283,64.654z M192.524,63.661 c0.275,0.586,1.702,0.144,1.131-0.421C192.662,62.518,193.071,63.091,192.524,63.661z M211.216,56.97 c-0.165,0.044-0.331,0.088-0.502,0.134c0.085,0.031,0.178,0.055,0.285,0.071C211.085,57.102,211.155,57.034,211.216,56.97z M177.747,50.624c0.018-0.037,0.034-0.069,0.053-0.108c-0.058-0.069-0.115-0.124-0.171-0.174 C177.668,50.436,177.706,50.531,177.747,50.624z M186.461,60.997c-0.571-0.184-0.75,0.097-0.827,0.568 c0.122,0.119,0.24,0.234,0.353,0.342C186.541,61.99,186.996,61.58,186.461,60.997z M195.793,61.346 c0.414-0.041,0.715-0.192,0.978-0.419C196.719,59.862,195.072,60.461,195.793,61.346z M194.924,65.246 c0.034-0.43,0-0.489-0.454-0.77C193.25,65.099,193.897,65.953,194.924,65.246z M188.028,60.745 c0.215-0.025,0.299-0.264,0.13-0.423c-0.215-0.19-0.051-0.471-0.219-0.7c-0.199-0.023-0.307,0.042-0.498,0.083 C187.058,60.338,187.207,60.874,188.028,60.745z M196.179,63.966c0.271-0.104,0.241-0.32,0.215-0.561 c-0.508-0.543-1.165,0.243-0.914,0.821c0.178,0.055,0.367,0.116,0.549,0.116C196.134,64.224,196.01,64.032,196.179,63.966z M186.804,65.519c0.296,0.133,0.602,0.257,0.913,0.376c0.018-0.051,0.037-0.102,0.04-0.164 C187.602,65.248,187.152,65.27,186.804,65.519z M189.554,66.063c0.145,0.583,0.843,0.552,1.168,0.1 c-0.086-0.111-0.193-0.184-0.195-0.261C190.439,65.304,189.423,65.456,189.554,66.063z M203.13,63.589 c0.19-0.175,0.372-0.343,0.561-0.516c-0.038-0.143-0.076-0.291-0.132-0.504C202.616,62.467,202.044,63.224,203.13,63.589z M181.873,57.194c0.273,0.026,0.538,0.05,0.839,0.079C183.207,56.109,181.217,56.018,181.873,57.194z M188.514,61.927 c0.205,0.114,0.405,0.224,0.639,0.354C190.023,61.03,188.701,60.423,188.514,61.927z M181.425,50.156 c-0.144-0.234-0.275-0.453-0.396-0.661c-0.046,0.027-0.089,0.052-0.137,0.08C181.06,49.787,181.202,50.01,181.425,50.156z M178.639,51.55c-0.15,0.052-0.282,0.085-0.392,0.145c0.146,0.295,0.296,0.589,0.452,0.877 C178.969,52.223,179.105,51.866,178.639,51.55z M199.182,60.534c-0.881,0.259-0.871,1.332,0.105,1.227 c-0.068-0.232,0.005-0.411,0.151-0.562C199.352,60.974,199.278,60.782,199.182,60.534z M184.412,59.856 c0.103,0.168,0.193,0.315,0.282,0.46c0.643,0.225,0.691-0.312,0.672-0.809c-0.22-0.07-0.417-0.132-0.592-0.188 C184.509,59.438,184.56,59.705,184.412,59.856z M182.713,54.402c0.149-0.15,0.298-0.301,0.49-0.494 C182.344,52.697,181.415,54.554,182.713,54.402z M180.558,51.147c-0.176-0.332-0.333-0.631-0.556-1.053 c-0.146,0.352-0.307,0.576-0.471,0.8c0.092,0.207,0.09,0.442,0.321,0.534C180.095,51.331,180.321,51.241,180.558,51.147z M202.385,61.24c-0.49-0.562-0.965,0.037-0.979,0.58c0.103,0.087,0.189,0.159,0.277,0.234c0.212-0.118,0.397-0.221,0.582-0.325 C202.305,61.564,202.342,61.414,202.385,61.24z M211.847,57.72c-0.046,0.198-0.085,0.363-0.12,0.517 c0.586,0.712,0.874,0.586,0.959-0.311C212.398,57.853,212.196,57.626,211.847,57.72z M193.13,60.12 c-0.121,0.196-0.249,0.402-0.392,0.632c0.436,0.293,0.748,0.697,1.192,0.075c-0.162-0.144-0.281-0.279-0.426-0.371 C193.36,60.364,193.393,60.098,193.13,60.12z M198.002,62.502c-0.202-0.183-0.4-0.362-0.628-0.569 c-0.27,0.363-0.27,0.363-0.273,0.961C197.824,63.029,197.847,63.019,198.002,62.502z M206.3,62.924 c-0.656-0.491-1.04,0.03-0.783,0.392c0.265-0.096,0.53-0.197,0.794-0.301C206.308,62.984,206.305,62.953,206.3,62.924z"/></g><g><g><path style="fill:#421b36" d="M213.83,58.8c2.612-3.264,3.964-7.266,5.32-11.163c1.484-4.265,2.867-8.565,4.283-12.853 c0.818-2.476,1.649-4.948,2.513-7.409c0.131-0.374-0.445-0.593-0.576-0.219c-1.476,4.204-2.85,8.441-4.242,12.673 c-1.368,4.159-2.678,8.371-4.326,12.429c-0.895,2.203-1.981,4.319-3.471,6.182C213.081,58.752,213.583,59.109,213.83,58.8 L213.83,58.8z"/></g></g><g><g><path style="fill:#421b36" d="M187.708,62.994c2.432-1.574,7.084-0.829,7.465,2.452c0.03,0.259,0.465,0.317,0.531,0.05 c0.497-2.011-1.31-3.583-3.102-4.009c-1.32-0.314-4.917-0.541-5.198,1.346C187.377,63.01,187.585,63.074,187.708,62.994 L187.708,62.994z"/></g></g><g><g><path style="fill:#421b36" d="M182.05,70.699c4.198,0.224,8.515,1.687,11.785,4.369c0.307,0.252,0.665-0.25,0.359-0.501 c-3.347-2.746-7.789-4.253-12.087-4.482C181.713,70.065,181.653,70.678,182.05,70.699L182.05,70.699z"/></g></g><g><g><path style="fill:#421b36" d="M175.241,73.885c4.16-0.589,8.384,0.137,12.251,1.724c1.762,0.723,3.489,1.613,5.094,2.641 c1.508,0.966,2.785,2.164,3.593,3.782c0.177,0.354,0.737,0.096,0.559-0.26c-0.797-1.595-2.016-2.835-3.488-3.823 c-1.659-1.113-3.495-2.059-5.334-2.831c-4.023-1.688-8.441-2.455-12.782-1.84C174.741,73.334,174.848,73.94,175.241,73.885 L175.241,73.885z"/></g></g><g><path style="fill:#421b36" d="M195.871,86.141c-0.824,2.593-6.878,2.983-13.521,0.87c-6.643-2.112-11.36-5.927-10.535-8.52 s6.878-2.983,13.521-0.87C191.979,79.734,196.695,83.548,195.871,86.141z"/></g><g><g><path style="fill:#421b36" d="M187.33,14.979c11.205-2.816,23.349-0.663,32.65,6.282c1.086,0.811,2.067,1.744,2.976,2.749 c0.925,1.023,1.835,2.129,2.422,3.386c0.168,0.359,0.727,0.101,0.559-0.26c-1.012-2.166-2.843-4.07-4.637-5.613 c-2.147-1.846-4.681-3.333-7.225-4.558c-5.256-2.532-11.085-3.833-16.917-3.833c-3.35,0-6.687,0.423-9.936,1.239 C186.841,14.468,186.944,15.075,187.33,14.979L187.33,14.979z"/></g></g><g><g><path style="fill:#fff" d="M169.073,13.036c-2.535,1.062-4.16,3.584-3.912,6.365c0.045,0.507,0.913,0.481,0.906-0.037 c-0.035-2.411,1.056-4.687,3.19-5.932C169.497,13.292,169.337,12.925,169.073,13.036L169.073,13.036z"/></g></g><g><g><path style="fill:#fff" d="M165.263,21.634c0.009,0.013,0.019,0.026,0.028,0.04c0.04,0.053,0.091,0.092,0.15,0.118 c0.056,0.037,0.119,0.057,0.187,0.061c0.068,0.009,0.133,0.001,0.195-0.025c0.063-0.014,0.12-0.043,0.169-0.088 c0.029-0.031,0.058-0.062,0.087-0.093c0.052-0.073,0.083-0.155,0.091-0.244c-0.002-0.045-0.003-0.089-0.005-0.134 c-0.016-0.086-0.052-0.163-0.107-0.231c-0.011-0.012-0.022-0.023-0.034-0.035c-0.04-0.052-0.09-0.091-0.149-0.117 c-0.056-0.036-0.118-0.057-0.186-0.06c-0.068-0.009-0.132-0.001-0.194,0.025c-0.063,0.014-0.119,0.043-0.169,0.087 c-0.029,0.031-0.058,0.062-0.086,0.093c-0.052,0.073-0.082,0.154-0.091,0.243c0.002,0.044,0.003,0.089,0.005,0.133 C165.173,21.49,165.208,21.566,165.263,21.634L165.263,21.634z"/></g></g><g><g><path style="fill:#fff" d="M234.472,32.019c2.444,1.077,3.963,3.207,4.258,5.839c0.058,0.52,0.809,0.359,0.785-0.139 c-0.132-2.805-2.205-5.358-4.891-6.102C234.36,31.543,234.215,31.906,234.472,32.019L234.472,32.019z"/></g></g><g><g><path style="fill:#fff" d="M232.178,31.522c0.042,0.017,0.085,0.035,0.128,0.052c0.144,0.059,0.334,0.03,0.451-0.075 c0.09-0.081,0.151-0.185,0.162-0.307c0.011-0.116-0.028-0.242-0.102-0.332c-0.101-0.122-0.271-0.19-0.429-0.158 c-0.045,0.009-0.09,0.018-0.135,0.028c-0.034,0.011-0.068,0.021-0.102,0.032c-0.05,0.021-0.092,0.053-0.125,0.095 c-0.028,0.023-0.048,0.052-0.061,0.086c-0.03,0.047-0.047,0.098-0.05,0.155c-0.004,0.073,0.009,0.145,0.037,0.212 C231.99,31.406,232.085,31.484,232.178,31.522L232.178,31.522z"/></g></g><g><g><path style="fill:#421b36" d="M177.397,49.904c2.312-0.498,3.83-2.598,4.021-4.891c0.222-2.673-1.158-5.106-2.905-7.017 c-0.267-0.292-0.743,0.1-0.475,0.393c1.552,1.697,2.832,3.804,2.786,6.179c-0.042,2.15-1.341,4.257-3.535,4.729 C176.903,49.38,177.008,49.988,177.397,49.904L177.397,49.904z"/></g></g><g><g><path style="fill:#421b36" d="M186.455,16.778c2.576,2.016,6.73,0.945,8.291-1.829c-0.185-0.042-0.369-0.084-0.554-0.126 c0.538,1.955,2.165,3.494,4.154,3.917c2.084,0.444,4.324-0.411,5.596-2.112c-0.185-0.042-0.369-0.084-0.554-0.126 c0.718,3.832,5.458,5.327,8.373,2.847c-0.167-0.061-0.333-0.122-0.5-0.184c0.638,3.42,4.19,5.414,7.482,4.46 c-0.12-0.111-0.24-0.222-0.36-0.332c-0.599,3.734,2.933,6.648,6.506,5.922c0.388-0.079,0.283-0.686-0.107-0.607 c-3.198,0.65-6.321-1.915-5.785-5.258c0.029-0.184-0.174-0.386-0.361-0.332c-2.965,0.859-6.187-0.846-6.768-3.961 c-0.042-0.225-0.321-0.335-0.5-0.184c-2.559,2.177-6.739,0.903-7.373-2.48c-0.049-0.263-0.395-0.338-0.554-0.126 c-1.108,1.48-3.043,2.231-4.863,1.893c-1.773-0.329-3.301-1.707-3.78-3.447c-0.062-0.224-0.41-0.381-0.554-0.126 c-1.401,2.489-5.097,3.514-7.431,1.688C186.502,16.032,186.144,16.534,186.455,16.778L186.455,16.778z"/></g></g><g><g><path style="fill:#fff" d="M185.919,69.541c1.515-1.638,2.832-3.699,3.929-5.639c0.282-0.498-0.385-1.012-0.738-0.53 c-1.336,1.827-2.676,3.883-3.555,5.973C185.456,69.581,185.77,69.701,185.919,69.541L185.919,69.541z"/></g></g><g><path style="fill:#fff" d="M199.123,31.77c0,0,5.35-7.08,5.919-4.812c0.569,2.268-0.895,7.007-0.895,7.007l4.265,1.999 c1.628,0.784,4.375,2.259-1.152,2.433l-2.834,0.145c0,0-1.294,7.176-2.4,7.514c-1.038,0.317-2.313-5.96-2.313-5.96 s-7.382,4.936-6.882,2.424c0.501-2.513,3.545-7.413,3.545-7.413s-6.382-6.052-3.344-5.715 C193.678,29.465,199.123,31.77,199.123,31.77z"/></g><g><g><path style="fill:#fff" d="M178.092,72.624c0.365-0.002,0.662-0.253,1.003-0.368c0.395-0.132,0.821-0.151,1.23-0.093 c0.57,0.08,0.613-0.75,0.082-0.869c-0.529-0.119-1.05-0.074-1.557,0.116c-0.408,0.153-0.943,0.451-0.998,0.924 C177.836,72.466,177.95,72.625,178.092,72.624L178.092,72.624z"/></g></g><g><g><path style="fill:#fff" d="M173.549,76.291c0.413-0.409,0.911-0.627,1.493-0.589c0.62,0.041,0.669-0.815,0.088-0.939 c-0.861-0.183-1.801,0.338-2.088,1.165C172.944,76.212,173.308,76.53,173.549,76.291L173.549,76.291z"/></g></g><g><g><path style="fill:#421b36" d="M184.521,21.549c1.318,0.225,2.74-0.585,3.162-1.867c0.377-1.148,0.101-2.626-0.868-3.405 c-0.31-0.249-0.667,0.253-0.359,0.501c0.745,0.598,0.938,1.812,0.651,2.686c-0.342,1.04-1.466,1.653-2.528,1.472 C184.188,20.869,184.132,21.483,184.521,21.549L184.521,21.549z"/></g></g><g><g><path style="fill:#fff" d="M184.374,42.959c0.165,5.092,2.107,9.755,5.587,13.511c0.362,0.39,0.986-0.116,0.641-0.531 c-3.131-3.767-5.172-8.167-6.097-12.985C184.491,42.884,184.371,42.883,184.374,42.959L184.374,42.959z"/></g></g></g><g><path style="fill:#ffae7a" d="M239.275,41.971c-3.754,0.8-7.086,3.385-8.794,6.822c-0.454,0.914-0.802,1.964-0.514,2.943 c0.373,1.266,1.765,2.037,3.085,2.016c1.32-0.02,2.551-0.682,3.588-1.498c1.037-0.816,1.935-1.797,2.97-2.616 c-0.659,1.09-0.223,2.64,0.818,3.374c1.041,0.733,1.842,0.326,2.942-0.315c1.1-0.641,1.746-1.827,2.076-3.057 c0.54-2.012,0.779-3.887-0.597-5.451c-1.376-1.564-3.556-2.38-5.62-2.101"/></g><g><path style="fill:#ffae7a" d="M229.694,36.193c1.541-1.113,3.59-1.492,5.427-1.004c1.838,0.488,3.428,1.834,4.213,3.566 c0.38,0.838,0.577,1.786,0.387,2.686c-0.19,0.9-0.816,1.735-1.69,2.022c-0.796,0.261-0.623,0.296-1.343-0.134 c-0.72-0.43-0.647-0.82-1.217-1.434c2.094,0.647,1.497,1.495-0.535,2.742c-1.042,0.639-1.445,2.092-2.664,2.17 c-1.219,0.078-2.448-0.684-2.92-1.811c0.528,0.679,2.601,2.418,2.886,3.23c0.285,0.811,0.034,2.793-0.472,3.488 c-0.594,0.816-1.316,1.12-2.326,1.124c-1.428,0.005-4.562-2.498-5.688-3.375c-1.126-0.878-1.876-2.284-1.787-3.708 c0.089-1.425,1.107-2.794,2.496-3.123c-0.207-1.463,0.233-3.006,1.181-4.14c0.948-1.134,2.388-1.84,3.865-1.895"/></g><g><g><path style="fill:#421b36" d="M241.923,41.591c-1.682-0.49-3.459,0.054-4.834,1.071c-0.717,0.53-1.346,1.159-1.931,1.83 c-0.594,0.681-1.208,1.383-1.688,2.151c-0.835,1.334-1.055,3.247,0.383,4.263c1.338,0.945,3.065,0.488,4.342-0.313 c0.907-0.568,1.743-1.258,2.598-1.9c0.942-0.707,1.884-1.415,2.826-2.122c0.503-0.378,0.01-1.237-0.499-0.854 c-1.349,1.013-2.699,2.027-4.048,3.04c-1.061,0.797-2.293,1.843-3.715,1.676c-0.6-0.07-1.192-0.369-1.442-0.945 c-0.303-0.698-0.076-1.501,0.281-2.131c0.364-0.644,0.857-1.211,1.33-1.776c0.472-0.563,0.964-1.113,1.511-1.605 c1.247-1.121,2.932-1.922,4.623-1.43C242.272,42.724,242.534,41.769,241.923,41.591L241.923,41.591z"/></g></g><g><g><path style="fill:#421b36" d="M224.828,48.668c0.591,1.489,1.317,2.966,2.667,3.908c1.163,0.811,2.721,1.038,3.968,0.279 c0.552-0.336,0.989-0.84,1.213-1.449c0.266-0.724,0.491-1.56,0.389-2.334c-0.098-0.744-0.521-1.428-0.924-2.045 c-0.441-0.677-0.938-1.315-1.424-1.96c-1.034-1.373-2.111-2.585-3.799-3.134c-0.607-0.198-0.867,0.757-0.263,0.954 c1.542,0.502,2.469,1.702,3.408,2.944c0.908,1.201,2.325,2.678,1.952,4.295c-0.171,0.742-0.366,1.455-1.05,1.875 c-0.631,0.388-1.379,0.426-2.072,0.189c-1.657-0.567-2.507-2.266-3.11-3.785C225.55,47.82,224.593,48.075,224.828,48.668 L224.828,48.668z"/></g></g><g><g><path style="fill:#421b36" d="M228.441,36.767c3.469,0.515,6.538,2.964,7.722,6.282c0.212,0.595,1.169,0.339,0.954-0.263 c-1.292-3.622-4.593-6.406-8.413-6.973C228.081,35.72,227.812,36.673,228.441,36.767L228.441,36.767z"/></g></g></g><g><path style="fill:#8380ff" d="M286.783,188.727c0,0,15.304-20.127,23.859-17.093c8.555,3.033,12.201,19.834,7.779,24.447 c-4.423,4.613-31.256,27.503-37.06,22.223s3.612-29.956,3.612-29.956"/></g><path style="opacity:.2;fill:#421b36" d="M296.561,207.934c-1.545-0.32-0.628-1.801,0.41-2.218 C298.635,206.092,297.63,207.982,296.561,207.934z M287.81,196.56c-3.061,0.621,1.212,4.305,0.863,0.705 C288.374,197.061,288.193,196.697,287.81,196.56z M289.848,198.886c-0.277,0.229-0.563,0.467-0.833,0.691 c-0.215,1.55,1.068,1.772,2.02,1.128C291.087,199.954,290.743,199.012,289.848,198.886z M286.216,194.743 c-0.301-0.148-0.597-0.294-0.876-0.433c-0.553,0.309-0.663,0.855-0.886,1.285c0.163,0.307,0.308,0.577,0.487,0.914 C286.141,196.857,286.928,195.738,286.216,194.743z M299.521,203.443c-1.793,0.152-2.079,1.371-0.368,2.019 C300.344,205.463,300.527,203.937,299.521,203.443z M293.681,209.679c0.914,1.034,2.416-0.371,1.647-1.513 C294.334,207.906,292.892,208.516,293.681,209.679z M300.91,205.654c-0.265,0.416-0.497,0.781-0.723,1.135 C301.514,209.638,303.603,206.064,300.91,205.654z M302.239,197.051c-0.269-0.186-0.498-0.343-0.743-0.513 c-0.785,0.162-1.473,0.964-1.018,1.821C301.551,199.061,302.566,198.26,302.239,197.051z M279.571,201.988l-0.391,0.872 C279.49,202.595,279.66,202.297,279.571,201.988z M297.83,211.414c-0.563-1.449-1.234-1.397-2.187-0.311 C295.717,212.525,297.368,212.698,297.83,211.414z M292.185,207.887c1.212-0.615,1.646-2.007-0.153-2.031 C290.839,206.04,291.132,207.635,292.185,207.887z M283.835,192.475l-0.676,1.508C283.749,194.113,284.23,193.68,283.835,192.475z M294.275,198.89c-0.693,0.352-0.967,1.384-0.454,1.935C295.446,201.397,296.3,198.868,294.275,198.89z M286.754,202.877 c1.06,0.594,1.497,0.454,2.033-0.671C288.281,200.632,286.352,201.309,286.754,202.877z M283.326,205.889 c-0.206,0.11-0.368,0.196-0.512,0.272c-0.325-0.094-0.306-0.624-0.855-0.482C281.917,209.372,285.531,207.36,283.326,205.889z M298.543,208.055c-0.964,1.328-0.095,2.508,1.363,1.57C300.203,208.704,299.421,207.573,298.543,208.055z M293.62,191.074 c0.043,0.378,0.072,0.463,0.37,0.517c0.795,0.291,1.356-0.075,1.669-0.81C295.036,189.571,293.25,189.359,293.62,191.074z M299.41,191.966c0.671-0.183,0.158-1.074,0.582-1.558C298.277,188.562,297.089,192.102,299.41,191.966z M286.96,193.995 c1.253,0.423,1.398-0.286,1.812-1.291C287.733,191.69,285.567,192.896,286.96,193.995z M293.177,175.717 c0.101-0.667,0.298-1.8-0.787-1.773c-0.091-0.021-0.172-0.019-0.248-0.005l-0.692,1.544 C291.831,175.824,292.816,175.811,293.177,175.717z M284.139,202.061c-0.522-0.837-1.868-0.852-2.149,0.206 C282.343,203.69,284.422,203.486,284.139,202.061z M305.511,206.02c-0.355,0.158-0.612,0.51-0.571,1.064 c0.052,0.179,0.122,0.321,0.201,0.435c0.056-0.078,0.115-0.157,0.16-0.23C305.46,207.023,305.52,206.581,305.511,206.02z M281.294,209.966c0.032-0.405,0.587-0.581,0.52-1.154c-0.545-0.756-1.246-0.945-1.723-0.473c0.091,0.463,0.188,0.938,0.291,1.42 C280.606,209.954,280.873,210.083,281.294,209.966z M289.934,214.531c1.513,0.255,1.426-2.197-0.116-1.813 C289.089,212.914,288.787,214.858,289.934,214.531z M292.738,196.949c-1.432-0.703-1.619,0.899-0.952,1.844 C292.753,198.96,294.077,197.432,292.738,196.949z M295.826,202.193c0.084,0.228,0.18,0.488,0.248,0.671 c0.368,0.179,0.665,0.325,0.976,0.477c0.129-0.066,0.267-0.137,0.449-0.231c-0.124-0.553-0.124-0.553,0.311-1.023 C297.474,200.891,295.969,200.973,295.826,202.193z M294.551,203.443c-1.071,0.739-1.465,1.989,0.153,2.191 c0.588-0.468,0.628-0.533,0.87-1.41C295.302,203.865,294.964,203.73,294.551,203.443z M284.494,205.192 c0.571,0.562,1.783-0.007,2.005-0.914C285.787,202.91,284.001,203.837,284.494,205.192z M295.619,188.737 c0.695,0.854,0.832,0.887,1.841,0.475c0.487-1.012-0.007-1.111-0.691-1.717C296.103,187.667,295.791,188.1,295.619,188.737z M292.437,210.2c-0.414,0.261-0.781,0.493-1.138,0.718C290.885,213.593,294.939,211.6,292.437,210.2z M289.037,217.785 c0.292-0.127,0.592-0.262,0.898-0.402c-0.188-0.031-0.374-0.061-0.557-0.091C289.206,217.451,289.106,217.618,289.037,217.785z M285.089,191.619c1.213,0.52,1.395-0.879,0.925-1.683c-0.392-0.169-0.784-0.092-1.086,0.1l-0.501,1.118 C284.513,191.361,284.719,191.534,285.089,191.619z M281.94,211.43c0.331,0.199,0.442,0.433,0.619,0.71 c0.44,0.312,1.242-0.165,1.449-0.583C284.359,209.87,282.326,210.046,281.94,211.43z M281.526,205.412 c0.648-0.788,0.522-1.669-0.295-1.612c-0.508,0.279-1.313-0.105-1.469,0.628C280.12,205.383,280.501,205.658,281.526,205.412z M286.059,209.439c0.417-0.754,0.086-1.218-0.629-1.436c-0.776,0.12-0.842,0.686-0.999,1.218 C284.518,210.083,285.971,210.51,286.059,209.439z M299.806,199.899c0.072-0.508-0.512-1.033-1.028-0.928 C296.492,199.382,299.69,202.48,299.806,199.899z M284.662,199.683c-0.123,1.489,1.702,1.694,1.656,0.028 C286.473,198.701,284.375,198.44,284.662,199.683z M293.149,192.603c-0.522-0.311-1.164-0.762-1.478-0.006 c-0.107,0.407-0.711,0.348-0.587,0.839C291.683,194.464,293.594,194.197,293.149,192.603z M291.475,201.676 c-0.401,1.554,1.365,2.084,1.874,0.56C292.641,201.295,292.569,200.66,291.475,201.676z M291.917,189.489 c2.588-0.099,0.543-3.276-0.751-1.056C291.253,188.957,291.6,189.184,291.917,189.489z M304.958,202.524 c0.004,0.085,0.023,0.164,0.056,0.238C304.996,202.683,304.977,202.604,304.958,202.524z M289.865,194.265 c-0.552,0.206-0.844,0.622-1.049,1.169C289.657,197.659,291.736,195.35,289.865,194.265z M298.503,185.38 c-0.548,0.136-0.556,1.065-0.053,1.234c0.343,0.116,0.225,0.399,0.37,0.563c0.522,0.038,0.763,0.046,0.931-0.139 c-0.206-0.534-0.412-1.064-0.618-1.591C298.924,185.378,298.711,185.337,298.503,185.38z M303.372,200.841 c0.441-0.043,0.418-0.583,0.826-0.385c0.079,0.001,0.148-0.006,0.208-0.017c-0.12-0.422-0.248-0.856-0.383-1.301 c-0.23-0.166-0.477-0.277-0.679-0.266C302.382,199.428,302.631,200.246,303.372,200.841z M302.559,204.646 c0.672,1.015,1.414,0.961,2.207,0.134C304.237,203.443,303.089,203.146,302.559,204.646z M281.888,200.022 c-0.397-0.476-0.665-0.838-1.017-0.935l-0.667,1.488c0.097,0.11,0.214,0.212,0.353,0.308 C281.129,200.7,281.776,200.793,281.888,200.022z M290.178,180.842c-1.027,0.215-1.061,0.54-1.048,1.519 c0.473,0.16,0.907,0.447,1.499,0.225C291.094,181.712,291.249,181.304,290.178,180.842z M290.637,205.348 c0.408-0.997-0.722-2.161-1.56-1.314C288.539,204.965,289.847,206.204,290.637,205.348z M298.682,196.464 c2.7,0.029,0.86-3.34-0.569-1.077C298.277,195.766,298.414,196.143,298.682,196.464z M300.34,193.015 c0.14,0.283,0.264,0.532,0.388,0.783c0.968,0.389,1.285,0.103,1.357-0.48c-0.136-0.381-0.273-0.763-0.412-1.148 c-0.178-0.102-0.36-0.163-0.579-0.136C300.84,192.364,300.595,192.683,300.34,193.015z M291.748,216.512 c0.458-0.229,0.921-0.465,1.39-0.712C292.942,214.144,290.327,215.353,291.748,216.512z M286.334,213.837 c-0.055-0.97-0.84-1.479-1.665-0.884C283.852,214.178,285.69,215.322,286.334,213.837z M289.056,185.749 c0.124,0.412,0.246,0.821,0.36,1.202c0.264,0.172,0.495,0.323,0.703,0.459c0.839-0.292,0.811-0.904,0.71-1.58 C290.273,185.529,289.728,185.228,289.056,185.749z M295.137,214.537c1.002-0.839,0.073-1.622-0.891-1.775 c-0.569,0.253-0.539,0.773-0.587,1.29C294.055,214.454,294.5,214.691,295.137,214.537z M303.395,208.309 c-0.48-0.001-0.762,0.237-0.822,0.7c0.148,0.249,0.295,0.426,0.439,0.572c0.492-0.394,0.931-0.772,1.295-1.124 C304.116,208.315,303.822,208.243,303.395,208.309z M294.998,196.315c0.253-0.303,0.518-0.59,0.632-1.095 C293.827,193.053,292.673,196.277,294.998,196.315z M284.48,218.273c0.279,0.371,0.465,0.62,0.643,0.857 c0.247-0.044,0.528-0.114,0.826-0.198c0.1-0.165,0.176-0.426,0.307-0.897C285.972,217.19,284.445,217.229,284.48,218.273z M295.85,192.878c0.196,1.631,1.815,1.579,1.868-0.148C297.088,192.048,296.346,192.057,295.85,192.878z M283.298,198.613 c0.892-0.406,0.871-1.654,0.018-2.007c-1.271,0.244-0.908,0.572-1.047,1.453C282.54,198.473,282.955,198.451,283.298,198.613z M294.18,173.336c-0.195-0.458-0.363-0.851-0.496-1.161c-0.057,0.123-0.107,0.253-0.152,0.393 C293.683,173.029,293.923,173.255,294.18,173.336z M295.609,186.526c-0.094-0.26-0.189-0.517-0.292-0.797 C292.138,184.524,294.16,188.885,295.609,186.526z M288.537,184.454c0.086-0.901,0.091-1-0.538-1.271l-0.686,1.53 C287.973,184.777,288.017,184.757,288.537,184.454z M287.587,189.456c1.346-0.231,1.236-1.838-0.088-1.803 C286.486,187.962,286.596,189.148,287.587,189.456z M302.191,201.788c-0.72-0.673-1.643-0.15-1.979,0.657 C300.741,203.502,302.592,203.265,302.191,201.788z M295.888,180.004c0.203,0.181,0.431,0.383,0.669,0.596 c0.215-0.068,0.393-0.156,0.539-0.257c-0.224-0.551-0.442-1.083-0.655-1.601c-0.144,0.023-0.297,0.06-0.463,0.127 C295.95,179.229,295.921,179.588,295.888,180.004z M286.472,186.75c-0.001-0.034-0.014-0.074-0.022-0.111l-0.073,0.163 C286.409,186.785,286.441,186.771,286.472,186.75z M290.821,176.887l-0.534,1.191c0.027,0.011,0.055,0.022,0.082,0.033 C290.885,177.787,290.975,177.288,290.821,176.887z M294.694,180.839c-0.195,0.061-0.43,0.135-0.684,0.216 c-0.453,0.726-0.38,2.041,0.738,1.752c0.203-0.247,0.417-0.507,0.624-0.76C295.204,181.596,295.318,181.041,294.694,180.839z M287.897,205.901c-0.352,0.09-0.651,0.168-0.931,0.24c-0.1,0.304-0.187,0.57-0.265,0.808 C287.374,208.492,289.965,206.695,287.897,205.901z M293.653,177.086c0.292,0.357,0.543,0.663,0.827,1.012 c0.564-0.004,0.86-0.533,0.964-1.07C295.033,175.87,293.802,175.704,293.653,177.086z M282.214,215.369 c0.213,0.451-0.014,0.948,0.315,1.443C284.732,216.94,283.968,214.038,282.214,215.369z M286.761,210.934 c-0.102,0.847,0.369,0.879,0.872,1.251C289.637,212.529,288.128,209.545,286.761,210.934z M288.605,215.999 c-0.438-0.892-0.438-0.892-1.424-0.743C286.28,216.658,287.933,217.603,288.605,215.999z M281.703,213.853 c-0.484-0.4-0.137-0.957-0.603-1.322c-0.024,0.009-0.047,0.017-0.071,0.025c0.152,0.601,0.311,1.192,0.476,1.757 C281.685,214.259,281.787,214.129,281.703,213.853z M290.685,209.504c-0.027-0.397-0.049-0.736-0.075-1.112 c-0.715-0.52-1.271,0.273-1.671,0.826C289.576,210.193,289.844,210.082,290.685,209.504z M297.71,197.476 c-0.719-0.879-1.728-0.967-1.942,0.309C296.445,198.697,297.333,198.555,297.71,197.476z M296.124,183.433 c-0.252,0.477,0.219,0.809,0.074,1.23C298.273,185.632,298.103,182.686,296.124,183.433z M300.227,211.219 c0.049,0.107,0.105,0.186,0.159,0.276c0.292-0.197,0.577-0.393,0.852-0.587C300.794,210.819,300.404,210.715,300.227,211.219z M290.075,190.148c-0.302,0.197-0.556,0.365-0.761,0.499c-0.02,0.34-0.036,0.609-0.054,0.918c0.449,0,0.878,0,1.317,0 c0.162-0.235,0.317-0.458,0.516-0.747C290.691,190.554,290.384,190.352,290.075,190.148z M291.695,178.941 c-0.965,1.558,0.932,1.279,1.617,0.533C293.134,178.884,292.941,178.82,291.695,178.941z M291.542,183.583 c-0.472,0.962,0.622,1.061,1.363,1.123C293.717,183.631,292.257,183.355,291.542,183.583z"/><g><path style="fill:#ffae7a" d="M324.163,160.556c0,0,0.187-2.336-2.897-1.869s-6.484,7.101-6.933,9.064s0,6.634,0,6.634 s-2.317,1.495-2.598,4.485c-0.28,2.99,4.111,7.849,7.475,6.728c3.364-1.121,14.483-13.455,16.072-14.763 c1.589-1.308-0.561-4.392-0.561-4.392s2.665-2.99,1.146-5.139C334.347,159.155,328.835,156.538,324.163,160.556z"/></g><g><g><path style="fill:#421b36" d="M323.714,160.208c-3.391,3.46-7.78,7.863-7.653,13.111c0.052,2.139,1.294,4.418,3.548,4.855 c1.959,0.38,4.07-1.24,3.823-3.312c-0.074-0.624-1.065-0.632-0.989,0c0.119,0.996-0.487,1.894-1.428,2.246 c-0.949,0.355-1.963-0.02-2.678-0.679c-1.654-1.525-1.443-3.985-0.814-5.941c1.227-3.816,4.152-6.785,6.891-9.58 C324.859,160.453,324.16,159.753,323.714,160.208L323.714,160.208z"/></g></g><g><g><path style="fill:#421b36" d="M317.572,170.381c3.692-2.07,8.29-1.094,10.881,2.226c0.391,0.501,1.087-0.203,0.699-0.7 c-2.863-3.668-8.036-4.648-12.08-2.38C316.517,169.838,317.015,170.693,317.572,170.381L317.572,170.381z"/></g></g><g><g><path style="fill:#421b36" d="M321.168,164.466c3.649-1.757,8.115-0.7,10.559,2.536c0.379,0.502,1.238,0.009,0.854-0.499 c-2.787-3.69-7.736-4.902-11.913-2.891C320.095,163.888,320.596,164.742,321.168,164.466L321.168,164.466z"/></g></g><g><g><g><path style="fill:#421b36" d="M284.552,416.21c-0.7-0.475-1.577-0.753-2.287-1.348c-3.233-2.709-6.228-6.796-7.717-10.609 c-1.816-4.649,3.248-22.786,3.678-23.242l-19.786,4.724c1.847,16.203,1.85,16.289,1.292,21.508 c-0.561,5.248-4.629,18.223-2.944,21.368c1.685,3.145,24.861,6.705,33.55,7.212c13.499,0.788,18.132-5.079,18.166-6.81 C308.528,427.826,288.44,418.849,284.552,416.21z"/></g><g><path style="fill:#8380ff" d="M303.176,425.806l-18.624-9.596c-1.899-1.035-3.841-2.937-5.803-5.253 c0,0-5.437,4.544-11.073,4.631c-5.636,0.087-8.882-3.214-8.882-3.214c-1.014,4.446-1.928,8.684-2.279,11.745 c0,0,11.511,8.358,26.557,8.729c15.046,0.37,23.582-5.249,23.582-5.249L303.176,425.806z"/></g><g><path style="fill:#fff" d="M308.242,428.62c-0.418-0.328-0.831-0.578-1.587-1.021c0,0,0.03-0.089,0,0 c-0.279,0.182-8.751,5.438-23.545,5.078c-15.046-0.369-26.594-8.557-26.594-8.557c-0.219,1.998-0.221,3.708,0.245,4.575 c0.053,0.099,0.128,0.196,0.219,0.293c0.185,0.201,0.454,0.401,0.793,0.601c4.896,2.888,24.668,5.861,32.54,6.32 c10.379,0.608,15.404-2.688,17.305-5.041C308.57,429.627,308.673,428.959,308.242,428.62z"/></g><g><path style="fill:#8380ff" d="M279.018,411.57c0,0,1-5.093-1.889-8.12c-2.656-2.782-12.321,1.628-11.89,5.116 c0.382,3.096,5.214,6.514,2.438,7.022c-2.777,0.508-8.347-2.948-8.629-3.02v5.218l7.191,4.884h8.032l4.969-4.325l4.375-2.713 C282.557,415.041,280.718,413.295,279.018,411.57z"/></g><g><g><path style="fill:#fff" d="M275.731,417.654c1.445-1.705,3.437-2.596,5.664-2.592c0.71,0.001,0.708-1.085,0-1.102 c-2.488-0.059-4.808,1.068-6.331,3.026C274.699,417.455,275.332,418.126,275.731,417.654L275.731,417.654z"/></g></g><g><g><path style="fill:#fff" d="M286.79,417.288c-2.516-0.254-5.441,1.432-6.604,3.657c-0.336,0.643,0.543,1.433,1.059,0.817 c0.767-0.915,1.445-1.745,2.451-2.416c0.989-0.66,2.069-0.997,3.188-1.363C287.278,417.855,287.182,417.328,286.79,417.288 L286.79,417.288z"/></g></g><g><g><path style="fill:#fff" d="M291.431,419.845c-2.262-0.315-4.809,1.618-6.136,3.273c-0.554,0.69,0.382,1.681,0.993,0.994 c0.735-0.827,1.548-1.567,2.479-2.17c0.87-0.563,1.913-0.825,2.754-1.408C291.752,420.372,291.783,419.893,291.431,419.845 L291.431,419.845z"/></g></g><g><path style="fill:#fff" d="M257.316,419.224c0,0,13.29,5.293,15.614,8.022c2.324,2.729,2.467,4.732,2.467,4.732 l2.999,0.499c0,0,0.295-4.422-4.86-7.757c-5.155-3.335-15.654-8.242-15.654-8.242L257.316,419.224z"/></g><g><g><path style="fill:#421b36" d="M278.813,411.503c-2.358,0.238-5.635,1.264-6.852,3.499c-0.229,0.42,0.225,0.85,0.638,0.638 c1.101-0.563,1.96-1.556,3.002-2.228c1.035-0.667,2.121-1.286,3.242-1.794C278.899,411.594,278.873,411.497,278.813,411.503 L278.813,411.503z"/></g></g><g><g><path style="fill:#8380ff" d="M258.344,412.811c-0.661,3.023-1.158,6.086-1.582,9.151c-0.186,1.343-0.36,2.69-0.482,4.041 c-0.074,0.814-0.224,1.734-0.069,2.548c0.315,1.646,3.241,2.394,4.605,2.837c2.622,0.85,5.326,1.453,8.025,2.003 c5.938,1.21,11.957,2.124,17.987,2.731c5.888,0.592,12.31,0.765,17.672-2.142c0.945-0.512,1.844-1.13,2.631-1.864 c0.782-0.729,1.856-1.833,1.849-2.96c-0.006-1.051-1.246-1.366-2.031-1.713c-1.201-0.531-2.468-0.985-3.615-1.628 c-0.561-0.315-1.066,0.548-0.504,0.863c0.893,0.501,1.873,0.867,2.81,1.276c0.462,0.201,2.234,0.69,2.332,1.22 c0.142,0.766-1.2,1.935-1.75,2.42c-0.699,0.617-1.486,1.129-2.307,1.567c-5.029,2.685-11.062,2.542-16.575,2.012 c-5.52-0.531-11.025-1.356-16.471-2.398c-2.618-0.5-5.231-1.054-7.801-1.761c-1.76-0.484-3.856-0.958-5.359-2.056 c-0.764-0.558-0.553-1.358-0.483-2.306c0.102-1.394,0.276-2.784,0.465-4.169c0.428-3.15,0.938-6.299,1.617-9.405 C259.445,412.45,258.482,412.182,258.344,412.811L258.344,412.811z"/></g></g></g><g><g><path style="fill:#421b36" d="M175.576,236.852c0.806,0.259,1.726,0.278,2.574,0.649c3.865,1.688,7.891,4.766,10.394,8.004 c3.053,3.949,3.306,22.778,3.021,23.337l17.652-10.109c-6.339-15.026-6.366-15.107-7.301-20.272 c-0.941-5.194-0.694-18.789-3.197-21.332c-2.503-2.543-25.742,0.573-34.223,2.535c-13.173,3.048-15.965,9.983-15.51,11.653 C149.299,232.464,171.102,235.416,175.576,236.852z"/></g><g><path style="fill:#8380ff" d="M155.003,232.894l20.573,3.959c2.114,0.457,4.513,1.735,7.048,3.405 c0,0,3.936-5.892,9.319-7.564c5.383-1.672,9.428,0.58,9.428,0.58c-0.28-4.552-0.597-8.876-1.123-11.911 c0,0-13.4-4.776-27.941-0.891c-14.541,3.885-21.147,11.682-21.147,11.682L155.003,232.894z"/></g><g><path style="fill:#fff" d="M149.35,231.622c0.493,0.197,0.96,0.321,1.811,0.533c0,0-0.004,0.094,0,0 c0.217-0.253,6.863-7.684,21.16-11.508c14.54-3.887,27.928,0.716,27.928,0.716c-0.353-1.979-0.833-3.62-1.525-4.32 c-0.079-0.08-0.178-0.152-0.293-0.219c-0.234-0.141-0.549-0.257-0.93-0.354c-5.511-1.392-25.32,1.329-33.003,3.106 c-10.13,2.342-14.022,6.921-15.183,9.713C148.751,230.747,148.84,231.418,149.35,231.622z"/></g><g><path style="fill:#8380ff" d="M182.194,239.745c0,0,0.476,5.169,4.101,7.258c3.332,1.921,11.363-5.034,9.966-8.259 c-1.239-2.863-6.839-4.78-4.318-6.05c2.521-1.27,8.839,0.476,9.131,0.466l-1.471-5.007l-8.277-2.66l-7.707,2.264l-3.548,5.55 l-3.433,3.836C177.82,237.411,180.077,238.568,182.194,239.745z"/></g><g><g><path style="fill:#fff" d="M183.633,232.98c-0.906,2.043-2.566,3.46-4.704,4.083c-0.681,0.199-0.374,1.241,0.31,1.057 c2.403-0.645,4.312-2.38,5.222-4.688C184.679,232.881,183.883,232.415,183.633,232.98L183.633,232.98z"/></g></g><g><g><path style="fill:#fff" d="M173.125,236.448c2.486-0.466,4.817-2.908,5.305-5.37c0.141-0.712-0.925-1.222-1.247-0.486 c-0.478,1.094-0.895,2.082-1.671,3.009c-0.763,0.912-1.704,1.54-2.674,2.206C172.497,236.042,172.738,236.521,173.125,236.448 L173.125,236.448z"/></g></g><g><g><path style="fill:#fff" d="M167.952,235.303c2.259-0.336,4.158-2.908,4.965-4.87c0.337-0.818-0.84-1.505-1.233-0.673 c-0.472,1-1.043,1.94-1.767,2.78c-0.676,0.786-1.603,1.33-2.246,2.128C167.495,234.887,167.6,235.356,167.952,235.303 L167.952,235.303z"/></g></g><g><path style="fill:#fff" d="M200.859,226.285c0,0-14.243-1.333-17.242-3.296c-2.999-1.963-3.701-3.845-3.701-3.845 l-3.018,0.367c0,0,0.963,4.326,6.849,6.073c5.886,1.748,17.343,3.496,17.343,3.496L200.859,226.285z"/></g><g><g><path style="fill:#421b36" d="M182.409,239.751c2.196-0.893,5.051-2.801,5.588-5.288c0.101-0.468-0.455-0.752-0.792-0.432 c-0.898,0.85-1.443,2.045-2.253,2.984c-0.805,0.932-1.673,1.832-2.605,2.635C182.301,239.688,182.353,239.773,182.409,239.751 L182.409,239.751z"/></g></g><g><g><path style="fill:#8380ff" d="M201.68,232.727c-0.218-3.087-0.605-6.166-1.061-9.226c-0.2-1.341-0.413-2.682-0.677-4.013 c-0.159-0.802-0.273-1.727-0.652-2.464c-0.766-1.491-3.784-1.384-5.218-1.424c-2.755-0.077-5.52,0.107-8.264,0.339 c-6.038,0.512-12.071,1.332-18.027,2.449c-5.816,1.091-12.027,2.736-16.352,7.035c-0.762,0.758-1.451,1.604-1.999,2.53 c-0.544,0.92-1.264,2.281-0.94,3.361c0.302,1.007,1.581,0.959,2.432,1.071c1.302,0.171,2.646,0.249,3.928,0.543 c0.627,0.144,0.868-0.826,0.241-0.97c-0.998-0.229-2.042-0.304-3.056-0.432c-0.5-0.063-2.338-0.033-2.581-0.513 c-0.352-0.695,0.606-2.195,0.997-2.816c0.496-0.788,1.107-1.502,1.772-2.154c4.069-3.993,9.897-5.557,15.336-6.601 c5.446-1.046,10.96-1.806,16.479-2.342c2.653-0.258,5.316-0.463,7.981-0.509c1.825-0.032,3.97-0.168,5.721,0.463 c0.89,0.32,0.913,1.147,1.114,2.077c0.295,1.367,0.52,2.749,0.729,4.131c0.477,3.143,0.876,6.308,1.099,9.48 C200.726,233.384,201.725,233.37,201.68,232.727L201.68,232.727z"/></g></g></g><g><path style="fill:#421b36" d="M252.652,256.379c0,0-4.278,47.776-2.659,77.561c1.619,29.785-1.318,61.323,7.165,63.783 c8.484,2.46,29.512,4.535,34.015-4.761c4.504-9.296-2.905-123.646-3.226-129.133c-0.392-6.686-4.249-54.347-5.232-56.093 c-0.983-1.746-20.288-2.416-20.288-2.416L252.652,256.379z"/></g><g><path style="fill:#421b36" d="M243.926,202.921c0,0-16.199,12.371-20.666,24.396c-4.466,12.025-11.338,40.884-11.338,40.884 s2.748-25.08-6.184-25.767c-8.933-0.687-19.24,14.43-20.957,23.362c-1.718,8.933,3.092,63.559,23.362,66.652 s48.872-81.484,48.872-81.484l5.412-45.643L243.926,202.921z"/></g><g><g><path style="fill:#8380ff" d="M246.106,280.239c4.85-11.058,9.138-22.371,13.547-33.609c1.061-2.705,2.122-5.411,3.193-8.112 c0.235-0.592-0.722-0.849-0.954-0.263c-4.413,11.126-8.701,22.302-13.232,33.381c-1.109,2.712-2.231,5.42-3.408,8.104 C244.999,280.317,245.851,280.821,246.106,280.239L246.106,280.239z"/></g></g><g><g><path style="fill:#8380ff" d="M205.414,299.262c3.454-14.863,6.908-29.726,10.362-44.59c0.144-0.62-0.81-0.884-0.954-0.263 c-3.454,14.863-6.908,29.726-10.362,44.59C204.317,299.618,205.27,299.883,205.414,299.262L205.414,299.262z"/></g></g><g><g><path style="fill:#8380ff" d="M259.068,252.025c-1.081,18.322-1.554,36.678-1.407,55.031 c0.147,18.353,0.911,36.7,2.289,55.002c0.775,10.291,1.747,20.566,2.908,30.82c0.071,0.625,1.061,0.633,0.989,0 c-2.065-18.237-3.525-36.541-4.365-54.876c-0.84-18.334-1.064-36.696-0.672-55.045c0.22-10.317,0.638-20.63,1.246-30.932 C260.095,251.389,259.105,251.392,259.068,252.025L259.068,252.025z"/></g></g></g><g><path style="fill:#8380ff" d="M279.273,146.938c1.031,0.285,5.938,0.469,12.151,5.771c6.213,5.302,8.044,22.9,7.027,28.34 c-1.017,5.44-9.457,11.221-9.457,11.221L279.273,146.938z"/></g><g><g><path style="fill:#421b36" d="M277.237,94.977c-6.312-2.061-14.481-0.063-19.59,4.333c-5.109,4.396-8.309,10.889-9.792,17.638 c-0.673,3.065-1.008,6.337-0.032,9.311c0.976,2.974,3.55,5.55,6.552,5.592c-0.718,2.928,0.823,6.283,3.456,7.522 c2.633,1.239,6.051,0.217,7.663-2.291c3.312,1.992,6.712,3.893,10.379,5.011c3.667,1.118,7.65,1.416,11.287,0.197 c3.637-1.219,6.868-4.101,8.045-7.906c3.515,2.12,7.895,2.598,11.751,1.282c1.134-0.387,2.25-0.941,3.065-1.853 c0.816-0.911,1.285-2.232,0.976-3.439c-0.449-1.751-2.258-2.66-3.897-3.242c-1.639-0.583-3.477-1.202-4.3-2.797 c1.944,0.78,4.2,0.659,6.058-0.324c0.665-0.352,1.355-0.966,1.28-1.743c-0.086-0.881-1.049-1.298-1.843-1.603 c-5.547-2.13-8.759-12.522-11.965-17.032"/></g><g><g><path style="fill:#421b36" d="M296.331,103.634c-2.026-3.051-5.102-5.315-8.469-6.757c-3.585-1.536-7.545-2.189-11.433-1.885 l0.271,38.591l14.125-9.282c1.308-3.497,6.801-7.269,7.535-10.188C299.253,110.56,298.357,106.685,296.331,103.634z"/></g><g><path style="fill:#ffae7a" d="M263.003,103.081c7.057-9.486,22.029-7.941,27.032,2.77c1.583,3.388,2.217,7.855,1.978,13.8 c-0.667,16.586-14.709,16.324-14.709,16.324l-1.459,10.714l-3.112,4.353l-10.794-4.941l-0.466-18.136 c0,0-1.697-12.386-0.509-20.191C261.228,106.038,261.97,104.47,263.003,103.081z"/></g><g><path style="fill:#8380ff" d="M260.326,142.51c0,0,0.866-4.297,4.01-4.601c3.145-0.304,13.897,0,14.709,2.637 c0.811,2.637,0,7.202,0,7.202L260.326,142.51z"/></g><g><g><path style="fill:#421b36" d="M269.104,105.584c1.808-1.76,4.036-1.98,6.388-2.21c0.539-0.053,0.787-0.839,0.17-1.014 c-2.657-0.752-5.308,0.89-6.949,2.814C268.48,105.445,268.836,105.844,269.104,105.584L269.104,105.584z"/></g></g><g><g><path style="fill:#421b36" d="M269.723,133.568c2.66,2.147,6.049,3.089,9.45,2.844c0.578-0.042,0.593-0.909,0-0.911 c-3.327-0.006-6.348-0.722-9.409-2.004C269.725,133.482,269.691,133.543,269.723,133.568L269.723,133.568z"/></g></g><g><path style="fill:#421b36" d="M251.591,107.83c-2.584,7.017-6.486,27.771-1.196,33.056l17.385,0.382 c3.642,0.08,6.217-3.594,4.837-6.966c-2.989-7.306-8.915-16.984-8.915-23.626c0-5.14,5.052-5.869,13.229-13.814v-2.196 c-4.531-1.586-10.019-0.651-14.295,1.53c-2.412,1.23-4.921,2.915-6.665,4.986C255.97,101.182,252.702,104.814,251.591,107.83z"/></g><g style="opacity:.3"><path style="fill:#421b36" d="M273.446,114.882c0,0.902-1.412,1.633-3.154,1.633s-3.154-0.731-3.154-1.633 s1.412-1.633,3.154-1.633S273.446,113.98,273.446,114.882z"/></g><g style="opacity:.3"><path style="fill:#421b36" d="M290.824,114.882c0,0.902-1.412,1.633-3.154,1.633c-1.742,0-3.154-0.731-3.154-1.633 s1.412-1.633,3.154-1.633C289.412,113.249,290.824,113.98,290.824,114.882z"/></g><g><g><path style="fill:#421b36" d="M277.471,95.551c1.601-1.271,2.985-2.649,5.029-3.19c2.03-0.538,3.898-0.162,5.883,0.362 c0.376,0.099,0.614-0.437,0.267-0.634c-3.624-2.051-9.692-0.732-11.284,3.401C277.34,95.555,277.428,95.585,277.471,95.551 L277.471,95.551z"/></g></g><g><g><path style="fill:#421b36" d="M284.832,88.373c-4.63,0.124-8.165,3.291-8.987,7.847c-0.105,0.582,0.788,0.831,0.891,0.246 c0.733-4.129,3.988-7.222,8.12-7.914C284.958,88.534,284.933,88.37,284.832,88.373L284.832,88.373z"/></g></g><g><path style="fill:#ffae7a" d="M256.798,115.135c-0.932-0.465-2.11-0.256-2.945,0.365c-0.836,0.621-1.356,1.596-1.606,2.607 c-0.415,1.68-0.086,3.59,1.083,4.866c1.169,1.276,3.221,1.75,4.725,0.893L256.798,115.135z"/></g><g><g><path style="fill:#421b36" d="M254.731,119.894c0.315-0.224,1.01-0.356,1.388-0.342c0.535,0.02,0.882,0.295,1.246,0.653 c0.376,0.369,1.032-0.108,0.742-0.573c-0.396-0.635-1.155-1.017-1.901-1.001c-0.352,0.008-0.748,0.11-1.042,0.309 c-0.334,0.227-0.384,0.498-0.553,0.833C254.575,119.846,254.654,119.949,254.731,119.894L254.731,119.894z"/></g></g><g><g><path style="fill:#421b36" d="M286.403,103.994c-1.858-2.003-5.01-1.682-6.359,0.664c-1.915,3.33-0.295,8.657,1.67,11.612 c0.39,0.586,1.237,0.081,0.937-0.548c-1.132-2.372-2.234-4.81-2.291-7.495c-0.074-3.506,2.575-5.64,5.779-3.892 C286.358,104.454,286.572,104.176,286.403,103.994L286.403,103.994z"/></g></g><g><path style="fill:#421b36" d="M281.839,119.1c-1.634-0.737-3.349-1.295-5.103-1.662c-0.791-0.166-1.721-0.257-2.31,0.297 c-0.458,0.43-0.554,1.123-0.5,1.749c0.163,1.904,1.556,3.645,3.377,4.223c1.822,0.577,3.963-0.043,5.193-1.506 c0.294-0.35,0.544-0.756,0.607-1.209C283.165,120.54,283.424,119.667,281.839,119.1z"/></g></g><g><g><path style="fill:#421b36" d="M297.273,107.109c1.174,2.824,2.925,5.301,5.408,7.131c3.08,2.27,6.951,2.479,10.078,4.566 c0.621,0.415,1.404-0.57,0.809-1.049c-2.433-1.959-5.552-2.104-8.296-3.455c-3.253-1.602-5.741-4.245-7.328-7.476 C297.764,106.459,297.112,106.723,297.273,107.109L297.273,107.109z"/></g></g></g><g><path style="fill:#8380ff" d="M243.926,202.921c0,0-6.72-4.827-7.783-10.964c-1.063-6.136,9.031-48.543,15.938-49.475 c6.906-0.933,19.303,1.203,24.615,3.057c5.313,1.854,16.508,18.616,16.488,27.501c-0.01,4.442-1.394,13.237-3.106,21.105 c-1.712,7.867-3.752,14.807-5.073,15.538C282.363,211.144,243.926,202.921,243.926,202.921z"/></g><g><path style="fill:#8380ff" d="M260.364,145.538c0,0-10.318-82.705-17.955-82.705s-18.288,4.81-20.005,15.46 s17.689,90.763,17.689,90.763"/></g><g><g><path style="fill:#421b36" d="M235.725,50.692c-1.912,1.128-3.26,3.102-3.551,5.311c-0.299,2.273,0.557,4.599,2.206,6.18 c0.459,0.441,1.16-0.258,0.7-0.7c-1.421-1.363-2.181-3.354-1.936-5.321c0.239-1.919,1.427-3.64,3.081-4.616 C236.772,51.223,236.275,50.368,235.725,50.692L235.725,50.692z"/></g></g><g><g><path style="fill:#421b36" d="M240.674,167.334c9.648,0.564,18.538-5.399,21.744-14.494c0.212-0.602-0.743-0.86-0.954-0.263 c-3.065,8.695-11.599,14.306-20.79,13.768C240.038,166.308,240.04,167.297,240.674,167.334L240.674,167.334z"/></g></g><g><g><path style="fill:#421b36" d="M275.053,111.685c-0.24-1.256-1.179-2.189-2.459-2.361c-1.099-0.148-2.701,0.409-2.983,1.601 c-0.118,0.501,0.418,0.953,0.883,0.679c0.672-0.397,1.054-1.006,1.929-1.017c0.881-0.011,1.638,0.605,2.026,1.353 C274.631,112.289,275.119,112.034,275.053,111.685L275.053,111.685z"/></g></g><g><g><path style="fill:#421b36" d="M283.442,111.967c0.246-0.56,0.763-1.389,1.465-1.406c0.707-0.016,0.939,0.726,1.448,1.049 c0.394,0.249,0.898-0.078,0.904-0.519c0.017-1.155-1.485-1.989-2.524-1.796c-1.219,0.227-1.819,1.364-1.909,2.505 C282.802,112.117,283.311,112.266,283.442,111.967L283.442,111.967z"/></g></g><g><g><path style="fill:#421b36" d="M261.794,147.873c0.378-1.079,0.211-2.204-0.071-3.284c-0.317-1.215-0.653-2.362-0.746-3.623 c-0.185-2.502,0.148-5.005,0.296-7.5c0.038-0.636-0.952-0.634-0.989,0c-0.144,2.413-0.458,4.831-0.313,7.252 c0.066,1.099,0.24,2.18,0.544,3.239c0.342,1.192,0.754,2.429,0.326,3.654C260.629,148.212,261.585,148.471,261.794,147.873 L261.794,147.873z"/></g></g><g><g><path style="fill:#421b36" d="M284.033,210.005c3.386-0.388,4.941-3.563,5.683-6.531c0.675-2.702,1.175-5.454,1.637-8.199 c1.103-6.546,1.9-13.161,2.271-19.79c0.197-3.513,0.272-7.04,0.055-10.554c-0.039-0.633-1.029-0.637-0.989,0 c0.37,5.977-0.04,12.005-0.651,17.952c-0.598,5.825-1.431,11.643-2.618,17.38c-0.654,3.16-1.38,8.294-5.388,8.753 C283.408,209.087,283.401,210.077,284.033,210.005L284.033,210.005z"/></g></g><g><g><path style="fill:#421b36" d="M265.063,145.111c4.858,1.584,9.894,2.539,14.993,2.86c0.636,0.04,0.633-0.949,0-0.989 c-5.013-0.315-9.955-1.268-14.73-2.825C264.719,143.959,264.459,144.914,265.063,145.111L265.063,145.111z"/></g></g></g></g></svg>